SplineFontDB: 3.2
FontName: Helvetica-Oblique
FullName: Helvetica Oblique
FamilyName: Helvetica
Weight: Book
Copyright: 
Version: 0.90
ItalicAngle: -12
UnderlinePosition: -100
UnderlineWidth: 50
Ascent: 1638
Descent: 410
InvalidEm: 0
sfntRevision: 0x0000e666
LayerCount: 2
Layer: 0 1 "Back" 1
Layer: 1 1 "Fore" 0
XUID: [1021 231 -577440481 691435]
StyleMap: 0x0001
FSType: 4
OS2Version: 3
OS2_WeightWidthSlopeOnly: 0
OS2_UseTypoMetrics: 0
CreationTime: 1569334727
ModificationTime: 1569334727
PfmFamily: 33
TTFWeight: 400
TTFWidth: 5
LineGap: 56
VLineGap: 0
Panose: 2 11 5 0 4 0 0 9 0 4
OS2TypoAscent: 1470
OS2TypoAOffset: 0
OS2TypoDescent: -424
OS2TypoDOffset: 0
OS2TypoLinegap: 111
OS2WinAscent: 1938
OS2WinAOffset: 0
OS2WinDescent: 461
OS2WinDOffset: 0
HheadAscent: 1938
HheadAOffset: 0
HheadDescent: -461
HheadDOffset: 0
OS2SubXSize: 419
OS2SubYSize: 419
OS2SubXOff: 0
OS2SubYOff: 587
OS2SupXSize: 419
OS2SupYSize: 419
OS2SupXOff: 0
OS2SupYOff: 587
OS2StrikeYSize: 102
OS2StrikeYPos: 512
OS2CapHeight: 1470
OS2XHeight: 1071
OS2Vendor: 'NXTS'
OS2CodePages: 200001ff.fff70000
OS2UnicodeRanges: a0002aef.c0007ffb.00000008.00000000
Lookup: 258 0 0 "'kern' Horizontal Kerning lookup 0" { "'kern' Horizontal Kerning lookup 0 subtable"  } ['kern' ('DFLT' <'dflt' > ) ]
MarkAttachClasses: 1
DEI: 91125
TtTable: prep
PUSHW_1
 0
CALL
SVTCA[y-axis]
PUSHW_3
 1
 3
 2
CALL
SVTCA[x-axis]
PUSHW_3
 4
 5
 2
CALL
SVTCA[x-axis]
PUSHW_8
 4
 63
 52
 41
 30
 18
 0
 8
CALL
PUSHW_8
 5
 57
 47
 41
 30
 18
 0
 8
CALL
PUSHW_8
 6
 76
 62
 48
 35
 18
 0
 8
CALL
PUSHW_8
 7
 81
 70
 56
 40
 24
 0
 8
CALL
PUSHW_8
 8
 87
 71
 56
 40
 24
 0
 8
CALL
SVTCA[y-axis]
PUSHW_8
 1
 72
 59
 46
 30
 18
 0
 8
CALL
PUSHW_8
 2
 64
 53
 41
 30
 18
 0
 8
CALL
PUSHW_8
 3
 76
 62
 48
 35
 18
 0
 8
CALL
SVTCA[y-axis]
PUSHW_3
 9
 8
 7
CALL
PUSHW_1
 0
DUP
RCVT
RDTG
ROUND[Black]
RTG
WCVTP
PUSHW_3
 48
 11
 1
DELTAC1
PUSHW_3
 112
 13
 1
DELTAC1
PUSHW_3
 32
 13
 1
DELTAC2
PUSHW_3
 159
 15
 1
DELTAC1
PUSHW_3
 191
 15
 1
DELTAC1
PUSHW_3
 79

StartChar: .notdef
Encoding: 65536 -1 0
Width: 1048
GlyphClass: 2
Flags: W
LayerCount: 2
Fore
SplineSet
1048 1470 m 1,0,-1
 1048 0 l 1,1,-1
 0 0 l 1,2,-1
 0 1470 l 1,3,-1
 1048 1470 l 1,0,-1
946 102 m 1,4,-1
 946 1367 l 1,5,-1
 102 1367 l 1,6,-1
 102 102 l 1,7,-1
 946 102 l 1,4,-1
460 479 m 1,8,-1
 457 514 l 1,9,10
 457 626 457 626 483.5 679.5 c 128,-1,11
 510 733 510 733 578 800 c 0,12,13
 643 865 643 865 661.5 898 c 128,-1,14
 680 931 680 931 680 970 c 0,15,16
 680 1044 680 1044 633.5 1094.5 c 128,-1,17
 587 1145 587 1145 525 1145 c 0,18,19
 460 1145 460 1145 414 1099.5 c 128,-1,20
 368 1054 368 1054 356 951 c 1,21,-1
 254 967 l 1,22,23
 268 1113 268 1113 343.5 1180.5 c 128,-1,24
 419 1248 419 1248 530 1248 c 0,25,26
 638 1248 638 1248 711.5 1173.5 c 128,-1,27
 785 1099 785 1099 785 979 c 0,28,29
 785 914 785 914 759 859.5 c 128,-1,30
 733 805 733 805 656 733 c 0,31,32
 580 665 580 665 567 626 c 128,-1,33
 554 587 554 587 554 479 c 1,34,-1
 460 479 l 1,8,-1
454 239 m 1,35,-1
 454 376 l 1,36,-1
 569 376 l 1,37,-1
 569 239 l 1,38,-1
 454 239 l 1,35,-1
EndSplineSet
Validated: 1
EndChar

StartChar: exclam
Encoding: 33 33 4
Width: 569
GlyphClass: 2
Flags: W
LayerCount: 2
Fore
SplineSet
197 350 m 1,0,-1
 283 985 l 1,1,-1
 386 1470 l 1,2,-1
 585 1470 l 1,3,-1
 482 985 l 1,4,-1
 298 350 l 1,5,-1
 197 350 l 1,0,-1
273 0 m 1,6,-1
 74 0 l 1,7,-1
 118 209 l 1,8,-1
 317 209 l 1,9,-1
 273 0 l 1,6,-1
EndSplineSet
Validated: 1
EndChar

StartChar: numbersign
Encoding: 35 35 6
Width: 1139
GlyphClass: 2
Flags: W
LayerCount: 2
Fore
SplineSet
689 0 m 1,0,-1
 554 0 l 1,1,-1
 651 430 l 1,2,-1
 395 430 l 1,3,-1
 298 0 l 1,4,-1
 163 0 l 1,5,-1
 260 430 l 1,6,-1
 49 430 l 1,7,-1
 80 559 l 1,8,-1
 291 559 l 1,9,-1
 357 850 l 1,10,-1
 146 850 l 1,11,-1
 175 979 l 1,12,-1
 386 979 l 1,13,-1
 483 1409 l 1,14,-1
 621 1409 l 1,15,-1
 523 979 l 1,16,-1
 777 979 l 1,17,-1
 875 1409 l 1,18,-1
 1012 1409 l 1,19,-1
 914 979 l 1,20,-1
 1125 979 l 1,21,-1
 1096 850 l 1,22,-1
 885 850 l 1,23,-1
 817 559 l 1,24,-1
 1028 559 l 1,25,-1
 998 430 l 1,26,-1
 787 430 l 1,27,-1
 689 0 l 1,0,-1
494 850 m 1,28,-1
 426 559 l 1,29,-1
 682 559 l 1,30,-1
 748 850 l 1,31,-1
 494 850 l 1,28,-1
EndSplineSet
Validated: 1
EndChar

StartChar: dollar
Encoding: 36 36 7
Width: 1139
GlyphClass: 2
Flags: W
LayerCount: 2
Fore
SplineSet
973 1067 m 1,0,1
 977 1090 977 1090 977 1116 c 0,2,3
 977 1289 977 1289 780 1302 c 1,4,-1
 677 814 l 1,5,6
 881 764 881 764 968 681.5 c 128,-1,7
 1055 599 1055 599 1055 458 c 0,8,9
 1055 231 1055 231 888 97 c 128,-1,10
 721 -37 721 -37 496 -39 c 1,11,-1
 454 -236 l 1,12,-1
 358 -236 l 1,13,-1
 400 -39 l 1,14,15
 219 -23 219 -23 125.5 66.5 c 128,-1,16
 32 156 32 156 32 304 c 0,17,18
 32 365 32 365 49 436 c 1,19,-1
 229 436 l 1,20,21
 216 381 216 381 216 329 c 0,22,23
 216 141 216 141 433 114 c 1,24,-1
 548 656 l 1,25,26
 197 723 197 723 197 990 c 0,27,28
 197 1191 197 1191 347 1323.5 c 128,-1,29
 497 1456 497 1456 717 1456 c 1,30,-1
 745 1587 l 1,31,-1
 841 1587 l 1,32,-1
 813 1456 l 1,33,34
 1155 1416 1155 1416 1155 1149 c 0,35,36
 1155 1112 1155 1112 1147 1067 c 1,37,-1
 973 1067 l 1,0,1
528 112 m 1,38,39
 659 112 659 112 759 201 c 128,-1,40
 859 290 859 290 859 425 c 0,41,42
 859 585 859 585 639 634 c 1,43,-1
 528 112 l 1,38,39
685 1304 m 1,44,-1
 683 1304 l 2,45,46
 563 1304 563 1304 474 1223.5 c 128,-1,47
 385 1143 385 1143 385 1019 c 0,48,49
 385 874 385 874 585 835 c 1,50,-1
 685 1304 l 1,44,-1
EndSplineSet
Validated: 1
EndChar

StartChar: percent
Encoding: 37 37 8
Width: 1820
GlyphClass: 2
Flags: W
LayerCount: 2
Fore
SplineSet
488 727 m 0,0,1
 355 727 355 727 272.5 805 c 128,-1,2
 190 883 190 883 190 1002 c 0,3,4
 190 1176 190 1176 311.5 1299.5 c 128,-1,5
 433 1423 433 1423 613 1423 c 0,6,7
 737 1423 737 1423 821.5 1346.5 c 128,-1,8
 906 1270 906 1270 906 1150 c 0,9,10
 906 980 906 980 782 853.5 c 128,-1,11
 658 727 658 727 488 727 c 0,0,1
1291 -14 m 0,12,13
 1158 -14 1158 -14 1075.5 64 c 128,-1,14
 993 142 993 142 993 261 c 0,15,16
 993 435 993 435 1114.5 558.5 c 128,-1,17
 1236 682 1236 682 1416 682 c 0,18,19
 1540 682 1540 682 1624.5 605.5 c 128,-1,20
 1709 529 1709 529 1709 409 c 0,21,22
 1709 239 1709 239 1585 112.5 c 128,-1,23
 1461 -14 1461 -14 1291 -14 c 0,12,13
446 -39 m 1,24,-1
 326 -39 l 1,25,-1
 1448 1440 l 1,26,-1
 1571 1440 l 1,27,-1
 446 -39 l 1,24,-1
759 1116 m 0,28,29
 759 1189 759 1189 709.5 1234.5 c 128,-1,30
 660 1280 660 1280 585 1280 c 0,31,32
 477 1280 477 1280 406.5 1204.5 c 128,-1,33
 336 1129 336 1129 336 1034 c 0,34,35
 336 961 336 961 385 915.5 c 128,-1,36
 434 870 434 870 511 870 c 0,37,38
 610 870 610 870 684.5 946.5 c 128,-1,39
 759 1023 759 1023 759 1116 c 0,28,29
1562 375 m 0,40,41
 1562 448 1562 448 1512.5 493.5 c 128,-1,42
 1463 539 1463 539 1388 539 c 0,43,44
 1280 539 1280 539 1209.5 463.5 c 128,-1,45
 1139 388 1139 388 1139 293 c 0,46,47
 1139 220 1139 220 1188 174.5 c 128,-1,48
 1237 129 1237 129 1314 129 c 0,49,50
 1413 129 1413 129 1487.5 205.5 c 128,-1,51
 1562 282 1562 282 1562 375 c 0,40,41
EndSplineSet
Validated: 1
EndChar

StartChar: ampersand
Encoding: 38 38 9
Width: 1341
GlyphClass: 2
Flags: W
LayerCount: 2
Fore
SplineSet
1201 0 m 1,0,-1
 972 0 l 1,1,-1
 873 163 l 1,2,3
 783 71 783 71 673 20 c 128,-1,4
 563 -31 563 -31 409 -31 c 0,5,6
 241 -31 241 -31 141.5 54.5 c 128,-1,7
 42 140 42 140 42 299 c 0,8,9
 42 620 42 620 481 817 c 1,10,11
 386 961 386 961 386 1074 c 0,12,13
 386 1245 386 1245 509 1357.5 c 128,-1,14
 632 1470 632 1470 798 1470 c 0,15,16
 929 1470 929 1470 1008 1401.5 c 128,-1,17
 1087 1333 1087 1333 1087 1219 c 0,18,19
 1087 1082 1087 1082 992.5 976.5 c 128,-1,20
 898 871 898 871 726 782 c 1,21,-1
 926 463 l 1,22,23
 998 567 998 567 1040 692 c 1,24,-1
 1210 692 l 1,25,26
 1143 489 1143 489 1007 313 c 1,27,-1
 1201 0 l 1,0,-1
555 694 m 1,28,29
 228 544 228 544 228 329 c 0,30,31
 228 238 228 238 289 181.5 c 128,-1,32
 350 125 350 125 447 125 c 0,33,34
 635 125 635 125 800 289 c 1,35,-1
 555 694 l 1,28,29
657 899 m 1,36,37
 791 971 791 971 847 1039.5 c 128,-1,38
 903 1108 903 1108 903 1190 c 0,39,40
 903 1253 903 1253 868.5 1284 c 128,-1,41
 834 1315 834 1315 778 1315 c 0,42,43
 685 1315 685 1315 626 1258 c 128,-1,44
 567 1201 567 1201 567 1115 c 0,45,46
 567 1011 567 1011 657 899 c 1,36,37
EndSplineSet
Validated: 1
EndChar

StartChar: quotesingle
Encoding: 39 39 10
Width: 391
GlyphClass: 2
Flags: W
LayerCount: 2
Fore
SplineSet
323 1470 m 1,0,-1
 472 1470 l 1,1,-1
 362 948 l 1,2,-1
 213 948 l 1,3,-1
 323 1470 l 1,0,-1
EndSplineSet
Validated: 1
EndChar

StartChar: parenleft
Encoding: 40 40 11
Width: 682
GlyphClass: 2
Flags: W
LayerCount: 2
Fore
SplineSet
819 1501 m 1,0,1
 296 860 296 860 296 177 c 0,2,3
 296 -67 296 -67 412 -424 c 1,4,-1
 292 -424 l 1,5,6
 111 -46 111 -46 111 235 c 0,7,8
 111 876 111 876 694 1501 c 1,9,-1
 819 1501 l 1,0,1
EndSplineSet
Validated: 1
EndChar

StartChar: parenright
Encoding: 41 41 12
Width: 682
GlyphClass: 2
Flags: W
LayerCount: 2
Fore
SplineSet
-129 -424 m 1,0,1
 394 217 394 217 394 900 c 0,2,3
 394 1144 394 1144 278 1501 c 1,4,-1
 398 1501 l 1,5,6
 579 1123 579 1123 579 842 c 0,7,8
 579 201 579 201 -4 -424 c 1,9,-1
 -129 -424 l 1,0,1
EndSplineSet
Validated: 1
EndChar

StartChar: asterisk
Encoding: 42 42 13
Width: 797
GlyphClass: 2
Flags: W
LayerCount: 2
Fore
SplineSet
292 1323 m 1,0,-1
 491 1245 l 1,1,-1
 538 1470 l 1,2,-1
 661 1470 l 1,3,-1
 614 1245 l 1,4,-1
 845 1323 l 1,5,-1
 862 1210 l 1,6,-1
 627 1141 l 1,7,-1
 723 952 l 1,8,-1
 608 883 l 1,9,-1
 515 1075 l 1,10,-1
 342 883 l 1,11,-1
 256 952 l 1,12,-1
 434 1141 l 1,13,-1
 227 1210 l 1,14,-1
 292 1323 l 1,0,-1
EndSplineSet
Validated: 1
EndChar

StartChar: plus
Encoding: 43 43 14
Width: 1200
GlyphClass: 2
Flags: W
LayerCount: 2
Fore
SplineSet
526 1034 m 1,0,-1
 676 1034 l 1,1,-1
 676 592 l 1,2,-1
 1118 592 l 1,3,-1
 1118 442 l 1,4,-1
 676 442 l 1,5,-1
 676 0 l 1,6,-1
 526 0 l 1,7,-1
 526 442 l 1,8,-1
 82 442 l 1,9,-1
 82 592 l 1,10,-1
 526 592 l 1,11,-1
 526 1034 l 1,0,-1
EndSplineSet
Validated: 1
EndChar

StartChar: comma
Encoding: 44 44 15
Width: 569
GlyphClass: 2
Flags: W
LayerCount: 2
Fore
SplineSet
114 217 m 1,0,-1
 327 217 l 1,1,-1
 284 16 l 2,2,3
 252 -136 252 -136 172 -213 c 0,4,5
 91 -291 91 -291 4 -301 c 1,6,-1
 24 -207 l 1,7,8
 136 -194 136 -194 177 0 c 1,9,-1
 68 0 l 1,10,-1
 114 217 l 1,0,-1
EndSplineSet
Validated: 1
EndChar

StartChar: hyphen
Encoding: 45 45 16
AltUni2: 0000ad.ffffffff.0
Width: 682
GlyphClass: 2
Flags: W
LayerCount: 2
Fore
SplineSet
583 475 m 1,0,-1
 81 475 l 1,1,-1
 120 659 l 1,2,-1
 622 659 l 1,3,-1
 583 475 l 1,0,-1
EndSplineSet
Validated: 1
EndChar

StartChar: period
Encoding: 46 46 17
Width: 569
GlyphClass: 2
Flags: W
LayerCount: 2
Fore
SplineSet
281 0 m 1,0,-1
 68 0 l 1,1,-1
 114 217 l 1,2,-1
 327 217 l 1,3,-1
 281 0 l 1,0,-1
EndSplineSet
Validated: 1
EndChar

StartChar: slash
Encoding: 47 47 18
Width: 569
GlyphClass: 2
Flags: W
LayerCount: 2
Fore
SplineSet
-16 -39 m 1,0,-1
 -153 -39 l 1,1,-1
 680 1509 l 1,2,-1
 815 1509 l 1,3,-1
 -16 -39 l 1,0,-1
EndSplineSet
Validated: 1
EndChar

StartChar: zero
Encoding: 48 48 19
Width: 1139
GlyphClass: 2
Flags: W
LayerCount: 2
Fore
SplineSet
721 1278 m 0,0,1
 513 1278 513 1278 393 1018 c 128,-1,2
 273 758 273 758 273 421 c 0,3,4
 273 283 273 283 325 203 c 128,-1,5
 377 123 377 123 496 123 c 0,6,7
 704 123 704 123 824 383 c 128,-1,8
 944 643 944 643 944 980 c 0,9,10
 944 1118 944 1118 892 1198 c 128,-1,11
 840 1278 840 1278 721 1278 c 0,0,1
735 1440 m 0,12,13
 932 1440 932 1440 1034 1317.5 c 128,-1,14
 1136 1195 1136 1195 1136 989 c 0,15,16
 1136 590 1136 590 964.5 275.5 c 128,-1,17
 793 -39 793 -39 482 -39 c 0,18,19
 285 -39 285 -39 183 83.5 c 128,-1,20
 81 206 81 206 81 412 c 0,21,22
 81 811 81 811 252.5 1125.5 c 128,-1,23
 424 1440 424 1440 735 1440 c 0,12,13
EndSplineSet
Validated: 1
EndChar

StartChar: one
Encoding: 49 49 20
Width: 1139
GlyphClass: 2
Flags: W
LayerCount: 2
Fore
SplineSet
625 0 m 1,0,-1
 433 0 l 1,1,-1
 650 1022 l 1,2,-1
 314 1022 l 1,3,-1
 345 1165 l 1,4,5
 520 1172 520 1172 616 1221.5 c 128,-1,6
 712 1271 712 1271 787 1440 c 1,7,-1
 931 1440 l 1,8,-1
 625 0 l 1,0,-1
EndSplineSet
Validated: 1
EndChar

StartChar: two
Encoding: 50 50 21
Width: 1139
GlyphClass: 2
Flags: W
LayerCount: 2
Fore
SplineSet
178 924 m 1,0,1
 280 1440 280 1440 754 1440 c 0,2,3
 937 1440 937 1440 1045 1343.5 c 128,-1,4
 1153 1247 1153 1247 1153 1090 c 0,5,6
 1153 938 1153 938 1067.5 813.5 c 128,-1,7
 982 689 982 689 765 582 c 2,8,-1
 489 446 l 2,9,10
 252 329 252 329 188 170 c 1,11,-1
 964 170 l 1,12,-1
 928 0 l 1,13,-1
 -54 0 l 1,14,15
 26 388 26 388 399 581 c 1,16,-1
 686 723 l 2,17,18
 836 799 836 799 897.5 880 c 128,-1,19
 959 961 959 961 959 1058 c 0,20,21
 959 1161 959 1161 896.5 1219.5 c 128,-1,22
 834 1278 834 1278 723 1278 c 0,23,24
 437 1278 437 1278 358 924 c 1,25,-1
 178 924 l 1,0,1
EndSplineSet
Validated: 1
EndChar

StartChar: three
Encoding: 51 51 22
Width: 1139
GlyphClass: 2
Flags: W
LayerCount: 2
Fore
SplineSet
523 819 m 1,0,1
 569 815 569 815 616 815 c 0,2,3
 760 815 760 815 853 891 c 128,-1,4
 946 967 946 967 946 1088 c 0,5,6
 946 1175 946 1175 890 1226.5 c 128,-1,7
 834 1278 834 1278 723 1278 c 0,8,9
 434 1278 434 1278 377 969 c 1,10,-1
 200 969 l 1,11,12
 286 1440 286 1440 745 1440 c 0,13,14
 926 1440 926 1440 1032 1354 c 128,-1,15
 1138 1268 1138 1268 1138 1120 c 0,16,17
 1138 872 1138 872 881 757 c 1,18,-1
 881 753 l 1,19,20
 1061 689 1061 689 1061 482 c 0,21,22
 1061 252 1061 252 893.5 106.5 c 128,-1,23
 726 -39 726 -39 470 -39 c 0,24,25
 270 -39 270 -39 154.5 60 c 128,-1,26
 39 159 39 159 39 318 c 0,27,28
 39 375 39 375 54 440 c 1,29,-1
 239 440 l 1,30,31
 227 389 227 389 227 346 c 0,32,33
 227 241 227 241 294 182 c 128,-1,34
 361 123 361 123 491 123 c 0,35,36
 656 123 656 123 758 214 c 128,-1,37
 860 305 860 305 860 460 c 0,38,39
 860 565 860 565 794 615.5 c 128,-1,40
 728 666 728 666 573 666 c 0,41,42
 536 666 536 666 490 664 c 1,43,-1
 523 819 l 1,0,1
EndSplineSet
Validated: 1
EndChar

StartChar: four
Encoding: 52 52 23
Width: 1139
GlyphClass: 2
Flags: W
LayerCount: 2
Fore
SplineSet
824 350 m 1,0,-1
 750 0 l 1,1,-1
 570 0 l 1,2,-1
 644 350 l 1,3,-1
 15 350 l 1,4,-1
 53 526 l 1,5,-1
 897 1440 l 1,6,-1
 1056 1440 l 1,7,-1
 858 506 l 1,8,-1
 1069 506 l 1,9,-1
 1035 350 l 1,10,-1
 824 350 l 1,0,-1
221 506 m 1,11,-1
 678 506 l 1,12,-1
 817 1165 l 1,13,-1
 813 1165 l 1,14,-1
 221 506 l 1,11,-1
EndSplineSet
Validated: 1
EndChar

StartChar: five
Encoding: 53 53 24
Width: 1139
GlyphClass: 2
Flags: W
LayerCount: 2
Fore
SplineSet
1125 1232 m 1,0,-1
 514 1232 l 1,1,-1
 369 837 l 1,2,3
 503 926 503 926 642 926 c 0,4,5
 828 926 828 926 941 821 c 128,-1,6
 1054 716 1054 716 1054 546 c 0,7,8
 1054 315 1054 315 895 138 c 128,-1,9
 736 -39 736 -39 442 -39 c 0,10,11
 254 -39 254 -39 142 51.5 c 128,-1,12
 30 142 30 142 30 294 c 0,13,14
 30 326 30 326 34 357 c 1,15,-1
 218 357 l 1,16,17
 217 339 217 339 217 326 c 0,18,19
 217 224 217 224 280.5 170.5 c 128,-1,20
 344 117 344 117 460 117 c 0,21,22
 646 117 646 117 750.5 237 c 128,-1,23
 855 357 855 357 855 501 c 0,24,25
 855 619 855 619 784.5 692 c 128,-1,26
 714 765 714 765 591 765 c 0,27,28
 421 765 421 765 297 628 c 1,29,-1
 138 628 l 1,30,-1
 413 1408 l 1,31,-1
 583 1408 l 1,32,-1
 1162 1408 l 1,33,-1
 1125 1232 l 1,0,-1
EndSplineSet
Validated: 1
EndChar

StartChar: six
Encoding: 54 54 25
Width: 1139
GlyphClass: 2
Flags: W
LayerCount: 2
Fore
SplineSet
969 1057 m 1,0,1
 971 1173 971 1173 921.5 1225.5 c 128,-1,2
 872 1278 872 1278 768 1278 c 0,3,4
 602 1278 602 1278 475.5 1112.5 c 128,-1,5
 349 947 349 947 307 746 c 1,6,-1
 311 742 l 1,7,8
 461 918 461 918 682 918 c 0,9,10
 845 918 845 918 954.5 817.5 c 128,-1,11
 1064 717 1064 717 1064 561 c 0,12,13
 1064 313 1064 313 896 137.5 c 128,-1,14
 728 -38 728 -38 486 -38 c 0,15,16
 291 -38 291 -38 184 83.5 c 128,-1,17
 77 205 77 205 77 413 c 0,18,19
 77 802 77 802 275.5 1121 c 128,-1,20
 474 1440 474 1440 791 1440 c 0,21,22
 954 1440 954 1440 1052 1351.5 c 128,-1,23
 1150 1263 1150 1263 1150 1122 c 0,24,25
 1150 1094 1150 1094 1145 1057 c 1,26,-1
 969 1057 l 1,0,1
869 531 m 0,27,28
 869 636 869 636 807 696 c 128,-1,29
 745 756 745 756 635 756 c 0,30,31
 476 756 476 756 372 637.5 c 128,-1,32
 268 519 268 519 268 360 c 0,33,34
 268 254 268 254 331.5 188.5 c 128,-1,35
 395 123 395 123 508 123 c 0,36,37
 658 123 658 123 763.5 246 c 128,-1,38
 869 369 869 369 869 531 c 0,27,28
EndSplineSet
Validated: 33
EndChar

StartChar: seven
Encoding: 55 55 26
Width: 1139
GlyphClass: 2
Flags: W
LayerCount: 2
Fore
SplineSet
265 1409 m 1,0,-1
 1260 1409 l 1,1,-1
 1227 1251 l 1,2,3
 636 724 636 724 374 0 c 1,4,-1
 171 0 l 1,5,6
 380 601 380 601 1014 1233 c 1,7,-1
 228 1233 l 1,8,-1
 265 1409 l 1,0,-1
EndSplineSet
Validated: 1
EndChar

StartChar: eight
Encoding: 56 56 27
Width: 1139
GlyphClass: 2
Flags: W
LayerCount: 2
Fore
SplineSet
874 761 m 1,0,1
 1046 679 1046 679 1046 472 c 0,2,3
 1046 259 1046 259 884.5 110 c 128,-1,4
 723 -39 723 -39 473 -39 c 0,5,6
 292 -39 292 -39 166.5 57.5 c 128,-1,7
 41 154 41 154 41 323 c 0,8,9
 41 474 41 474 128.5 590 c 128,-1,10
 216 706 216 706 376 763 c 1,11,12
 229 844 229 844 229 1008 c 0,13,14
 229 1189 229 1189 377.5 1314.5 c 128,-1,15
 526 1440 526 1440 741 1440 c 0,16,17
 916 1440 916 1440 1025 1353.5 c 128,-1,18
 1134 1267 1134 1267 1134 1120 c 0,19,20
 1134 890 1134 890 874 761 c 1,0,1
491 123 m 0,21,22
 650 123 650 123 750 219.5 c 128,-1,23
 850 316 850 316 850 453 c 0,24,25
 850 558 850 558 783 617 c 128,-1,26
 716 676 716 676 607 676 c 0,27,28
 461 676 461 676 350 586 c 128,-1,29
 239 496 239 496 239 360 c 0,30,31
 239 250 239 250 305.5 186.5 c 128,-1,32
 372 123 372 123 491 123 c 0,21,22
719 1278 m 0,33,34
 590 1278 590 1278 505.5 1204.5 c 128,-1,35
 421 1131 421 1131 421 1024 c 0,36,37
 421 936 421 936 484 883.5 c 128,-1,38
 547 831 547 831 635 831 c 0,39,40
 751 831 751 831 846.5 905 c 128,-1,41
 942 979 942 979 942 1091 c 0,42,43
 942 1182 942 1182 881.5 1230 c 128,-1,44
 821 1278 821 1278 719 1278 c 0,33,34
EndSplineSet
Validated: 1
EndChar

StartChar: nine
Encoding: 57 57 28
Width: 1139
GlyphClass: 2
Flags: W
LayerCount: 2
Fore
SplineSet
241 345 m 1,0,1
 239 323 239 323 239 311 c 0,2,3
 239 207 239 207 291 159.5 c 128,-1,4
 343 112 343 112 439 112 c 0,5,6
 588 112 588 112 704.5 241 c 128,-1,7
 821 370 821 370 897 649 c 1,8,-1
 893 653 l 1,9,10
 745 481 745 481 528 481 c 0,11,12
 369 481 369 481 264 583 c 128,-1,13
 159 685 159 685 159 841 c 0,14,15
 159 1084 159 1084 330 1262 c 128,-1,16
 501 1440 501 1440 737 1440 c 0,17,18
 930 1440 930 1440 1032 1325.5 c 128,-1,19
 1134 1211 1134 1211 1134 1009 c 0,20,21
 1134 656 1134 656 943.5 309 c 128,-1,22
 753 -38 753 -38 428 -38 c 0,23,24
 257 -38 257 -38 157.5 47.5 c 128,-1,25
 58 133 58 133 58 277 c 0,26,27
 58 310 58 310 63 345 c 1,28,-1
 241 345 l 1,0,1
945 1042 m 0,29,30
 945 1147 945 1147 883.5 1212.5 c 128,-1,31
 822 1278 822 1278 715 1278 c 0,32,33
 567 1278 567 1278 458.5 1155.5 c 128,-1,34
 350 1033 350 1033 350 875 c 0,35,36
 350 769 350 769 414 706 c 128,-1,37
 478 643 478 643 588 643 c 0,38,39
 737 643 737 643 841 761 c 128,-1,40
 945 879 945 879 945 1042 c 0,29,30
EndSplineSet
Validated: 1
EndChar

StartChar: less
Encoding: 60 60 31
Width: 1200
GlyphClass: 2
Flags: W
LayerCount: 2
Fore
SplineSet
1118 23 m 1,0,-1
 82 446 l 1,1,-1
 82 590 l 1,2,-1
 1118 1014 l 1,3,-1
 1118 850 l 1,4,-1
 283 518 l 1,5,-1
 1118 186 l 1,6,-1
 1118 23 l 1,0,-1
EndSplineSet
Validated: 1
EndChar

StartChar: greater
Encoding: 62 62 33
Width: 1200
GlyphClass: 2
Flags: W
LayerCount: 2
Fore
SplineSet
82 186 m 1,0,-1
 917 518 l 1,1,-1
 82 850 l 1,2,-1
 82 1014 l 1,3,-1
 1118 590 l 1,4,-1
 1118 446 l 1,5,-1
 82 23 l 1,6,-1
 82 186 l 1,0,-1
EndSplineSet
Validated: 1
EndChar

StartChar: question
Encoding: 63 63 34
Width: 1139
GlyphClass: 2
Flags: W
LayerCount: 2
Fore
SplineSet
224 1010 m 1,0,1
 258 1237 258 1237 403 1363 c 128,-1,2
 548 1489 548 1489 767 1489 c 0,3,4
 925 1489 925 1489 1030.5 1398.5 c 128,-1,5
 1136 1308 1136 1308 1136 1166 c 0,6,7
 1136 1069 1136 1069 1092.5 984 c 128,-1,8
 1049 899 1049 899 864 750 c 0,9,10
 710 625 710 625 670.5 559.5 c 128,-1,11
 631 494 631 494 605 375 c 1,12,-1
 427 375 l 1,13,14
 457 512 457 512 503.5 596 c 128,-1,15
 550 680 550 680 729 825 c 0,16,17
 876 944 876 944 910.5 1001.5 c 128,-1,18
 945 1059 945 1059 945 1141 c 0,19,20
 945 1229 945 1229 889.5 1281 c 128,-1,21
 834 1333 834 1333 743 1333 c 0,22,23
 596 1333 596 1333 511.5 1251 c 128,-1,24
 427 1169 427 1169 404 1010 c 1,25,-1
 224 1010 l 1,0,1
541 0 m 1,26,-1
 343 0 l 1,27,-1
 387 209 l 1,28,-1
 585 209 l 1,29,-1
 541 0 l 1,26,-1
EndSplineSet
Validated: 1
EndChar

StartChar: at
Encoding: 64 64 35
Width: 1777
GlyphClass: 2
Flags: W
LayerCount: 2
Fore
SplineSet
1205 949 m 1,0,-1
 1344 949 l 1,1,2
 1317 852 1317 852 1238.5 587.5 c 128,-1,3
 1160 323 1160 323 1160 276 c 0,4,5
 1160 222 1160 222 1203 222 c 0,6,7
 1307 222 1307 222 1400.5 364 c 128,-1,8
 1494 506 1494 506 1494 664 c 0,9,10
 1494 891 1494 891 1332 1041.5 c 128,-1,11
 1170 1192 1170 1192 922 1192 c 0,12,13
 652 1192 652 1192 476 1005.5 c 128,-1,14
 300 819 300 819 300 533 c 0,15,16
 300 238 300 238 477.5 69.5 c 128,-1,17
 655 -99 655 -99 936 -99 c 0,18,19
 1213 -99 1213 -99 1421 114 c 1,20,-1
 1558 114 l 1,21,22
 1323 -226 1323 -226 932 -226 c 0,23,24
 597 -226 597 -226 373.5 -26.5 c 128,-1,25
 150 173 150 173 150 522 c 0,26,27
 150 861 150 861 370 1090 c 128,-1,28
 590 1319 590 1319 922 1319 c 0,29,30
 1219 1319 1219 1319 1423 1133.5 c 128,-1,31
 1627 948 1627 948 1627 680 c 0,32,33
 1627 437 1627 437 1463.5 263 c 128,-1,34
 1300 89 1300 89 1135 89 c 0,35,36
 1022 89 1022 89 1006 215 c 1,37,-1
 1002 216 l 1,38,39
 876 89 876 89 753 89 c 0,40,41
 631 89 631 89 543 182 c 128,-1,42
 455 275 455 275 455 416 c 0,43,44
 455 641 455 641 593 811 c 128,-1,45
 731 981 731 981 928 981 c 0,46,47
 1093 981 1093 981 1164 822 c 1,48,-1
 1205 949 l 1,0,-1
1100 646 m 0,49,50
 1100 719 1100 719 1051 776.5 c 128,-1,51
 1002 834 1002 834 932 834 c 0,52,53
 807 834 807 834 715 706 c 128,-1,54
 623 578 623 578 623 435 c 0,55,56
 623 342 623 342 672 289 c 128,-1,57
 721 236 721 236 795 236 c 0,58,59
 913 236 913 236 1006.5 370 c 128,-1,60
 1100 504 1100 504 1100 646 c 0,49,50
EndSplineSet
Validated: 1
EndChar

StartChar: A
Encoding: 65 65 36
Width: 1365
GlyphClass: 2
Flags: W
LayerCount: 2
Fore
SplineSet
364 428 m 1,0,-1
 119 0 l 1,1,-1
 -85 0 l 1,2,-1
 780 1470 l 1,3,-1
 1005 1470 l 1,4,-1
 1225 0 l 1,5,-1
 1008 0 l 1,6,-1
 954 428 l 1,7,-1
 364 428 l 1,0,-1
919 604 m 1,8,-1
 840 1251 l 1,9,-1
 836 1251 l 1,10,-1
 463 604 l 1,11,-1
 919 604 l 1,8,-1
EndSplineSet
Validated: 1
EndChar

StartChar: B
Encoding: 66 66 37
Width: 1377
GlyphClass: 2
Flags: W
LayerCount: 2
Fore
SplineSet
367 1470 m 1,0,-1
 565 1470 l 1,1,-1
 994 1470 l 2,2,3
 1172 1470 1172 1470 1266.5 1394.5 c 128,-1,4
 1361 1319 1361 1319 1361 1175 c 0,5,6
 1361 917 1361 917 1090 793 c 1,7,8
 1290 723 1290 723 1290 521 c 0,9,10
 1290 297 1290 297 1113.5 148.5 c 128,-1,11
 937 0 937 0 677 0 c 2,12,-1
 249 0 l 1,13,-1
 55 0 l 1,14,-1
 367 1470 l 1,0,-1
289 170 m 1,15,-1
 691 170 l 2,16,17
 863 170 863 170 974.5 256.5 c 128,-1,18
 1086 343 1086 343 1086 492 c 0,19,20
 1086 586 1086 586 1018 636 c 128,-1,21
 950 686 950 686 788 686 c 2,22,-1
 399 686 l 1,23,-1
 289 170 l 1,15,-1
433 848 m 1,24,-1
 770 848 l 2,25,26
 960 848 960 848 1056.5 919.5 c 128,-1,27
 1153 991 1153 991 1153 1135 c 0,28,29
 1153 1216 1153 1216 1095 1258 c 128,-1,30
 1037 1300 1037 1300 888 1300 c 2,31,-1
 529 1300 l 1,32,-1
 433 848 l 1,24,-1
EndSplineSet
Validated: 1
EndChar

StartChar: C
Encoding: 67 67 38
Width: 1480
GlyphClass: 2
Flags: W
LayerCount: 2
Fore
SplineSet
1292 1028 m 1,0,1
 1293 1176 1293 1176 1200 1254.5 c 128,-1,2
 1107 1333 1107 1333 948 1333 c 0,3,4
 668 1333 668 1333 492.5 1091 c 128,-1,5
 317 849 317 849 317 544 c 0,6,7
 317 347 317 347 410.5 242 c 128,-1,8
 504 137 504 137 676 137 c 0,9,10
 858 137 858 137 993 241.5 c 128,-1,11
 1128 346 1128 346 1207 541 c 1,12,-1
 1400 541 l 1,13,14
 1290 238 1290 238 1090.5 99.5 c 128,-1,15
 891 -39 891 -39 638 -39 c 0,16,17
 391 -39 391 -39 250 113.5 c 128,-1,18
 109 266 109 266 109 523 c 0,19,20
 109 921 109 921 352 1215 c 128,-1,21
 595 1509 595 1509 968 1509 c 0,22,23
 1194 1509 1194 1509 1340 1392.5 c 128,-1,24
 1486 1276 1486 1276 1486 1072 c 0,25,26
 1486 1055 1486 1055 1484 1028 c 1,27,-1
 1292 1028 l 1,0,1
EndSplineSet
Validated: 33
EndChar

StartChar: D
Encoding: 68 68 39
Width: 1474
GlyphClass: 2
Flags: W
LayerCount: 2
Fore
SplineSet
367 1470 m 1,0,-1
 566 1470 l 1,1,-1
 943 1470 l 2,2,3
 1190 1470 1190 1470 1322 1335 c 128,-1,4
 1454 1200 1454 1200 1454 961 c 0,5,6
 1454 577 1454 577 1226 288.5 c 128,-1,7
 998 0 998 0 653 0 c 2,8,-1
 253 0 l 1,9,-1
 55 0 l 1,10,-1
 367 1470 l 1,0,-1
290 170 m 1,11,-1
 665 170 l 2,12,13
 916 170 916 170 1080 399.5 c 128,-1,14
 1244 629 1244 629 1244 927 c 0,15,16
 1244 1110 1244 1110 1155.5 1205 c 128,-1,17
 1067 1300 1067 1300 900 1300 c 2,18,-1
 530 1300 l 1,19,-1
 290 170 l 1,11,-1
EndSplineSet
Validated: 1
EndChar

StartChar: E
Encoding: 69 69 40
Width: 1331
GlyphClass: 2
Flags: W
LayerCount: 2
Fore
SplineSet
1141 0 m 1,0,-1
 254 0 l 1,1,-1
 55 0 l 1,2,-1
 367 1470 l 1,3,-1
 565 1470 l 1,4,-1
 1438 1470 l 1,5,-1
 1401 1294 l 1,6,-1
 529 1294 l 1,7,-1
 433 844 l 1,8,-1
 1238 844 l 1,9,-1
 1201 668 l 1,10,-1
 396 668 l 1,11,-1
 291 176 l 1,12,-1
 1178 176 l 1,13,-1
 1141 0 l 1,0,-1
EndSplineSet
Validated: 1
EndChar

StartChar: F
Encoding: 70 70 41
Width: 1224
GlyphClass: 2
Flags: W
LayerCount: 2
Fore
SplineSet
254 0 m 1,0,-1
 55 0 l 1,1,-1
 367 1470 l 1,2,-1
 565 1470 l 1,3,-1
 1385 1470 l 1,4,-1
 1348 1294 l 1,5,-1
 529 1294 l 1,6,-1
 433 844 l 1,7,-1
 1154 844 l 1,8,-1
 1117 668 l 1,9,-1
 396 668 l 1,10,-1
 254 0 l 1,0,-1
EndSplineSet
Validated: 1
EndChar

StartChar: G
Encoding: 71 71 42
Width: 1579
GlyphClass: 2
Flags: W
LayerCount: 2
Fore
SplineSet
846 786 m 1,0,-1
 1304 786 l 1,1,-1
 1491 786 l 1,2,-1
 1324 0 l 1,3,-1
 1195 0 l 1,4,-1
 1188 190 l 1,5,6
 968 -39 968 -39 658 -39 c 0,7,8
 401 -39 401 -39 255.5 111 c 128,-1,9
 110 261 110 261 110 526 c 0,10,11
 110 910 110 910 358.5 1209.5 c 128,-1,12
 607 1509 607 1509 976 1509 c 0,13,14
 1211 1509 1211 1509 1365 1389.5 c 128,-1,15
 1519 1270 1519 1270 1519 1066 c 0,16,17
 1519 1048 1519 1048 1517 1024 c 1,18,-1
 1325 1024 l 1,19,20
 1320 1178 1320 1178 1218 1255.5 c 128,-1,21
 1116 1333 1116 1333 948 1333 c 0,22,23
 675 1333 675 1333 495 1087.5 c 128,-1,24
 315 842 315 842 315 536 c 0,25,26
 315 346 315 346 412.5 238.5 c 128,-1,27
 510 131 510 131 693 131 c 0,28,29
 909 131 909 131 1060.5 251.5 c 128,-1,30
 1212 372 1212 372 1268 616 c 1,31,-1
 810 616 l 1,32,-1
 846 786 l 1,0,-1
EndSplineSet
Validated: 1
EndChar

StartChar: H
Encoding: 72 72 43
Width: 1495
GlyphClass: 2
Flags: W
LayerCount: 2
Fore
SplineSet
1220 0 m 1,0,-1
 1021 0 l 1,1,-1
 1167 686 l 1,2,-1
 399 686 l 1,3,-1
 253 0 l 1,4,-1
 55 0 l 1,5,-1
 367 1470 l 1,6,-1
 565 1470 l 1,7,-1
 436 862 l 1,8,-1
 1204 862 l 1,9,-1
 1333 1470 l 1,10,-1
 1532 1470 l 1,11,-1
 1220 0 l 1,0,-1
EndSplineSet
Validated: 1
EndChar

StartChar: I
Encoding: 73 73 44
Width: 529
GlyphClass: 2
Flags: W
LayerCount: 2
Fore
SplineSet
254 0 m 1,0,-1
 55 0 l 1,1,-1
 367 1470 l 1,2,-1
 566 1470 l 1,3,-1
 254 0 l 1,0,-1
EndSplineSet
Validated: 1
EndChar

StartChar: J
Encoding: 74 74 45
Width: 1046
GlyphClass: 2
Flags: W
LayerCount: 2
Fore
SplineSet
232 474 m 1,0,-1
 210 372 l 2,1,2
 200 326 200 326 200 287 c 0,3,4
 200 204 200 204 247.5 168 c 128,-1,5
 295 132 295 132 373 132 c 0,6,7
 504 132 504 132 574 195 c 128,-1,8
 644 258 644 258 670 386 c 2,9,-1
 901 1471 l 1,10,-1
 1100 1471 l 1,11,-1
 872 398 l 2,12,13
 827 184 827 184 697 73 c 128,-1,14
 567 -38 567 -38 356 -38 c 0,15,16
 193 -38 193 -38 99 37.5 c 128,-1,17
 5 113 5 113 5 239 c 0,18,19
 5 285 5 285 15 329 c 2,20,-1
 46 474 l 1,21,-1
 232 474 l 1,0,-1
EndSplineSet
Validated: 1
EndChar

StartChar: K
Encoding: 75 75 46
Width: 1377
GlyphClass: 2
Flags: W
LayerCount: 2
Fore
SplineSet
253 0 m 1,0,-1
 55 0 l 1,1,-1
 367 1470 l 1,2,-1
 565 1470 l 1,3,-1
 414 758 l 1,4,-1
 1278 1470 l 1,5,-1
 1552 1470 l 1,6,-1
 814 877 l 1,7,-1
 1257 0 l 1,8,-1
 999 0 l 1,9,-1
 642 737 l 1,10,-1
 363 516 l 1,11,-1
 253 0 l 1,0,-1
EndSplineSet
Validated: 1
EndChar

StartChar: L
Encoding: 76 76 47
Width: 1139
GlyphClass: 2
Flags: W
LayerCount: 2
Fore
SplineSet
290 176 m 1,0,-1
 1036 176 l 1,1,-1
 999 0 l 1,2,-1
 250 0 l 1,3,-1
 55 0 l 1,4,-1
 367 1470 l 1,5,-1
 565 1470 l 1,6,-1
 290 176 l 1,0,-1
EndSplineSet
Validated: 1
EndChar

StartChar: M
Encoding: 77 77 48
Width: 1739
GlyphClass: 2
Flags: W
LayerCount: 2
Fore
SplineSet
1271 0 m 1,0,-1
 1455 868 l 2,1,2
 1477 974 1477 974 1538 1235 c 1,3,-1
 1532 1235 l 1,4,-1
 857 0 l 1,5,-1
 661 0 l 1,6,-1
 511 1233 l 1,7,-1
 505 1233 l 1,8,9
 453 972 453 972 431 868 c 2,10,-1
 247 0 l 1,11,-1
 55 0 l 1,12,-1
 367 1470 l 1,13,-1
 559 1470 l 1,14,-1
 652 1470 l 1,15,-1
 806 227 l 1,16,-1
 812 227 l 1,17,-1
 1492 1470 l 1,18,-1
 1584 1470 l 1,19,-1
 1776 1470 l 1,20,-1
 1464 0 l 1,21,-1
 1271 0 l 1,0,-1
EndSplineSet
Validated: 1
EndChar

StartChar: N
Encoding: 78 78 49
Width: 1497
GlyphClass: 2
Flags: W
LayerCount: 2
Fore
SplineSet
1341 1470 m 1,0,-1
 1534 1470 l 1,1,-1
 1222 0 l 1,2,-1
 999 0 l 1,3,-1
 504 1188 l 1,4,-1
 500 1188 l 1,5,-1
 247 0 l 1,6,-1
 55 0 l 1,7,-1
 367 1470 l 1,8,-1
 602 1470 l 1,9,-1
 1085 283 l 1,10,-1
 1089 283 l 1,11,-1
 1341 1470 l 1,0,-1
EndSplineSet
Validated: 1
EndChar

StartChar: O
Encoding: 79 79 50
Width: 1593
GlyphClass: 2
Flags: W
LayerCount: 2
Fore
SplineSet
959 1333 m 0,0,1
 685 1333 685 1333 498.5 1098 c 128,-1,2
 312 863 312 863 312 574 c 0,3,4
 312 378 312 378 423 258 c 128,-1,5
 534 138 534 138 727 138 c 0,6,7
 1001 138 1001 138 1187.5 373 c 128,-1,8
 1374 608 1374 608 1374 897 c 0,9,10
 1374 1093 1374 1093 1263 1213 c 128,-1,11
 1152 1333 1152 1333 959 1333 c 0,0,1
1583 923 m 0,12,13
 1583 546 1583 546 1332.5 254 c 128,-1,14
 1082 -38 1082 -38 702 -38 c 0,15,16
 432 -38 432 -38 267.5 120.5 c 128,-1,17
 103 279 103 279 103 548 c 0,18,19
 103 925 103 925 353.5 1217 c 128,-1,20
 604 1509 604 1509 984 1509 c 0,21,22
 1254 1509 1254 1509 1418.5 1350.5 c 128,-1,23
 1583 1192 1583 1192 1583 923 c 0,12,13
EndSplineSet
Validated: 1
EndChar

StartChar: P
Encoding: 80 80 51
Width: 1323
GlyphClass: 2
Flags: W
LayerCount: 2
Fore
SplineSet
254 0 m 1,0,-1
 55 0 l 1,1,-1
 367 1470 l 1,2,-1
 568 1470 l 1,3,-1
 1009 1470 l 2,4,5
 1187 1470 1187 1470 1288 1386 c 128,-1,6
 1389 1302 1389 1302 1389 1149 c 0,7,8
 1389 930 1389 930 1233.5 775.5 c 128,-1,9
 1078 621 1078 621 835 621 c 2,10,-1
 386 621 l 1,11,-1
 254 0 l 1,0,-1
422 791 m 1,12,-1
 796 791 l 2,13,14
 977 791 977 791 1077.5 873.5 c 128,-1,15
 1178 956 1178 956 1178 1119 c 0,16,17
 1178 1212 1178 1212 1117 1256 c 128,-1,18
 1056 1300 1056 1300 933 1300 c 2,19,-1
 530 1300 l 1,20,-1
 422 791 l 1,12,-1
EndSplineSet
Validated: 1
EndChar

StartChar: Q
Encoding: 81 81 52
Width: 1593
GlyphClass: 2
Flags: W
LayerCount: 2
Fore
SplineSet
1104 287 m 1,0,1
 1374 547 1374 547 1374 897 c 0,2,3
 1374 1093 1374 1093 1265.5 1213 c 128,-1,4
 1157 1333 1157 1333 964 1333 c 0,5,6
 690 1333 690 1333 501 1098 c 128,-1,7
 312 863 312 863 312 574 c 0,8,9
 312 378 312 378 420.5 258 c 128,-1,10
 529 138 529 138 722 138 c 0,11,12
 847 138 847 138 955 187 c 1,13,-1
 826 313 l 1,14,-1
 954 436 l 1,15,-1
 1104 287 l 1,0,1
1267 -115 m 1,16,-1
 1089 57 l 1,17,18
 914 -38 914 -38 697 -38 c 0,19,20
 427 -38 427 -38 265 120.5 c 128,-1,21
 103 279 103 279 103 548 c 0,22,23
 103 925 103 925 356 1217 c 128,-1,24
 609 1509 609 1509 989 1509 c 0,25,26
 1259 1509 1259 1509 1421 1350.5 c 128,-1,27
 1583 1192 1583 1192 1583 923 c 0,28,29
 1583 473 1583 473 1235 158 c 1,30,-1
 1392 4 l 1,31,-1
 1267 -115 l 1,16,-1
EndSplineSet
Validated: 1
EndChar

StartChar: R
Encoding: 82 82 53
Width: 1463
GlyphClass: 2
Flags: W
LayerCount: 2
Fore
SplineSet
254 0 m 1,0,-1
 55 0 l 1,1,-1
 367 1470 l 1,2,-1
 569 1470 l 1,3,-1
 1027 1470 l 2,4,5
 1252 1470 1252 1470 1355 1391.5 c 128,-1,6
 1458 1313 1458 1313 1458 1161 c 0,7,8
 1458 879 1458 879 1167 727 c 1,9,10
 1293 674 1293 674 1293 541 c 0,11,12
 1293 518 1293 518 1291 494 c 128,-1,13
 1289 470 1289 470 1285 446 c 2,14,-1
 1239 173 l 2,15,16
 1233 137 1233 137 1233 119 c 0,17,18
 1233 91 1233 91 1241 77 c 0,19,20
 1255 50 1255 50 1285 33 c 1,21,-1
 1278 0 l 1,22,-1
 1033 0 l 1,23,24
 1030 22 1030 22 1030 54 c 0,25,26
 1030 87 1030 87 1040 167 c 0,27,28
 1055 284 1055 284 1076 378 c 0,29,30
 1087 428 1087 428 1087 465 c 0,31,32
 1087 542 1087 542 1036.5 586.5 c 128,-1,33
 986 631 986 631 868 631 c 2,34,-1
 388 631 l 1,35,-1
 254 0 l 1,0,-1
424 801 m 1,36,-1
 875 801 l 2,37,38
 1049 801 1049 801 1148 890.5 c 128,-1,39
 1247 980 1247 980 1247 1125 c 0,40,41
 1247 1210 1247 1210 1193 1255 c 128,-1,42
 1139 1300 1139 1300 1025 1300 c 2,43,-1
 530 1300 l 1,44,-1
 424 801 l 1,36,-1
EndSplineSet
Validated: 1
EndChar

StartChar: S
Encoding: 83 83 54
Width: 1355
GlyphClass: 2
Flags: W
LayerCount: 2
Fore
SplineSet
1142 1040 m 1,0,1
 1149 1072 1149 1072 1149 1107 c 0,2,3
 1149 1216 1149 1216 1061 1278 c 128,-1,4
 973 1340 973 1340 845 1340 c 0,5,6
 683 1340 683 1340 565 1260.5 c 128,-1,7
 447 1181 447 1181 447 1050 c 0,8,9
 447 985 447 985 482 946 c 128,-1,10
 517 907 517 907 586 890 c 2,11,-1
 941 804 l 2,12,13
 1084 769 1084 769 1165.5 690 c 128,-1,14
 1247 611 1247 611 1247 487 c 0,15,16
 1247 241 1247 241 1055.5 101 c 128,-1,17
 864 -39 864 -39 586 -39 c 0,18,19
 338 -39 338 -39 199 61 c 128,-1,20
 60 161 60 161 60 337 c 0,21,22
 60 399 60 399 80 475 c 1,23,-1
 268 475 l 1,24,25
 257 426 257 426 257 386 c 0,26,27
 257 265 257 265 342.5 198.5 c 128,-1,28
 428 132 428 132 591 132 c 0,29,30
 800 132 800 132 921.5 210.5 c 128,-1,31
 1043 289 1043 289 1043 434 c 0,32,33
 1043 501 1043 501 1001 551 c 128,-1,34
 959 601 959 601 850 627 c 2,35,-1
 524 706 l 2,36,37
 369 744 369 744 306.5 817.5 c 128,-1,38
 244 891 244 891 244 998 c 0,39,40
 244 1228 244 1228 429.5 1369 c 128,-1,41
 615 1510 615 1510 862 1510 c 0,42,43
 1087 1510 1087 1510 1215 1413 c 128,-1,44
 1343 1316 1343 1316 1343 1149 c 0,45,46
 1343 1098 1343 1098 1330 1040 c 1,47,-1
 1142 1040 l 1,0,1
EndSplineSet
Validated: 1
EndChar

StartChar: T
Encoding: 84 84 55
Width: 1244
GlyphClass: 2
Flags: W
LayerCount: 2
Fore
SplineSet
687 1294 m 1,0,-1
 190 1294 l 1,1,-1
 227 1470 l 1,2,-1
 725 1470 l 1,3,-1
 924 1470 l 1,4,-1
 1421 1470 l 1,5,-1
 1384 1294 l 1,6,-1
 886 1294 l 1,7,-1
 611 0 l 1,8,-1
 412 0 l 1,9,-1
 687 1294 l 1,0,-1
EndSplineSet
Validated: 1
EndChar

StartChar: U
Encoding: 85 85 56
Width: 1467
GlyphClass: 2
Flags: W
LayerCount: 2
Fore
SplineSet
1514 1470 m 1,0,-1
 1312 516 l 2,1,2
 1256 252 1256 252 1065 106.5 c 128,-1,3
 874 -39 874 -39 601 -39 c 0,4,5
 394 -39 394 -39 264.5 68.5 c 128,-1,6
 135 176 135 176 135 361 c 0,7,8
 135 422 135 422 149 489 c 2,9,-1
 357 1470 l 1,10,-1
 555 1470 l 1,11,-1
 359 545 l 2,12,13
 344 475 344 475 344 417 c 0,14,15
 344 285 344 285 423 211 c 128,-1,16
 502 137 502 137 638 137 c 0,17,18
 829 137 829 137 953.5 243 c 128,-1,19
 1078 349 1078 349 1118 541 c 2,20,-1
 1315 1470 l 1,21,-1
 1514 1470 l 1,0,-1
EndSplineSet
Validated: 1
EndChar

StartChar: V
Encoding: 86 86 57
Width: 1343
GlyphClass: 2
Flags: W
LayerCount: 2
Fore
SplineSet
1293 1470 m 1,0,-1
 1516 1470 l 1,1,-1
 667 0 l 1,2,-1
 457 0 l 1,3,-1
 232 1470 l 1,4,-1
 453 1470 l 1,5,-1
 607 217 l 1,6,-1
 611 217 l 1,7,-1
 1293 1470 l 1,0,-1
EndSplineSet
Validated: 1
EndChar

StartChar: W
Encoding: 87 87 58
Width: 1952
GlyphClass: 2
Flags: W
LayerCount: 2
Fore
SplineSet
526 0 m 1,0,-1
 317 0 l 1,1,-1
 246 1470 l 1,2,-1
 461 1470 l 1,3,-1
 481 274 l 1,4,-1
 485 274 l 1,5,-1
 1069 1470 l 1,6,-1
 1286 1470 l 1,7,-1
 1362 274 l 1,8,-1
 1366 274 l 1,9,-1
 1894 1470 l 1,10,-1
 2114 1470 l 1,11,-1
 1414 0 l 1,12,-1
 1206 0 l 1,13,-1
 1129 1219 l 1,14,-1
 1125 1219 l 1,15,-1
 526 0 l 1,0,-1
EndSplineSet
Validated: 1
EndChar

StartChar: X
Encoding: 88 88 59
Width: 1353
GlyphClass: 2
Flags: W
LayerCount: 2
Fore
SplineSet
1207 0 m 1,0,-1
 966 0 l 1,1,-1
 694 604 l 1,2,-1
 164 0 l 1,3,-1
 -81 0 l 1,4,-1
 608 757 l 1,5,-1
 264 1470 l 1,6,-1
 509 1470 l 1,7,-1
 767 907 l 1,8,-1
 1254 1470 l 1,9,-1
 1497 1470 l 1,10,-1
 848 751 l 1,11,-1
 1207 0 l 1,0,-1
EndSplineSet
Validated: 1
EndChar

StartChar: Y
Encoding: 89 89 60
Width: 1328
GlyphClass: 2
Flags: W
LayerCount: 2
Fore
SplineSet
653 0 m 1,0,-1
 455 0 l 1,1,-1
 581 592 l 1,2,-1
 212 1470 l 1,3,-1
 443 1470 l 1,4,-1
 715 764 l 1,5,-1
 1287 1470 l 1,6,-1
 1520 1470 l 1,7,-1
 779 592 l 1,8,-1
 653 0 l 1,0,-1
EndSplineSet
Validated: 1
EndChar

StartChar: Z
Encoding: 90 90 61
Width: 1272
GlyphClass: 2
Flags: W
LayerCount: 2
Fore
SplineSet
1102 0 m 1,0,-1
 -55 0 l 1,1,-1
 -20 166 l 1,2,-1
 1118 1294 l 1,3,-1
 288 1294 l 1,4,-1
 325 1470 l 1,5,-1
 1414 1470 l 1,6,-1
 1378 1298 l 1,7,-1
 237 176 l 1,8,-1
 1139 176 l 1,9,-1
 1102 0 l 1,0,-1
EndSplineSet
Validated: 1
EndChar

StartChar: bracketleft
Encoding: 91 91 62
Width: 569
GlyphClass: 2
Flags: W
LayerCount: 2
Fore
SplineSet
127 -256 m 1,0,-1
 348 -256 l 1,1,-1
 317 -401 l 1,2,-1
 95 -401 l 1,3,-1
 -66 -401 l 1,4,-1
 333 1479 l 1,5,-1
 494 1479 l 1,6,-1
 716 1479 l 1,7,-1
 685 1333 l 1,8,-1
 464 1333 l 1,9,-1
 127 -256 l 1,0,-1
EndSplineSet
Validated: 1
EndChar

StartChar: backslash
Encoding: 92 92 63
Width: 569
GlyphClass: 2
Flags: W
LayerCount: 2
Fore
SplineSet
-35 1509 m 1,0,-1
 100 1509 l 1,1,-1
 604 -39 l 1,2,-1
 467 -39 l 1,3,-1
 -35 1509 l 1,0,-1
EndSplineSet
Validated: 1
EndChar

StartChar: bracketright
Encoding: 93 93 64
Width: 569
GlyphClass: 2
Flags: W
LayerCount: 2
Fore
SplineSet
452 1333 m 1,0,-1
 230 1333 l 1,1,-1
 261 1479 l 1,2,-1
 483 1479 l 1,3,-1
 644 1479 l 1,4,-1
 245 -401 l 1,5,-1
 84 -401 l 1,6,-1
 -138 -401 l 1,7,-1
 -107 -256 l 1,8,-1
 115 -256 l 1,9,-1
 452 1333 l 1,0,-1
EndSplineSet
Validated: 1
EndChar

StartChar: asciicircum
Encoding: 94 94 65
AltUni2: 002038.ffffffff.0
Width: 961
GlyphClass: 2
Flags: W
LayerCount: 2
Fore
SplineSet
831 541 m 1,0,-1
 481 1245 l 1,1,-1
 131 541 l 1,2,-1
 -29 541 l 1,3,-1
 408 1409 l 1,4,-1
 555 1409 l 1,5,-1
 989 541 l 1,6,-1
 831 541 l 1,0,-1
EndSplineSet
Validated: 1
EndChar

StartChar: underscore
Encoding: 95 95 66
Width: 1139
GlyphClass: 2
Flags: W
LayerCount: 2
Fore
SplineSet
0 -251 m 1,0,-1
 0 -151 l 1,1,-1
 1139 -151 l 1,2,-1
 1139 -251 l 1,3,-1
 0 -251 l 1,0,-1
EndSplineSet
Validated: 1
EndChar

StartChar: grave
Encoding: 96 96 67
Width: 680
GlyphClass: 2
Flags: W
LayerCount: 2
Fore
SplineSet
276 1503 m 1,0,-1
 490 1503 l 1,1,-1
 576 1214 l 1,2,-1
 439 1214 l 1,3,-1
 276 1503 l 1,0,-1
EndSplineSet
Validated: 1
EndChar

StartChar: a
Encoding: 97 97 68
Width: 1126
GlyphClass: 2
Flags: W
LayerCount: 2
Fore
SplineSet
176 745 m 1,0,1
 217 918 217 918 341 1010 c 128,-1,2
 465 1102 465 1102 679 1102 c 0,3,4
 828 1102 828 1102 932 1040 c 128,-1,5
 1036 978 1036 978 1036 867 c 0,6,7
 1036 836 1036 836 1029 803 c 2,8,-1
 898 186 l 2,9,10
 895 174 895 174 895 165 c 0,11,12
 895 123 895 123 943 123 c 0,13,14
 966 123 966 123 1004 131 c 1,15,-1
 976 0 l 1,16,17
 919 -20 919 -20 869 -20 c 0,18,19
 714 -20 714 -20 714 99 c 0,20,21
 714 115 714 115 718 143 c 1,22,23
 557 -31 557 -31 302 -31 c 0,24,25
 173 -31 173 -31 94.5 34.5 c 128,-1,26
 16 100 16 100 16 226 c 0,27,28
 16 370 16 370 118 480.5 c 128,-1,29
 220 591 220 591 411 613 c 2,30,-1
 704 647 l 2,31,32
 795 657 795 657 823.5 709 c 128,-1,33
 852 761 852 761 852 816 c 0,34,35
 852 883 852 883 799.5 917.5 c 128,-1,36
 747 952 747 952 651 952 c 0,37,38
 401 952 401 952 344 745 c 1,39,-1
 176 745 l 1,0,1
793 547 m 1,40,41
 752 510 752 510 482 479 c 0,42,43
 345 463 345 463 278 407 c 128,-1,44
 211 351 211 351 211 248 c 0,45,46
 211 183 211 183 252.5 151 c 128,-1,47
 294 119 294 119 367 119 c 0,48,49
 501 119 501 119 617 191.5 c 128,-1,50
 733 264 733 264 756 371 c 2,51,-1
 793 547 l 1,40,41
EndSplineSet
Validated: 1
EndChar

StartChar: b
Encoding: 98 98 69
Width: 1157
GlyphClass: 2
Flags: W
LayerCount: 2
Fore
SplineSet
25 0 m 1,0,-1
 337 1470 l 1,1,-1
 517 1470 l 1,2,-1
 404 936 l 1,3,-1
 408 936 l 1,4,5
 558 1102 558 1102 748 1102 c 0,6,7
 913 1102 913 1102 1008.5 995 c 128,-1,8
 1104 888 1104 888 1104 714 c 0,9,10
 1104 436 1104 436 932.5 202.5 c 128,-1,11
 761 -31 761 -31 502 -31 c 0,12,13
 305 -31 305 -31 228 138 c 1,14,-1
 224 138 l 1,15,-1
 195 0 l 1,16,-1
 25 0 l 1,0,-1
913 694 m 0,17,18
 913 812 913 812 856.5 876 c 128,-1,19
 800 940 800 940 695 940 c 0,20,21
 513 940 513 940 401.5 761 c 128,-1,22
 290 582 290 582 290 378 c 0,23,24
 290 262 290 262 351.5 193.5 c 128,-1,25
 413 125 413 125 515 125 c 0,26,27
 688 125 688 125 800.5 302 c 128,-1,28
 913 479 913 479 913 694 c 0,17,18
EndSplineSet
Validated: 1
EndChar

StartChar: c
Encoding: 99 99 70
Width: 1050
GlyphClass: 2
Flags: W
LayerCount: 2
Fore
SplineSet
852 711 m 1,0,-1
 852 732 l 2,1,2
 853 839 853 839 798 889.5 c 128,-1,3
 743 940 743 940 646 940 c 0,4,5
 472 940 472 940 359.5 769 c 128,-1,6
 247 598 247 598 247 377 c 0,7,8
 247 257 247 257 303 191 c 128,-1,9
 359 125 359 125 460 125 c 0,10,11
 570 125 570 125 653.5 194.5 c 128,-1,12
 737 264 737 264 783 379 c 1,13,-1
 960 379 l 1,14,15
 888 169 888 169 749.5 69 c 128,-1,16
 611 -31 611 -31 438 -31 c 256,17,18
 265 -31 265 -31 157.5 76.5 c 128,-1,19
 50 184 50 184 50 361 c 0,20,21
 50 656 50 656 232.5 879 c 128,-1,22
 415 1102 415 1102 691 1102 c 0,23,24
 838 1102 838 1102 935.5 1015.5 c 128,-1,25
 1033 929 1033 929 1033 786 c 0,26,27
 1033 753 1033 753 1028 711 c 1,28,-1
 852 711 l 1,0,-1
EndSplineSet
Validated: 33
EndChar

StartChar: d
Encoding: 100 100 71
Width: 1167
GlyphClass: 2
Flags: W
LayerCount: 2
Fore
SplineSet
922 0 m 1,0,-1
 752 0 l 1,1,-1
 783 147 l 1,2,-1
 779 147 l 1,3,4
 634 -31 634 -31 432 -31 c 0,5,6
 262 -31 262 -31 166.5 83.5 c 128,-1,7
 71 198 71 198 71 385 c 0,8,9
 71 678 71 678 237.5 890 c 128,-1,10
 404 1102 404 1102 645 1102 c 0,11,12
 850 1102 850 1102 934 920 c 1,13,-1
 940 929 l 1,14,-1
 1054 1470 l 1,15,-1
 1234 1470 l 1,16,-1
 922 0 l 1,0,-1
254 392 m 0,17,18
 254 275 254 275 309.5 200 c 128,-1,19
 365 125 365 125 469 125 c 0,20,21
 653 125 653 125 759 288.5 c 128,-1,22
 865 452 865 452 865 669 c 0,23,24
 865 810 865 810 810 875.5 c 128,-1,25
 755 941 755 941 651 941 c 0,26,27
 469 941 469 941 361.5 776 c 128,-1,28
 254 611 254 611 254 392 c 0,17,18
EndSplineSet
Validated: 1
EndChar

StartChar: e
Encoding: 101 101 72
Width: 1135
GlyphClass: 2
Flags: W
LayerCount: 2
Fore
SplineSet
1005 336 m 1,0,1
 939 167 939 167 798 67.5 c 128,-1,2
 657 -32 657 -32 462 -32 c 0,3,4
 277 -32 277 -32 169.5 73.5 c 128,-1,5
 62 179 62 179 62 356 c 0,6,7
 62 645 62 645 242 873.5 c 128,-1,8
 422 1102 422 1102 702 1102 c 0,9,10
 880 1102 880 1102 977.5 998.5 c 128,-1,11
 1075 895 1075 895 1075 697 c 0,12,13
 1075 593 1075 593 1048 477 c 1,14,-1
 265 477 l 1,15,16
 252 429 252 429 252 371 c 0,17,18
 252 255 252 255 312.5 190 c 128,-1,19
 373 125 373 125 490 125 c 0,20,21
 603 125 603 125 694 182.5 c 128,-1,22
 785 240 785 240 822 336 c 1,23,-1
 1005 336 l 1,0,1
892 621 m 1,24,25
 899 670 899 670 899 704 c 0,26,27
 899 821 899 821 839.5 880.5 c 128,-1,28
 780 940 780 940 669 940 c 0,29,30
 542 940 542 940 444 858 c 128,-1,31
 346 776 346 776 296 621 c 1,32,-1
 892 621 l 1,24,25
EndSplineSet
Validated: 1
EndChar

StartChar: f
Encoding: 102 102 73
Width: 568
GlyphClass: 2
Flags: W
LayerCount: 2
Fore
SplineSet
438 922 m 1,0,-1
 242 0 l 1,1,-1
 62 0 l 1,2,-1
 258 922 l 1,3,-1
 111 922 l 1,4,-1
 143 1071 l 1,5,-1
 290 1071 l 1,6,-1
 329 1255 l 2,7,8
 354 1376 354 1376 439.5 1433.5 c 128,-1,9
 525 1491 525 1491 658 1491 c 0,10,11
 698 1491 698 1491 739 1487 c 1,12,-1
 705 1326 l 1,13,14
 672 1330 672 1330 631 1330 c 0,15,16
 577 1330 577 1330 545.5 1305 c 128,-1,17
 514 1280 514 1280 501 1216 c 2,18,-1
 470 1071 l 1,19,-1
 651 1071 l 1,20,-1
 619 922 l 1,21,-1
 438 922 l 1,0,-1
EndSplineSet
Validated: 1
EndChar

StartChar: g
Encoding: 103 103 74
Width: 1145
GlyphClass: 2
Flags: W
LayerCount: 2
Fore
SplineSet
1138 1071 m 1,0,-1
 924 62 l 2,1,2
 868 -197 868 -197 735 -324.5 c 128,-1,3
 602 -452 602 -452 359 -452 c 0,4,5
 177 -452 177 -452 76.5 -379.5 c 128,-1,6
 -24 -307 -24 -307 -24 -165 c 0,7,8
 -24 -149 -24 -149 -22 -128 c 1,9,-1
 151 -128 l 1,10,11
 152 -214 152 -214 204.5 -258 c 128,-1,12
 257 -302 257 -302 362 -302 c 0,13,14
 524 -302 524 -302 612 -222 c 128,-1,15
 700 -142 700 -142 739 43 c 2,16,-1
 756 121 l 1,17,-1
 752 121 l 1,18,19
 622 -31 622 -31 437 -31 c 0,20,21
 265 -31 265 -31 167 83 c 128,-1,22
 69 197 69 197 69 384 c 0,23,24
 69 676 69 676 233.5 889 c 128,-1,25
 398 1102 398 1102 640 1102 c 0,26,27
 834 1102 834 1102 932 918 c 1,28,-1
 936 918 l 1,29,-1
 968 1071 l 1,30,-1
 1138 1071 l 1,0,-1
653 940 m 0,31,32
 460 940 460 940 356 773.5 c 128,-1,33
 252 607 252 607 252 392 c 0,34,35
 252 267 252 267 310.5 196 c 128,-1,36
 369 125 369 125 469 125 c 0,37,38
 657 125 657 125 760 290.5 c 128,-1,39
 863 456 863 456 863 677 c 0,40,41
 863 807 863 807 809.5 873.5 c 128,-1,42
 756 940 756 940 653 940 c 0,31,32
EndSplineSet
Validated: 1
EndChar

StartChar: h
Encoding: 104 104 75
Width: 1130
GlyphClass: 2
Flags: W
LayerCount: 2
Fore
SplineSet
898 0 m 1,0,-1
 717 0 l 1,1,-1
 866 700 l 2,2,3
 877 755 877 755 877 797 c 0,4,5
 877 867 877 867 835 903.5 c 128,-1,6
 793 940 793 940 718 940 c 0,7,8
 572 940 572 940 468.5 847.5 c 128,-1,9
 365 755 365 755 329 584 c 2,10,-1
 205 0 l 1,11,-1
 25 0 l 1,12,-1
 337 1470 l 1,13,-1
 517 1470 l 1,14,-1
 402 928 l 1,15,-1
 406 928 l 1,16,17
 567 1102 567 1102 773 1102 c 0,18,19
 904 1102 904 1102 984.5 1031.5 c 128,-1,20
 1065 961 1065 961 1065 839 c 0,21,22
 1065 787 1065 787 1053 729 c 2,23,-1
 898 0 l 1,0,-1
EndSplineSet
Validated: 1
EndChar

StartChar: i
Encoding: 105 105 76
Width: 450
GlyphClass: 2
Flags: W
LayerCount: 2
Fore
SplineSet
205 0 m 1,0,-1
 25 0 l 1,1,-1
 253 1071 l 1,2,-1
 433 1071 l 1,3,-1
 205 0 l 1,0,-1
294 1266 m 1,4,-1
 337 1470 l 1,5,-1
 517 1470 l 1,6,-1
 474 1266 l 1,7,-1
 294 1266 l 1,4,-1
EndSplineSet
Validated: 1
EndChar

StartChar: j
Encoding: 106 106 77
Width: 450
GlyphClass: 2
Flags: W
LayerCount: 2
Fore
SplineSet
433 1071 m 1,0,-1
 171 -158 l 2,1,2
 139 -311 139 -311 54.5 -370.5 c 128,-1,3
 -30 -430 -30 -430 -160 -430 c 0,4,5
 -196 -430 -196 -430 -235 -424 c 1,6,-1
 -202 -268 l 1,7,-1
 -155 -268 l 2,8,9
 -78 -268 -78 -268 -50.5 -246 c 128,-1,10
 -23 -224 -23 -224 -4 -137 c 2,11,-1
 253 1071 l 1,12,-1
 433 1071 l 1,0,-1
474 1266 m 1,13,-1
 294 1266 l 1,14,-1
 337 1470 l 1,15,-1
 517 1470 l 1,16,-1
 474 1266 l 1,13,-1
EndSplineSet
Validated: 1
EndChar

StartChar: k
Encoding: 107 107 78
Width: 1024
GlyphClass: 2
Flags: W
LayerCount: 2
Fore
SplineSet
698 0 m 1,0,-1
 466 536 l 1,1,-1
 280 383 l 1,2,-1
 199 0 l 1,3,-1
 25 0 l 1,4,-1
 337 1470 l 1,5,-1
 511 1470 l 1,6,-1
 330 618 l 1,7,-1
 878 1071 l 1,8,-1
 1117 1071 l 1,9,-1
 617 660 l 1,10,-1
 914 0 l 1,11,-1
 698 0 l 1,0,-1
EndSplineSet
Validated: 1
EndChar

StartChar: l
Encoding: 108 108 79
Width: 450
GlyphClass: 2
Flags: W
LayerCount: 2
Fore
SplineSet
205 0 m 1,0,-1
 25 0 l 1,1,-1
 337 1470 l 1,2,-1
 517 1470 l 1,3,-1
 205 0 l 1,0,-1
EndSplineSet
Validated: 1
EndChar

StartChar: m
Encoding: 109 109 80
Width: 1699
GlyphClass: 2
Flags: W
LayerCount: 2
Fore
SplineSet
253 1071 m 1,0,-1
 423 1071 l 1,1,-1
 391 920 l 1,2,-1
 395 920 l 1,3,4
 557 1102 557 1102 761 1102 c 0,5,6
 955 1102 955 1102 1004 928 c 1,7,8
 1172 1102 1172 1102 1368 1102 c 0,9,10
 1487 1102 1487 1102 1561.5 1032 c 128,-1,11
 1636 962 1636 962 1636 843 c 0,12,13
 1636 794 1636 794 1625 741 c 2,14,-1
 1467 0 l 1,15,-1
 1287 0 l 1,16,-1
 1434 692 l 2,17,18
 1445 743 1445 743 1445 788 c 0,19,20
 1445 859 1445 859 1408.5 899.5 c 128,-1,21
 1372 940 1372 940 1301 940 c 0,22,23
 1189 940 1189 940 1095 857 c 128,-1,24
 1001 774 1001 774 975 653 c 2,25,-1
 836 0 l 1,26,-1
 656 0 l 1,27,-1
 814 741 l 2,28,29
 821 775 821 775 821 803 c 0,30,31
 821 869 821 869 785.5 904.5 c 128,-1,32
 750 940 750 940 686 940 c 0,33,34
 547 940 547 940 453 835.5 c 128,-1,35
 359 731 359 731 329 584 c 2,36,-1
 205 0 l 1,37,-1
 25 0 l 1,38,-1
 253 1071 l 1,0,-1
EndSplineSet
Validated: 1
EndChar

StartChar: n
Encoding: 110 110 81
Width: 1130
GlyphClass: 2
Flags: W
LayerCount: 2
Fore
SplineSet
898 0 m 1,0,-1
 717 0 l 1,1,-1
 857 659 l 2,2,3
 872 729 872 729 872 779 c 0,4,5
 872 859 872 859 829 899.5 c 128,-1,6
 786 940 786 940 708 940 c 0,7,8
 563 940 563 940 463.5 844.5 c 128,-1,9
 364 749 364 749 329 584 c 2,10,-1
 205 0 l 1,11,-1
 25 0 l 1,12,-1
 253 1071 l 1,13,-1
 423 1071 l 1,14,-1
 391 920 l 1,15,-1
 395 920 l 1,16,17
 559 1102 559 1102 773 1102 c 0,18,19
 908 1102 908 1102 986.5 1032 c 128,-1,20
 1065 962 1065 962 1065 836 c 0,21,22
 1065 788 1065 788 1053 729 c 2,23,-1
 898 0 l 1,0,-1
EndSplineSet
Validated: 1
EndChar

StartChar: o
Encoding: 111 111 82
Width: 1145
GlyphClass: 2
Flags: W
LayerCount: 2
Fore
SplineSet
669 945 m 0,0,1
 488 945 488 945 369 779.5 c 128,-1,2
 250 614 250 614 250 399 c 0,3,4
 250 282 250 282 312.5 204 c 128,-1,5
 375 126 375 126 483 126 c 0,6,7
 664 126 664 126 783 291.5 c 128,-1,8
 902 457 902 457 902 672 c 0,9,10
 902 789 902 789 839.5 867 c 128,-1,11
 777 945 777 945 669 945 c 0,0,1
699 1101 m 0,12,13
 883 1101 883 1101 986.5 985.5 c 128,-1,14
 1090 870 1090 870 1090 689 c 0,15,16
 1090 411 1090 411 912 190.5 c 128,-1,17
 734 -30 734 -30 453 -30 c 0,18,19
 269 -30 269 -30 165.5 85.5 c 128,-1,20
 62 201 62 201 62 382 c 0,21,22
 62 660 62 660 240 880.5 c 128,-1,23
 418 1101 418 1101 699 1101 c 0,12,13
EndSplineSet
Validated: 1
EndChar

StartChar: p
Encoding: 112 112 83
Width: 1157
GlyphClass: 2
Flags: W
LayerCount: 2
Fore
SplineSet
253 1071 m 1,0,-1
 423 1071 l 1,1,-1
 391 920 l 1,2,-1
 395 920 l 1,3,4
 545 1102 545 1102 749 1102 c 0,5,6
 912 1102 912 1102 1008 992.5 c 128,-1,7
 1104 883 1104 883 1104 710 c 0,8,9
 1104 430 1104 430 929.5 199.5 c 128,-1,10
 755 -31 755 -31 502 -31 c 0,11,12
 320 -31 320 -31 235 122 c 1,13,-1
 231 122 l 1,14,-1
 115 -424 l 1,15,-1
 -65 -424 l 1,16,-1
 253 1071 l 1,0,-1
520 125 m 0,17,18
 691 125 691 125 802 300 c 128,-1,19
 913 475 913 475 913 692 c 0,20,21
 913 812 913 812 858 876 c 128,-1,22
 803 940 803 940 692 940 c 0,23,24
 508 940 508 940 398.5 757.5 c 128,-1,25
 289 575 289 575 289 383 c 0,26,27
 289 266 289 266 350.5 195.5 c 128,-1,28
 412 125 412 125 520 125 c 0,17,18
EndSplineSet
Validated: 1
EndChar

StartChar: q
Encoding: 113 113 84
Width: 1157
GlyphClass: 2
Flags: W
LayerCount: 2
Fore
SplineSet
822 -424 m 1,0,-1
 641 -424 l 1,1,-1
 755 113 l 1,2,-1
 751 113 l 1,3,4
 609 -31 609 -31 434 -31 c 0,5,6
 264 -31 264 -31 167.5 84.5 c 128,-1,7
 71 200 71 200 71 396 c 0,8,9
 71 673 71 673 233.5 887.5 c 128,-1,10
 396 1102 396 1102 642 1102 c 0,11,12
 853 1102 853 1102 934 920 c 1,13,-1
 938 920 l 1,14,-1
 970 1071 l 1,15,-1
 1140 1071 l 1,16,-1
 822 -424 l 1,0,-1
479 125 m 0,17,18
 654 125 654 125 760 283 c 128,-1,19
 866 441 866 441 866 662 c 0,20,21
 866 800 866 800 812.5 870 c 128,-1,22
 759 940 759 940 647 940 c 0,23,24
 471 940 471 940 363 777 c 128,-1,25
 255 614 255 614 255 402 c 0,26,27
 255 273 255 273 310.5 199 c 128,-1,28
 366 125 366 125 479 125 c 0,17,18
EndSplineSet
Validated: 1
EndChar

StartChar: r
Encoding: 114 114 85
Width: 662
GlyphClass: 2
Flags: W
LayerCount: 2
Fore
SplineSet
205 0 m 1,0,-1
 25 0 l 1,1,-1
 253 1071 l 1,2,-1
 423 1071 l 1,3,-1
 385 893 l 1,4,-1
 389 893 l 1,5,6
 550 1102 550 1102 734 1102 c 0,7,8
 763 1102 763 1102 780 1096 c 1,9,-1
 740 907 l 1,10,11
 707 909 707 909 672 909 c 0,12,13
 552 909 552 909 457 826 c 128,-1,14
 362 743 362 743 337 623 c 2,15,-1
 205 0 l 1,0,-1
EndSplineSet
Validated: 1
EndChar

StartChar: s
Encoding: 115 115 86
Width: 1024
GlyphClass: 2
Flags: W
LayerCount: 2
Fore
SplineSet
797 766 m 1,0,1
 801 786 801 786 801 808 c 0,2,3
 801 875 801 875 747.5 910.5 c 128,-1,4
 694 946 694 946 589 946 c 256,5,6
 484 946 484 946 409.5 898.5 c 128,-1,7
 335 851 335 851 335 777 c 0,8,9
 335 726 335 726 365.5 700 c 128,-1,10
 396 674 396 674 450 660 c 2,11,-1
 659 606 l 2,12,13
 793 572 793 572 852 510.5 c 128,-1,14
 911 449 911 449 911 356 c 0,15,16
 911 178 911 178 765.5 74 c 128,-1,17
 620 -30 620 -30 414 -30 c 0,18,19
 232 -30 232 -30 123.5 44.5 c 128,-1,20
 15 119 15 119 15 252 c 0,21,22
 15 299 15 299 28 344 c 1,23,-1
 201 344 l 1,24,25
 196 316 196 316 196 293 c 0,26,27
 196 216 196 216 258 171 c 128,-1,28
 320 126 320 126 436 126 c 0,29,30
 562 126 562 126 640 170.5 c 128,-1,31
 718 215 718 215 718 305 c 0,32,33
 718 358 718 358 684 390.5 c 128,-1,34
 650 423 650 423 578 442 c 2,35,-1
 342 503 l 2,36,37
 253 526 253 526 201 584.5 c 128,-1,38
 149 643 149 643 149 731 c 0,39,40
 149 898 149 898 286 1000 c 128,-1,41
 423 1102 423 1102 626 1102 c 0,42,43
 780 1102 780 1102 878.5 1030 c 128,-1,44
 977 958 977 958 977 835 c 0,45,46
 977 800 977 800 968 766 c 1,47,-1
 797 766 l 1,0,1
EndSplineSet
Validated: 1
EndChar

StartChar: t
Encoding: 116 116 87
Width: 568
GlyphClass: 2
Flags: W
LayerCount: 2
Fore
SplineSet
438 922 m 1,0,-1
 290 225 l 2,1,2
 287 211 287 211 287 199 c 0,3,4
 287 170 287 170 307 155.5 c 128,-1,5
 327 141 327 141 375 141 c 2,6,-1
 444 141 l 1,7,-1
 414 0 l 1,8,9
 329 -14 329 -14 275 -14 c 0,10,11
 185 -14 185 -14 141.5 22 c 128,-1,12
 98 58 98 58 98 131 c 0,13,14
 98 166 98 166 108 215 c 2,15,-1
 258 922 l 1,16,-1
 113 922 l 1,17,-1
 145 1071 l 1,18,-1
 290 1071 l 1,19,-1
 353 1370 l 1,20,-1
 533 1370 l 1,21,-1
 470 1071 l 1,22,-1
 642 1071 l 1,23,-1
 610 922 l 1,24,-1
 438 922 l 1,0,-1
EndSplineSet
Validated: 1
EndChar

StartChar: u
Encoding: 117 117 88
Width: 1122
GlyphClass: 2
Flags: W
LayerCount: 2
Fore
SplineSet
707 0 m 1,0,-1
 740 156 l 1,1,-1
 737 160 l 1,2,3
 593 -31 593 -31 355 -31 c 0,4,5
 224 -31 224 -31 146.5 36 c 128,-1,6
 69 103 69 103 69 218 c 0,7,8
 69 253 69 253 79 301 c 2,9,-1
 243 1071 l 1,10,-1
 423 1071 l 1,11,-1
 272 360 l 2,12,13
 262 311 262 311 262 275 c 0,14,15
 262 198 262 198 307.5 161.5 c 128,-1,16
 353 125 353 125 425 125 c 0,17,18
 563 125 563 125 662.5 218.5 c 128,-1,19
 762 312 762 312 799 481 c 2,20,-1
 925 1071 l 1,21,-1
 1105 1071 l 1,22,-1
 877 0 l 1,23,-1
 707 0 l 1,0,-1
EndSplineSet
Validated: 1
EndChar

StartChar: v
Encoding: 118 118 89
Width: 1015
GlyphClass: 2
Flags: W
LayerCount: 2
Fore
SplineSet
916 1071 m 1,0,-1
 1122 1071 l 1,1,-1
 487 0 l 1,2,-1
 294 0 l 1,3,-1
 130 1071 l 1,4,-1
 337 1071 l 1,5,-1
 431 199 l 1,6,-1
 435 199 l 1,7,-1
 916 1071 l 1,0,-1
EndSplineSet
Validated: 1
EndChar

StartChar: w
Encoding: 119 119 90
Width: 1483
GlyphClass: 2
Flags: W
LayerCount: 2
Fore
SplineSet
417 0 m 1,0,-1
 231 0 l 1,1,-1
 148 1071 l 1,2,-1
 342 1071 l 1,3,-1
 370 229 l 1,4,-1
 374 229 l 1,5,-1
 755 1071 l 1,6,-1
 956 1071 l 1,7,-1
 991 229 l 1,8,-1
 995 229 l 1,9,-1
 1384 1071 l 1,10,-1
 1571 1071 l 1,11,-1
 1034 0 l 1,12,-1
 847 0 l 1,13,-1
 801 829 l 1,14,-1
 797 829 l 1,15,-1
 417 0 l 1,0,-1
EndSplineSet
Validated: 1
EndChar

StartChar: x
Encoding: 120 120 91
Width: 1023
GlyphClass: 2
Flags: W
LayerCount: 2
Fore
SplineSet
893 0 m 1,0,-1
 678 0 l 1,1,-1
 482 402 l 1,2,-1
 139 0 l 1,3,-1
 -88 0 l 1,4,-1
 408 555 l 1,5,-1
 158 1071 l 1,6,-1
 374 1071 l 1,7,-1
 556 694 l 1,8,-1
 885 1071 l 1,9,-1
 1106 1071 l 1,10,-1
 628 545 l 1,11,-1
 893 0 l 1,0,-1
EndSplineSet
Validated: 1
EndChar

StartChar: y
Encoding: 121 121 92
Width: 1016
GlyphClass: 2
Flags: W
LayerCount: 2
Fore
SplineSet
914 1071 m 1,0,-1
 1114 1071 l 1,1,-1
 447 -87 l 2,2,3
 312 -321 312 -321 228.5 -379.5 c 128,-1,4
 145 -438 145 -438 42 -438 c 0,5,6
 -24 -438 -24 -438 -84 -422 c 1,7,-1
 -49 -261 l 1,8,9
 14 -277 14 -277 60 -277 c 0,10,11
 113 -277 113 -277 154 -242.5 c 128,-1,12
 195 -208 195 -208 260 -95 c 2,13,-1
 299 -30 l 1,14,-1
 136 1071 l 1,15,-1
 336 1071 l 1,16,-1
 439 199 l 1,17,-1
 443 199 l 1,18,-1
 914 1071 l 1,0,-1
EndSplineSet
Validated: 1
EndChar

StartChar: z
Encoding: 122 122 93
Width: 1008
GlyphClass: 2
Flags: W
LayerCount: 2
Fore
SplineSet
220 150 m 1,0,-1
 870 150 l 1,1,-1
 838 0 l 1,2,-1
 -60 0 l 1,3,-1
 -30 141 l 1,4,-1
 774 922 l 1,5,-1
 186 922 l 1,6,-1
 218 1071 l 1,7,-1
 1047 1071 l 1,8,-1
 1015 924 l 1,9,-1
 220 150 l 1,0,-1
EndSplineSet
Validated: 1
EndChar

StartChar: braceleft
Encoding: 123 123 94
Width: 684
GlyphClass: 2
Flags: W
LayerCount: 2
Fore
SplineSet
104 602 m 1,0,1
 172 602 172 602 236.5 675.5 c 128,-1,2
 301 749 301 749 325 862 c 2,3,-1
 400 1214 l 2,4,5
 425 1331 425 1331 501 1405 c 128,-1,6
 577 1479 577 1479 665 1479 c 2,7,-1
 802 1479 l 1,8,-1
 774 1346 l 1,9,-1
 684 1346 l 2,10,11
 633 1346 633 1346 602 1301 c 128,-1,12
 571 1256 571 1256 554 1178 c 2,13,-1
 482 839 l 2,14,15
 434 613 434 613 236 536 c 1,16,-1
 236 532 l 1,17,18
 364 477 364 477 364 327 c 0,19,20
 364 282 364 282 354 236 c 2,21,-1
 283 -100 l 2,22,23
 278 -123 278 -123 275.5 -142.5 c 128,-1,24
 273 -162 273 -162 273 -179 c 0,25,26
 273 -268 273 -268 341 -268 c 2,27,-1
 431 -268 l 1,28,-1
 403 -401 l 1,29,-1
 276 -401 l 2,30,31
 191 -401 191 -401 147.5 -348.5 c 128,-1,32
 104 -296 104 -296 104 -214 c 0,33,34
 104 -178 104 -178 113 -137 c 2,35,-1
 187 213 l 2,36,37
 198 266 198 266 198 307 c 0,38,39
 198 382 198 382 168.5 430.5 c 128,-1,40
 139 479 139 479 78 479 c 1,41,-1
 104 602 l 1,0,1
EndSplineSet
Validated: 1
EndChar

StartChar: bar
Encoding: 124 124 95
Width: 532
GlyphClass: 2
Flags: W
LayerCount: 2
Fore
SplineSet
193 1509 m 1,0,-1
 342 1509 l 1,1,-1
 342 -39 l 1,2,-1
 193 -39 l 1,3,-1
 193 1509 l 1,0,-1
EndSplineSet
Validated: 1
EndChar

StartChar: braceright
Encoding: 125 125 96
Width: 684
GlyphClass: 2
Flags: W
LayerCount: 2
Fore
SplineSet
589 476 m 1,0,1
 521 476 521 476 456.5 402.5 c 128,-1,2
 392 329 392 329 368 216 c 2,3,-1
 293 -136 l 2,4,5
 268 -253 268 -253 192 -327 c 128,-1,6
 116 -401 116 -401 28 -401 c 2,7,-1
 -109 -401 l 1,8,-1
 -81 -268 l 1,9,-1
 9 -268 l 2,10,11
 60 -268 60 -268 91 -223 c 128,-1,12
 122 -178 122 -178 139 -100 c 2,13,-1
 211 239 l 2,14,15
 259 465 259 465 457 542 c 1,16,-1
 457 546 l 1,17,18
 329 601 329 601 329 751 c 0,19,20
 329 796 329 796 339 842 c 2,21,-1
 410 1178 l 2,22,23
 415 1201 415 1201 417.5 1220.5 c 128,-1,24
 420 1240 420 1240 420 1257 c 0,25,26
 420 1346 420 1346 352 1346 c 2,27,-1
 262 1346 l 1,28,-1
 290 1479 l 1,29,-1
 417 1479 l 2,30,31
 502 1479 502 1479 545.5 1426.5 c 128,-1,32
 589 1374 589 1374 589 1292 c 0,33,34
 589 1256 589 1256 580 1215 c 2,35,-1
 506 865 l 2,36,37
 495 812 495 812 495 771 c 0,38,39
 495 696 495 696 524.5 647.5 c 128,-1,40
 554 599 554 599 615 599 c 1,41,-1
 589 476 l 1,0,1
EndSplineSet
Validated: 1
EndChar

StartChar: asciitilde
Encoding: 126 126 97
Width: 1200
GlyphClass: 2
Flags: W
LayerCount: 2
Fore
SplineSet
1145 544 m 1,0,1
 1047 360 1047 360 852 360 c 0,2,3
 753 360 753 360 601 428 c 0,4,5
 515 467 515 467 461 488 c 128,-1,6
 407 509 407 509 337 509 c 0,7,8
 209 509 209 509 137 356 c 1,9,-1
 54 474 l 1,10,11
 153 658 153 658 347 658 c 0,12,13
 444 658 444 658 598 590 c 0,14,15
 680 552 680 552 734 530.5 c 128,-1,16
 788 509 788 509 862 509 c 0,17,18
 988 509 988 509 1062 662 c 1,19,-1
 1145 544 l 1,0,1
EndSplineSet
Validated: 1
EndChar

StartChar: exclamdown
Encoding: 161 161 98
Width: 569
GlyphClass: 2
Flags: W
LayerCount: 2
Fore
SplineSet
378 721 m 1,0,-1
 292 86 l 1,1,-1
 189 -399 l 1,2,-1
 -9 -399 l 1,3,-1
 94 86 l 1,4,-1
 278 721 l 1,5,-1
 378 721 l 1,0,-1
304 1071 m 1,6,-1
 502 1071 l 1,7,-1
 457 862 l 1,8,-1
 259 862 l 1,9,-1
 304 1071 l 1,6,-1
EndSplineSet
Validated: 1
EndChar

StartChar: cent
Encoding: 162 162 99
Width: 1139
GlyphClass: 2
Flags: W
LayerCount: 2
Fore
SplineSet
907 706 m 1,0,1
 912 874 912 874 804 918 c 1,2,-1
 448 129 l 1,3,4
 472 125 472 125 498 125 c 0,5,6
 614 125 614 125 703 193 c 128,-1,7
 792 261 792 261 841 374 c 1,8,-1
 1018 374 l 1,9,10
 944 167 944 167 801 70.5 c 128,-1,11
 658 -26 658 -26 480 -26 c 0,12,13
 429 -26 429 -26 383 -17 c 1,14,-1
 287 -231 l 1,15,-1
 198 -231 l 1,16,-1
 305 6 l 1,17,18
 85 110 85 110 85 361 c 0,19,20
 85 656 85 656 270.5 876.5 c 128,-1,21
 456 1097 456 1097 737 1097 c 0,22,23
 768 1097 768 1097 798 1093 c 1,24,-1
 881 1276 l 1,25,-1
 965 1276 l 1,26,-1
 875 1076 l 1,27,28
 1086 994 1086 994 1086 782 c 0,29,30
 1086 749 1086 749 1081 706 c 1,31,-1
 907 706 l 1,0,1
690 940 m 0,32,33
 509 940 509 940 392 769 c 128,-1,34
 275 598 275 598 275 377 c 0,35,36
 275 220 275 220 374 156 c 1,37,-1
 728 938 l 1,38,39
 710 940 710 940 690 940 c 0,32,33
EndSplineSet
Validated: 33
EndChar

StartChar: sterling
Encoding: 163 163 100
Width: 1139
GlyphClass: 2
Flags: W
LayerCount: 2
Fore
SplineSet
123 778 m 1,0,-1
 265 778 l 1,1,2
 229 879 229 879 229 978 c 0,3,4
 229 1192 229 1192 384 1331 c 128,-1,5
 539 1470 539 1470 787 1470 c 0,6,7
 962 1470 962 1470 1074 1379 c 128,-1,8
 1186 1288 1186 1288 1186 1141 c 0,9,10
 1186 1078 1186 1078 1167 1004 c 1,11,-1
 990 1004 l 1,12,13
 1002 1045 1002 1045 1002 1097 c 0,14,15
 1002 1197 1002 1197 934 1256 c 128,-1,16
 866 1315 866 1315 764 1315 c 0,17,18
 612 1315 612 1315 517 1227 c 128,-1,19
 422 1139 422 1139 422 1000 c 0,20,21
 422 917 422 917 472 778 c 1,22,-1
 815 778 l 1,23,-1
 788 649 l 1,24,-1
 504 649 l 1,25,26
 506 631 506 631 506 616 c 0,27,28
 506 346 506 346 169 135 c 1,29,-1
 170 133 l 1,30,31
 318 209 318 209 454 209 c 0,32,33
 528 209 528 209 628 173 c 128,-1,34
 728 137 728 137 773 137 c 0,35,36
 860 137 860 137 947 199 c 1,37,-1
 1021 66 l 1,38,39
 893 -33 893 -33 742 -33 c 0,40,41
 667 -33 667 -33 536.5 13 c 128,-1,42
 406 59 406 59 319 59 c 0,43,44
 206 59 206 59 61 -23 c 1,45,-1
 -9 119 l 1,46,47
 328 339 328 339 328 554 c 0,48,49
 328 595 328 595 313 649 c 1,50,-1
 96 649 l 1,51,-1
 123 778 l 1,0,-1
EndSplineSet
Validated: 1
EndChar

StartChar: currency
Encoding: 164 164 101
Width: 1139
GlyphClass: 2
Flags: W
LayerCount: 2
Fore
SplineSet
1081 1137 m 1,0,-1
 969 1026 l 1,1,2
 1071 888 1071 888 1071 719 c 0,3,4
 1071 549 1071 549 969 410 c 1,5,-1
 1079 295 l 1,6,-1
 987 203 l 1,7,-1
 874 322 l 1,8,9
 739 209 739 209 569 209 c 256,10,11
 399 209 399 209 264 322 c 1,12,-1
 152 203 l 1,13,-1
 59 295 l 1,14,-1
 170 410 l 1,15,16
 68 548 68 548 68 719 c 0,17,18
 68 889 68 889 170 1026 c 1,19,-1
 57 1137 l 1,20,-1
 156 1235 l 1,21,-1
 272 1120 l 1,22,23
 400 1225 400 1225 569 1225 c 256,24,25
 738 1225 738 1225 866 1120 c 1,26,-1
 983 1235 l 1,27,-1
 1081 1137 l 1,0,-1
217 719 m 256,28,29
 217 574 217 574 321 463 c 128,-1,30
 425 352 425 352 569 352 c 0,31,32
 715 352 715 352 818.5 463.5 c 128,-1,33
 922 575 922 575 922 719 c 0,34,35
 922 865 922 865 818 973 c 128,-1,36
 714 1081 714 1081 569 1081 c 256,37,38
 424 1081 424 1081 320.5 972.5 c 128,-1,39
 217 864 217 864 217 719 c 256,28,29
EndSplineSet
Validated: 1
EndChar

StartChar: yen
Encoding: 165 165 102
Width: 1139
GlyphClass: 2
Flags: W
LayerCount: 2
Fore
SplineSet
143 786 m 1,0,-1
 458 786 l 1,1,-1
 200 1429 l 1,2,-1
 401 1429 l 1,3,-1
 628 805 l 1,4,-1
 1118 1429 l 1,5,-1
 1327 1429 l 1,6,-1
 794 786 l 1,7,-1
 1112 786 l 1,8,-1
 1087 670 l 1,9,-1
 691 670 l 1,10,-1
 654 496 l 1,11,-1
 1050 496 l 1,12,-1
 1026 379 l 1,13,-1
 630 379 l 1,14,-1
 549 0 l 1,15,-1
 369 0 l 1,16,-1
 450 379 l 1,17,-1
 57 379 l 1,18,-1
 81 496 l 1,19,-1
 474 496 l 1,20,-1
 511 670 l 1,21,-1
 118 670 l 1,22,-1
 143 786 l 1,0,-1
EndSplineSet
Validated: 1
EndChar

StartChar: brokenbar
Encoding: 166 166 103
Width: 532
GlyphClass: 2
Flags: W
LayerCount: 2
Fore
SplineSet
193 563 m 1,0,-1
 342 563 l 1,1,-1
 342 -39 l 1,2,-1
 193 -39 l 1,3,-1
 193 563 l 1,0,-1
193 1509 m 1,4,-1
 342 1509 l 1,5,-1
 342 942 l 1,6,-1
 193 942 l 1,7,-1
 193 1509 l 1,4,-1
EndSplineSet
Validated: 1
EndChar

StartChar: section
Encoding: 167 167 104
Width: 1139
GlyphClass: 2
Flags: W
LayerCount: 2
Fore
SplineSet
471 876 m 1,0,1
 285 775 285 775 285 635 c 0,2,3
 285 584 285 584 309 542.5 c 128,-1,4
 333 501 333 501 375 471 c 2,5,-1
 681 254 l 1,6,7
 872 355 872 355 872 495 c 0,8,9
 872 546 872 546 848 587 c 128,-1,10
 824 628 824 628 782 657 c 2,11,-1
 471 876 l 1,0,1
239 -6 m 1,12,13
 231 -42 231 -42 231 -74 c 0,14,15
 231 -148 231 -148 270.5 -192 c 128,-1,16
 310 -236 310 -236 406 -236 c 0,17,18
 497 -236 497 -236 569.5 -183.5 c 128,-1,19
 642 -131 642 -131 642 -40 c 0,20,21
 642 2 642 2 618 37.5 c 128,-1,22
 594 73 594 73 528 118 c 2,23,-1
 265 306 l 2,24,25
 170 371 170 371 136.5 428.5 c 128,-1,26
 103 486 103 486 103 564 c 0,27,28
 103 796 103 796 386 957 c 1,29,30
 328 1028 328 1028 328 1128 c 0,31,32
 328 1292 328 1292 458.5 1400.5 c 128,-1,33
 589 1509 589 1509 772 1509 c 0,34,35
 917 1509 917 1509 1002 1433.5 c 128,-1,36
 1087 1358 1087 1358 1087 1232 c 0,37,38
 1087 1173 1087 1173 1073 1135 c 1,39,-1
 899 1135 l 1,40,41
 907 1169 907 1169 907 1200 c 0,42,43
 907 1270 907 1270 863.5 1312 c 128,-1,44
 820 1354 820 1354 747 1354 c 0,45,46
 653 1354 653 1354 584 1295.5 c 128,-1,47
 515 1237 515 1237 515 1160 c 0,48,49
 515 1119 515 1119 539 1084 c 128,-1,50
 563 1049 563 1049 629 1004 c 2,51,-1
 892 819 l 2,52,53
 987 755 987 755 1020.5 698 c 128,-1,54
 1054 641 1054 641 1054 564 c 0,55,56
 1054 332 1054 332 766 173 c 1,57,58
 829 101 829 101 829 -5 c 0,59,60
 829 -181 829 -181 694 -286 c 128,-1,61
 559 -391 559 -391 371 -391 c 0,62,63
 220 -391 220 -391 132.5 -313.5 c 128,-1,64
 45 -236 45 -236 45 -106 c 0,65,66
 45 -45 45 -45 59 -6 c 1,67,-1
 239 -6 l 1,12,13
EndSplineSet
Validated: 1
EndChar

StartChar: dieresis
Encoding: 168 168 105
Width: 680
GlyphClass: 2
Flags: W
LayerCount: 2
Fore
SplineSet
757 1261 m 1,0,-1
 571 1261 l 1,1,-1
 615 1470 l 1,2,-1
 801 1470 l 1,3,-1
 757 1261 l 1,0,-1
425 1261 m 1,4,-1
 239 1261 l 1,5,-1
 283 1470 l 1,6,-1
 469 1470 l 1,7,-1
 425 1261 l 1,4,-1
EndSplineSet
Validated: 1
EndChar

StartChar: copyright
Encoding: 169 169 106
Width: 1769
GlyphClass: 2
Flags: W
LayerCount: 2
Fore
SplineSet
887 -39 m 0,0,1
 563 -39 563 -39 331.5 186 c 128,-1,2
 100 411 100 411 100 737 c 256,3,4
 100 1063 100 1063 330.5 1286 c 128,-1,5
 561 1509 561 1509 887 1509 c 256,6,7
 1213 1509 1213 1509 1441 1286 c 128,-1,8
 1669 1063 1669 1063 1669 737 c 0,9,10
 1669 410 1669 410 1441 185.5 c 128,-1,11
 1213 -39 1213 -39 887 -39 c 0,0,1
256 737 m 0,12,13
 256 468 256 468 436.5 279 c 128,-1,14
 617 90 617 90 887 90 c 0,15,16
 1158 90 1158 90 1335.5 278.5 c 128,-1,17
 1513 467 1513 467 1513 737 c 0,18,19
 1513 1008 1513 1008 1335 1194 c 128,-1,20
 1157 1380 1157 1380 887 1380 c 256,21,22
 617 1380 617 1380 436.5 1194 c 128,-1,23
 256 1008 256 1008 256 737 c 0,12,13
1294 592 m 1,24,25
 1268 446 1268 446 1163 354 c 128,-1,26
 1058 262 1058 262 913 262 c 0,27,28
 712 262 712 262 584.5 396.5 c 128,-1,29
 457 531 457 531 457 739 c 0,30,31
 457 950 457 950 582.5 1082.5 c 128,-1,32
 708 1215 708 1215 905 1212 c 0,33,34
 1052 1212 1052 1212 1159.5 1130 c 128,-1,35
 1267 1048 1267 1048 1292 891 c 1,36,-1
 1155 891 l 1,37,38
 1137 973 1137 973 1071.5 1025 c 128,-1,39
 1006 1077 1006 1077 907 1077 c 0,40,41
 776 1077 776 1077 694 987 c 128,-1,42
 612 897 612 897 612 741 c 0,43,44
 612 592 612 592 697.5 494.5 c 128,-1,45
 783 397 783 397 913 397 c 0,46,47
 1006 397 1006 397 1072.5 449.5 c 128,-1,48
 1139 502 1139 502 1155 592 c 1,49,-1
 1294 592 l 1,24,25
EndSplineSet
Validated: 33
EndChar

StartChar: ordfeminine
Encoding: 170 170 107
Width: 758
GlyphClass: 2
Flags: W
LayerCount: 2
Fore
SplineSet
248 1294 m 1,0,1
 276 1392 276 1392 354.5 1450.5 c 128,-1,2
 433 1509 433 1509 577 1509 c 0,3,4
 674 1509 674 1509 740.5 1471.5 c 128,-1,5
 807 1434 807 1434 807 1368 c 0,6,7
 807 1349 807 1349 803 1329 c 2,8,-1
 726 959 l 2,9,10
 725 953 725 953 725 948 c 0,11,12
 725 926 725 926 755 926 c 0,13,14
 770 926 770 926 794 931 c 1,15,-1
 777 843 l 1,16,17
 737 829 737 829 702 829 c 0,18,19
 603 829 603 829 603 906 c 0,20,21
 603 917 603 917 605 929 c 1,22,23
 490 829 490 829 339 829 c 0,24,25
 252 829 252 829 202.5 869 c 128,-1,26
 153 909 153 909 153 988 c 0,27,28
 153 1073 153 1073 217 1139.5 c 128,-1,29
 281 1206 281 1206 400 1219 c 2,30,-1
 583 1239 l 2,31,32
 640 1245 640 1245 658 1272.5 c 128,-1,33
 676 1300 676 1300 676 1330 c 0,34,35
 676 1366 676 1366 643 1384.5 c 128,-1,36
 610 1403 610 1403 551 1403 c 0,37,38
 393 1403 393 1403 360 1294 c 1,39,-1
 248 1294 l 1,0,1
721 721 m 1,40,-1
 700 623 l 1,41,-1
 94 623 l 1,42,-1
 115 721 l 1,43,-1
 721 721 l 1,40,-1
645 1168 m 1,44,45
 620 1146 620 1146 454 1128 c 0,46,47
 369 1119 369 1119 327 1091 c 128,-1,48
 285 1063 285 1063 285 1009 c 0,49,50
 285 971 285 971 309.5 953 c 128,-1,51
 334 935 334 935 385 935 c 0,52,53
 466 935 466 935 537 974 c 128,-1,54
 608 1013 608 1013 623 1070 c 2,55,-1
 645 1168 l 1,44,45
EndSplineSet
Validated: 1
EndChar

StartChar: logicalnot
Encoding: 172 172 109
Width: 1200
GlyphClass: 2
Flags: W
LayerCount: 2
Fore
SplineSet
1118 0 m 1,0,-1
 968 0 l 1,1,-1
 968 442 l 1,2,-1
 82 442 l 1,3,-1
 82 592 l 1,4,-1
 1118 592 l 1,5,-1
 1118 0 l 1,0,-1
EndSplineSet
Validated: 1
EndChar

StartChar: registered
Encoding: 174 174 110
Width: 1769
GlyphClass: 2
Flags: W
LayerCount: 2
Fore
SplineSet
887 -39 m 0,0,1
 563 -39 563 -39 331.5 186 c 128,-1,2
 100 411 100 411 100 737 c 256,3,4
 100 1063 100 1063 330.5 1286 c 128,-1,5
 561 1509 561 1509 887 1509 c 256,6,7
 1213 1509 1213 1509 1441 1286 c 128,-1,8
 1669 1063 1669 1063 1669 737 c 0,9,10
 1669 410 1669 410 1441 185.5 c 128,-1,11
 1213 -39 1213 -39 887 -39 c 0,0,1
256 737 m 0,12,13
 256 468 256 468 436.5 279 c 128,-1,14
 617 90 617 90 887 90 c 0,15,16
 1158 90 1158 90 1335.5 278.5 c 128,-1,17
 1513 467 1513 467 1513 737 c 0,18,19
 1513 1008 1513 1008 1335 1194 c 128,-1,20
 1157 1380 1157 1380 887 1380 c 256,21,22
 617 1380 617 1380 436.5 1194 c 128,-1,23
 256 1008 256 1008 256 737 c 0,12,13
723 289 m 1,24,-1
 588 289 l 1,25,-1
 588 1182 l 1,26,-1
 936 1182 l 2,27,28
 1243 1182 1243 1182 1243 928 c 0,29,30
 1243 715 1243 715 1017 682 c 1,31,-1
 1266 289 l 1,32,-1
 1114 289 l 1,33,-1
 879 676 l 1,34,-1
 723 676 l 1,35,-1
 723 289 l 1,24,-1
909 791 m 2,36,37
 1004 791 1004 791 1053 822 c 128,-1,38
 1102 853 1102 853 1102 936 c 0,39,40
 1102 996 1102 996 1058 1031.5 c 128,-1,41
 1014 1067 1014 1067 907 1067 c 2,42,-1
 723 1067 l 1,43,-1
 723 791 l 1,44,-1
 909 791 l 2,36,37
EndSplineSet
Validated: 1
EndChar

StartChar: macron
Encoding: 175 175 111
AltUni2: 0002c9.ffffffff.0
Width: 680
GlyphClass: 2
Flags: W
LayerCount: 2
Fore
SplineSet
822 1274 m 1,0,-1
 180 1274 l 1,1,-1
 205 1391 l 1,2,-1
 847 1391 l 1,3,-1
 822 1274 l 1,0,-1
EndSplineSet
Validated: 1
EndChar

StartChar: degree
Encoding: 176 176 112
Width: 819
GlyphClass: 2
Flags: W
LayerCount: 2
Fore
SplineSet
709 1141 m 256,0,1
 709 1077 709 1077 686 1022.5 c 128,-1,2
 663 968 663 968 623 928 c 128,-1,3
 583 888 583 888 528.5 865 c 128,-1,4
 474 842 474 842 410 842 c 256,5,6
 346 842 346 842 291.5 865 c 128,-1,7
 237 888 237 888 197 928 c 128,-1,8
 157 968 157 968 134 1022.5 c 128,-1,9
 111 1077 111 1077 111 1141 c 256,10,11
 111 1205 111 1205 134 1259.5 c 128,-1,12
 157 1314 157 1314 197 1354 c 128,-1,13
 237 1394 237 1394 291.5 1417 c 128,-1,14
 346 1440 346 1440 410 1440 c 256,15,16
 474 1440 474 1440 528.5 1417 c 128,-1,17
 583 1394 583 1394 623 1354 c 128,-1,18
 663 1314 663 1314 686 1259.5 c 128,-1,19
 709 1205 709 1205 709 1141 c 256,0,1
410 1352 m 0,20,21
 369 1352 369 1352 332.5 1334 c 128,-1,22
 296 1316 296 1316 268.5 1287 c 128,-1,23
 241 1258 241 1258 225 1219.5 c 128,-1,24
 209 1181 209 1181 209 1141 c 0,25,26
 209 1100 209 1100 225 1062 c 128,-1,27
 241 1024 241 1024 268.5 994.5 c 128,-1,28
 296 965 296 965 332.5 947.5 c 128,-1,29
 369 930 369 930 410 930 c 0,30,31
 450 930 450 930 486.5 947.5 c 128,-1,32
 523 965 523 965 550.5 994.5 c 128,-1,33
 578 1024 578 1024 594 1062 c 128,-1,34
 610 1100 610 1100 610 1141 c 0,35,36
 610 1181 610 1181 594 1219.5 c 128,-1,37
 578 1258 578 1258 550.5 1287 c 128,-1,38
 523 1316 523 1316 486.5 1334 c 128,-1,39
 450 1352 450 1352 410 1352 c 0,20,21
EndSplineSet
Validated: 1
EndChar

StartChar: plusminus
Encoding: 177 177 113
Width: 1200
GlyphClass: 2
Flags: W
LayerCount: 2
Fore
SplineSet
526 1036 m 1,0,-1
 676 1036 l 1,1,-1
 676 707 l 1,2,-1
 1118 707 l 1,3,-1
 1118 557 l 1,4,-1
 676 557 l 1,5,-1
 676 227 l 1,6,-1
 526 227 l 1,7,-1
 526 557 l 1,8,-1
 82 557 l 1,9,-1
 82 707 l 1,10,-1
 526 707 l 1,11,-1
 526 1036 l 1,0,-1
82 150 m 1,12,-1
 1118 150 l 1,13,-1
 1118 0 l 1,14,-1
 82 0 l 1,15,-1
 82 150 l 1,12,-1
EndSplineSet
Validated: 1
EndChar

StartChar: acute
Encoding: 180 180 116
Width: 680
GlyphClass: 2
Flags: W
LayerCount: 2
Fore
SplineSet
536 1214 m 1,0,-1
 399 1214 l 1,1,-1
 607 1503 l 1,2,-1
 821 1503 l 1,3,-1
 536 1214 l 1,0,-1
EndSplineSet
Validated: 1
EndChar

StartChar: uni00B5
Encoding: 181 181 117
Width: 1190
GlyphClass: 2
Flags: W
LayerCount: 2
Fore
SplineSet
135 1071 m 1,0,-1
 315 1071 l 1,1,-1
 315 424 l 2,2,3
 315 287 315 287 384 211 c 128,-1,4
 453 135 453 135 573 135 c 0,5,6
 700 135 700 135 763.5 211 c 128,-1,7
 827 287 827 287 827 422 c 2,8,-1
 827 1071 l 1,9,-1
 1008 1071 l 1,10,-1
 1008 256 l 2,11,12
 1008 184 1008 184 1027.5 161.5 c 128,-1,13
 1047 139 1047 139 1087 139 c 0,14,15
 1116 139 1116 139 1143 143 c 1,16,-1
 1143 -6 l 1,17,18
 1090 -20 1090 -20 1032 -20 c 0,19,20
 868 -20 868 -20 840 125 c 1,21,22
 731 -31 731 -31 563 -31 c 0,23,24
 483 -31 483 -31 414.5 9 c 128,-1,25
 346 49 346 49 319 106 c 1,26,-1
 315 104 l 1,27,-1
 315 -424 l 1,28,-1
 135 -424 l 1,29,-1
 135 1071 l 1,0,-1
EndSplineSet
Validated: 1
EndChar

StartChar: paragraph
Encoding: 182 182 118
Width: 1100
GlyphClass: 2
Flags: W
LayerCount: 2
Fore
SplineSet
515 705 m 1,0,-1
 510 705 l 2,1,2
 351 705 351 705 248.5 786 c 128,-1,3
 146 867 146 867 146 1004 c 0,4,5
 146 1215 146 1215 297 1338.5 c 128,-1,6
 448 1462 448 1462 679 1470 c 1,7,-1
 712 1470 l 1,8,-1
 827 1470 l 1,9,-1
 1071 1470 l 1,10,-1
 1220 1470 l 1,11,-1
 833 -354 l 1,12,-1
 683 -354 l 1,13,-1
 1045 1348 l 1,14,-1
 802 1348 l 1,15,-1
 440 -354 l 1,16,-1
 290 -354 l 1,17,-1
 515 705 l 1,0,-1
EndSplineSet
Validated: 1
EndChar

StartChar: cedilla
Encoding: 184 184 120
Width: 680
GlyphClass: 2
Flags: W
LayerCount: 2
Fore
SplineSet
284 0 m 1,0,-1
 162 -127 l 1,1,2
 202 -119 202 -119 227 -119 c 0,3,4
 297 -119 297 -119 333.5 -150 c 128,-1,5
 370 -181 370 -181 370 -234 c 0,6,7
 370 -325 370 -325 291.5 -393 c 128,-1,8
 213 -461 213 -461 85 -461 c 0,9,10
 -11 -461 -11 -461 -96 -416 c 1,11,-1
 -50 -334 l 1,12,13
 11 -365 11 -365 76 -365 c 0,14,15
 137 -365 137 -365 174.5 -336.5 c 128,-1,16
 212 -308 212 -308 212 -264 c 0,17,18
 212 -234 212 -234 187 -216.5 c 128,-1,19
 162 -199 162 -199 128 -199 c 0,20,21
 99 -199 99 -199 45 -215 c 1,22,-1
 19 -176 l 1,23,-1
 188 0 l 1,24,-1
 284 0 l 1,0,-1
EndSplineSet
Validated: 1
EndChar

StartChar: ordmasculine
Encoding: 186 186 122
Width: 748
GlyphClass: 2
Flags: W
LayerCount: 2
Fore
SplineSet
721 721 m 1,0,-1
 700 623 l 1,1,-1
 94 623 l 1,2,-1
 115 721 l 1,3,-1
 721 721 l 1,0,-1
567 1403 m 0,4,5
 458 1403 458 1403 386.5 1308.5 c 128,-1,6
 315 1214 315 1214 315 1091 c 0,7,8
 315 1026 315 1026 352.5 981 c 128,-1,9
 390 936 390 936 455 936 c 0,10,11
 564 936 564 936 635 1030.5 c 128,-1,12
 706 1125 706 1125 706 1248 c 0,13,14
 706 1313 706 1313 669 1358 c 128,-1,15
 632 1403 632 1403 567 1403 c 0,4,5
591 1509 m 0,16,17
 711 1509 711 1509 778.5 1440 c 128,-1,18
 846 1371 846 1371 846 1262 c 0,19,20
 846 1094 846 1094 734 961.5 c 128,-1,21
 622 829 622 829 439 829 c 0,22,23
 320 829 320 829 248 899 c 128,-1,24
 176 969 176 969 176 1082 c 0,25,26
 176 1245 176 1245 292 1377 c 128,-1,27
 408 1509 408 1509 591 1509 c 0,16,17
EndSplineSet
Validated: 1
EndChar

StartChar: questiondown
Encoding: 191 191 127
Width: 1139
GlyphClass: 2
Flags: W
LayerCount: 2
Fore
SplineSet
923 65 m 1,0,1
 889 -162 889 -162 744 -288 c 128,-1,2
 599 -414 599 -414 380 -414 c 0,3,4
 222 -414 222 -414 116.5 -323.5 c 128,-1,5
 11 -233 11 -233 11 -91 c 0,6,7
 11 6 11 6 54.5 91 c 128,-1,8
 98 176 98 176 283 325 c 0,9,10
 437 450 437 450 476.5 515.5 c 128,-1,11
 516 581 516 581 542 700 c 1,12,-1
 720 700 l 1,13,14
 690 563 690 563 643.5 479 c 128,-1,15
 597 395 597 395 418 250 c 0,16,17
 271 131 271 131 236.5 73.5 c 128,-1,18
 202 16 202 16 202 -66 c 0,19,20
 202 -154 202 -154 257.5 -206 c 128,-1,21
 313 -258 313 -258 404 -258 c 0,22,23
 551 -258 551 -258 635.5 -176 c 128,-1,24
 720 -94 720 -94 743 65 c 1,25,-1
 923 65 l 1,0,1
606 1075 m 1,26,-1
 804 1075 l 1,27,-1
 760 866 l 1,28,-1
 562 866 l 1,29,-1
 606 1075 l 1,26,-1
EndSplineSet
Validated: 1
EndChar

StartChar: AE
Encoding: 198 198 134
Width: 2027
GlyphClass: 2
Flags: W
LayerCount: 2
Fore
SplineSet
120 0 m 1,0,-1
 -95 0 l 1,1,-1
 815 1470 l 1,2,-1
 1002 1470 l 1,3,-1
 1137 1470 l 1,4,-1
 1331 1470 l 1,5,-1
 2134 1470 l 1,6,-1
 2097 1294 l 1,7,-1
 1299 1294 l 1,8,-1
 1203 844 l 1,9,-1
 1932 844 l 1,10,-1
 1895 668 l 1,11,-1
 1166 668 l 1,12,-1
 1061 176 l 1,13,-1
 1874 176 l 1,14,-1
 1837 0 l 1,15,-1
 1023 0 l 1,16,-1
 825 0 l 1,17,-1
 916 428 l 1,18,-1
 373 428 l 1,19,-1
 120 0 l 1,0,-1
1100 1294 m 1,20,-1
 901 1294 l 1,21,-1
 482 604 l 1,22,-1
 953 604 l 1,23,-1
 1100 1294 l 1,20,-1
EndSplineSet
Validated: 1
EndChar

StartChar: Ccedilla
Encoding: 199 199 135
Width: 1480
GlyphClass: 2
Flags: W
LayerCount: 2
Fore
SplineSet
1297 1028 m 1,0,1
 1298 1176 1298 1176 1205 1254.5 c 128,-1,2
 1112 1333 1112 1333 953 1333 c 0,3,4
 678 1333 678 1333 497.5 1091 c 128,-1,5
 317 849 317 849 317 544 c 0,6,7
 317 347 317 347 410.5 242 c 128,-1,8
 504 137 504 137 676 137 c 0,9,10
 858 137 858 137 993 241.5 c 128,-1,11
 1128 346 1128 346 1207 541 c 1,12,-1
 1400 541 l 1,13,14
 1290 238 1290 238 1099.5 106 c 128,-1,15
 909 -26 909 -26 684 -37 c 1,16,-1
 598 -127 l 1,17,18
 638 -119 638 -119 663 -119 c 0,19,20
 733 -119 733 -119 769.5 -150 c 128,-1,21
 806 -181 806 -181 806 -234 c 0,22,23
 806 -325 806 -325 727.5 -393 c 128,-1,24
 649 -461 649 -461 521 -461 c 0,25,26
 425 -461 425 -461 340 -416 c 1,27,-1
 386 -334 l 1,28,29
 447 -365 447 -365 512 -365 c 0,30,31
 573 -365 573 -365 610.5 -336.5 c 128,-1,32
 648 -308 648 -308 648 -264 c 0,33,34
 648 -234 648 -234 623 -216.5 c 128,-1,35
 598 -199 598 -199 564 -199 c 0,36,37
 535 -199 535 -199 481 -215 c 1,38,-1
 455 -176 l 1,39,-1
 588 -37 l 1,40,41
 376 -23 376 -23 242.5 121.5 c 128,-1,42
 109 266 109 266 109 523 c 0,43,44
 109 921 109 921 357 1215 c 128,-1,45
 605 1509 605 1509 973 1509 c 0,46,47
 1199 1509 1199 1509 1345 1392.5 c 128,-1,48
 1491 1276 1491 1276 1491 1072 c 0,49,50
 1491 1055 1491 1055 1489 1028 c 1,51,-1
 1297 1028 l 1,0,1
EndSplineSet
Validated: 33
EndChar

StartChar: multiply
Encoding: 215 215 151
Width: 1200
GlyphClass: 2
Flags: W
LayerCount: 2
Fore
SplineSet
82 932 m 1,0,-1
 188 1036 l 1,1,-1
 600 625 l 1,2,-1
 1014 1036 l 1,3,-1
 1118 932 l 1,4,-1
 707 518 l 1,5,-1
 1118 104 l 1,6,-1
 1014 0 l 1,7,-1
 600 412 l 1,8,-1
 186 0 l 1,9,-1
 82 104 l 1,10,-1
 496 518 l 1,11,-1
 82 932 l 1,0,-1
EndSplineSet
Validated: 1
EndChar

StartChar: Oslash
Encoding: 216 216 152
Width: 1593
GlyphClass: 2
Flags: W
LayerCount: 2
Fore
SplineSet
1663 1509 m 1,0,-1
 1714 1448 l 1,1,-1
 1497 1256 l 1,2,3
 1583 1119 1583 1119 1583 923 c 0,4,5
 1583 546 1583 546 1330 254 c 128,-1,6
 1077 -38 1077 -38 697 -38 c 0,7,8
 407 -38 407 -38 241 145 c 1,9,-1
 32 -39 l 1,10,-1
 -22 18 l 1,11,-1
 193 208 l 1,12,13
 103 347 103 347 103 548 c 0,14,15
 103 925 103 925 356 1217 c 128,-1,16
 609 1509 609 1509 989 1509 c 0,17,18
 1282 1509 1282 1509 1449 1320 c 1,19,-1
 1663 1509 l 1,0,-1
1292 1180 m 1,20,21
 1178 1333 1178 1333 964 1333 c 0,22,23
 690 1333 690 1333 501 1098 c 128,-1,24
 312 863 312 863 312 574 c 0,25,26
 312 448 312 448 357 353 c 1,27,-1
 1292 1180 l 1,20,21
1332 1110 m 1,28,-1
 398 284 l 1,29,30
 509 138 509 138 722 138 c 0,31,32
 996 138 996 138 1185 373 c 128,-1,33
 1374 608 1374 608 1374 897 c 0,34,35
 1374 1018 1374 1018 1332 1110 c 1,28,-1
EndSplineSet
Validated: 1
EndChar

StartChar: Thorn
Encoding: 222 222 158
Width: 1323
GlyphClass: 2
Flags: W
LayerCount: 2
Fore
SplineSet
254 0 m 1,0,-1
 55 0 l 1,1,-1
 367 1470 l 1,2,-1
 565 1470 l 1,3,-1
 515 1227 l 1,4,-1
 958 1227 l 2,5,6
 1136 1227 1136 1227 1237 1143 c 128,-1,7
 1338 1059 1338 1059 1338 906 c 0,8,9
 1338 687 1338 687 1182.5 532.5 c 128,-1,10
 1027 378 1027 378 784 378 c 2,11,-1
 335 378 l 1,12,-1
 254 0 l 1,0,-1
371 548 m 1,13,-1
 745 548 l 2,14,15
 926 548 926 548 1026.5 630.5 c 128,-1,16
 1127 713 1127 713 1127 876 c 0,17,18
 1127 969 1127 969 1066 1013 c 128,-1,19
 1005 1057 1005 1057 882 1057 c 2,20,-1
 479 1057 l 1,21,-1
 371 548 l 1,13,-1
EndSplineSet
Validated: 1
EndChar

StartChar: germandbls
Encoding: 223 223 159
Width: 1232
GlyphClass: 2
Flags: W
LayerCount: 2
Fore
SplineSet
20 0 m 1,0,-1
 252 1090 l 2,1,2
 289 1271 289 1271 436 1381 c 0,3,4
 582 1491 582 1491 794 1491 c 0,5,6
 982 1491 982 1491 1097 1409 c 0,7,8
 1213 1326 1213 1326 1213 1184 c 0,9,10
 1213 940 1213 940 956 810 c 1,11,12
 1152 720 1152 720 1152 512 c 0,13,14
 1152 285 1152 285 977.5 127.5 c 128,-1,15
 803 -30 803 -30 553 -30 c 0,16,17
 484 -30 484 -30 415 -16 c 1,18,-1
 447 138 l 1,19,20
 490 131 490 131 538 131 c 0,21,22
 739 131 739 131 849.5 228.5 c 128,-1,23
 960 326 960 326 960 475 c 0,24,25
 960 611 960 611 887 667.5 c 128,-1,26
 814 724 814 724 667 724 c 0,27,28
 626 724 626 724 580 717 c 1,29,-1
 615 879 l 1,30,31
 631 877 631 877 648 875.5 c 128,-1,32
 665 874 665 874 683 874 c 0,33,34
 826 874 826 874 926 944 c 0,35,36
 1027 1015 1027 1015 1027 1142 c 0,37,38
 1027 1238 1027 1238 956 1286.5 c 128,-1,39
 885 1335 885 1335 761 1335 c 0,40,41
 625 1335 625 1335 539 1264 c 128,-1,42
 453 1193 453 1193 422 1044 c 2,43,-1
 200 0 l 1,44,-1
 20 0 l 1,0,-1
EndSplineSet
Validated: 1
EndChar

StartChar: ae
Encoding: 230 230 166
Width: 1814
GlyphClass: 2
Flags: W
LayerCount: 2
Fore
SplineSet
1684 336 m 1,0,1
 1618 167 1618 167 1477 67.5 c 128,-1,2
 1336 -32 1336 -32 1141 -32 c 0,3,4
 857 -32 857 -32 780 187 c 1,5,6
 576 -31 576 -31 302 -31 c 0,7,8
 173 -31 173 -31 94.5 34.5 c 128,-1,9
 16 100 16 100 16 226 c 0,10,11
 16 370 16 370 118 480 c 128,-1,12
 220 590 220 590 411 612 c 2,13,-1
 704 646 l 2,14,15
 795 656 795 656 823.5 708.5 c 128,-1,16
 852 761 852 761 852 816 c 0,17,18
 852 883 852 883 799.5 917.5 c 128,-1,19
 747 952 747 952 651 952 c 0,20,21
 401 952 401 952 344 745 c 1,22,-1
 176 745 l 1,23,24
 217 918 217 918 341 1010 c 128,-1,25
 465 1102 465 1102 679 1102 c 0,26,27
 929 1102 929 1102 1002 947 c 1,28,29
 1164 1102 1164 1102 1381 1102 c 0,30,31
 1559 1102 1559 1102 1656.5 998.5 c 128,-1,32
 1754 895 1754 895 1754 697 c 0,33,34
 1754 593 1754 593 1727 477 c 1,35,-1
 944 477 l 1,36,37
 931 429 931 429 931 371 c 0,38,39
 931 255 931 255 991.5 190 c 128,-1,40
 1052 125 1052 125 1169 125 c 0,41,42
 1282 125 1282 125 1373 182.5 c 128,-1,43
 1464 240 1464 240 1501 336 c 1,44,-1
 1684 336 l 1,0,1
793 547 m 1,45,46
 752 510 752 510 482 479 c 0,47,48
 345 463 345 463 277 407 c 128,-1,49
 209 351 209 351 209 248 c 0,50,51
 209 183 209 183 251.5 151 c 128,-1,52
 294 119 294 119 367 119 c 0,53,54
 501 119 501 119 617 191.5 c 128,-1,55
 733 264 733 264 756 371 c 2,56,-1
 793 547 l 1,45,46
1571 621 m 1,57,58
 1578 670 1578 670 1578 704 c 0,59,60
 1578 821 1578 821 1518.5 880.5 c 128,-1,61
 1459 940 1459 940 1348 940 c 0,62,63
 1221 940 1221 940 1123 858 c 128,-1,64
 1025 776 1025 776 975 621 c 1,65,-1
 1571 621 l 1,57,58
EndSplineSet
Validated: 1
EndChar

StartChar: ccedilla
Encoding: 231 231 167
Width: 1050
GlyphClass: 2
Flags: W
LayerCount: 2
Fore
SplineSet
852 711 m 1,0,-1
 852 732 l 2,1,2
 853 839 853 839 798 889.5 c 128,-1,3
 743 940 743 940 646 940 c 0,4,5
 472 940 472 940 359.5 769 c 128,-1,6
 247 598 247 598 247 377 c 0,7,8
 247 257 247 257 303 191 c 128,-1,9
 359 125 359 125 460 125 c 0,10,11
 570 125 570 125 653.5 194.5 c 128,-1,12
 737 264 737 264 783 379 c 1,13,-1
 960 379 l 1,14,15
 888 169 888 169 752.5 71.5 c 128,-1,16
 617 -26 617 -26 454 -31 c 1,17,-1
 362 -127 l 1,18,19
 402 -119 402 -119 427 -119 c 0,20,21
 497 -119 497 -119 533.5 -150 c 128,-1,22
 570 -181 570 -181 570 -234 c 0,23,24
 570 -325 570 -325 491.5 -393 c 128,-1,25
 413 -461 413 -461 285 -461 c 0,26,27
 189 -461 189 -461 104 -416 c 1,28,-1
 150 -334 l 1,29,30
 211 -365 211 -365 276 -365 c 0,31,32
 337 -365 337 -365 374.5 -336.5 c 128,-1,33
 412 -308 412 -308 412 -264 c 0,34,35
 412 -234 412 -234 387 -216.5 c 128,-1,36
 362 -199 362 -199 328 -199 c 0,37,38
 299 -199 299 -199 245 -215 c 1,39,-1
 219 -176 l 1,40,-1
 363 -25 l 1,41,42
 241 -7 241 -7 145.5 88.5 c 128,-1,43
 50 184 50 184 50 361 c 0,44,45
 50 656 50 656 232.5 879 c 128,-1,46
 415 1102 415 1102 691 1102 c 0,47,48
 838 1102 838 1102 935.5 1015.5 c 128,-1,49
 1033 929 1033 929 1033 786 c 0,50,51
 1033 753 1033 753 1028 711 c 1,52,-1
 852 711 l 1,0,-1
EndSplineSet
Validated: 33
EndChar

StartChar: eth
Encoding: 240 240 176
Width: 1146
GlyphClass: 2
Flags: W
LayerCount: 2
Fore
SplineSet
906 1316 m 1,0,1
 1099 1094 1099 1094 1099 792 c 0,2,3
 1099 460 1099 460 926.5 214.5 c 128,-1,4
 754 -31 754 -31 470 -31 c 0,5,6
 285 -31 285 -31 169 80 c 128,-1,7
 53 191 53 191 53 379 c 0,8,9
 53 632 53 632 221 838 c 128,-1,10
 389 1044 389 1044 641 1044 c 0,11,12
 798 1044 798 1044 906 924 c 1,13,-1
 911 929 l 1,14,15
 867 1120 867 1120 747 1249 c 1,16,-1
 463 1121 l 1,17,-1
 396 1207 l 1,18,-1
 665 1325 l 1,19,20
 594 1391 594 1391 502 1436 c 1,21,-1
 670 1509 l 1,22,23
 763 1466 763 1466 834 1400 c 1,24,-1
 1073 1504 l 1,25,-1
 1152 1424 l 1,26,-1
 906 1316 l 1,0,1
887 614 m 0,27,28
 887 743 887 743 824.5 815.5 c 128,-1,29
 762 888 762 888 639 888 c 0,30,31
 468 888 468 888 355 742 c 128,-1,32
 242 596 242 596 242 399 c 0,33,34
 242 278 242 278 306.5 201.5 c 128,-1,35
 371 125 371 125 489 125 c 0,36,37
 659 125 659 125 773 277 c 128,-1,38
 887 429 887 429 887 614 c 0,27,28
EndSplineSet
Validated: 1
EndChar

StartChar: divide
Encoding: 247 247 183
Width: 1200
GlyphClass: 2
Flags: W
LayerCount: 2
Fore
SplineSet
82 442 m 1,0,-1
 82 592 l 1,1,-1
 1118 592 l 1,2,-1
 1118 442 l 1,3,-1
 82 442 l 1,0,-1
461 934 m 0,4,5
 461 991 461 991 503 1032 c 128,-1,6
 545 1073 545 1073 600 1073 c 0,7,8
 656 1073 656 1073 697.5 1032 c 128,-1,9
 739 991 739 991 739 934 c 0,10,11
 739 881 739 881 697.5 838 c 128,-1,12
 656 795 656 795 600 795 c 0,13,14
 545 795 545 795 503 836.5 c 128,-1,15
 461 878 461 878 461 934 c 0,4,5
461 101 m 0,16,17
 461 158 461 158 503 199 c 128,-1,18
 545 240 545 240 600 240 c 0,19,20
 656 240 656 240 697.5 199 c 128,-1,21
 739 158 739 158 739 101 c 0,22,23
 739 48 739 48 697.5 5 c 128,-1,24
 656 -38 656 -38 600 -38 c 0,25,26
 545 -38 545 -38 503 3.5 c 128,-1,27
 461 45 461 45 461 101 c 0,16,17
EndSplineSet
Validated: 1
EndChar

StartChar: oslash
Encoding: 248 248 184
Width: 1145
GlyphClass: 2
Flags: W
LayerCount: 2
Fore
SplineSet
1163 1116 m 1,0,-1
 1216 1063 l 1,1,-1
 1042 904 l 1,2,3
 1090 812 1090 812 1090 689 c 0,4,5
 1090 411 1090 411 912 190.5 c 128,-1,6
 734 -30 734 -30 453 -30 c 0,7,8
 261 -30 261 -30 156 96 c 1,9,-1
 1 -45 l 1,10,-1
 -51 8 l 1,11,-1
 113 158 l 1,12,13
 62 254 62 254 62 382 c 0,14,15
 62 660 62 660 240 880.5 c 128,-1,16
 418 1101 418 1101 699 1101 c 0,17,18
 892 1101 892 1101 1001 968 c 1,19,-1
 1163 1116 l 1,0,-1
859 839 m 1,20,21
 796 945 796 945 669 945 c 0,22,23
 488 945 488 945 369 779.5 c 128,-1,24
 250 614 250 614 250 399 c 0,25,26
 250 343 250 343 264 296 c 1,27,-1
 859 839 l 1,20,21
890 766 m 1,28,-1
 297 225 l 1,29,30
 363 126 363 126 483 126 c 0,31,32
 664 126 664 126 783 291.5 c 128,-1,33
 902 457 902 457 902 672 c 0,34,35
 902 722 902 722 890 766 c 1,28,-1
EndSplineSet
Validated: 1
EndChar

StartChar: thorn
Encoding: 254 254 190
Width: 1157
GlyphClass: 2
Flags: W
LayerCount: 2
Fore
SplineSet
-65 -424 m 1,0,-1
 337 1470 l 1,1,-1
 517 1470 l 1,2,-1
 404 936 l 1,3,-1
 408 936 l 1,4,5
 558 1102 558 1102 748 1102 c 0,6,7
 913 1102 913 1102 1008.5 995 c 128,-1,8
 1104 888 1104 888 1104 714 c 0,9,10
 1104 436 1104 436 930 202.5 c 128,-1,11
 756 -31 756 -31 502 -31 c 0,12,13
 311 -31 311 -31 235 121 c 1,14,-1
 231 121 l 1,15,-1
 115 -424 l 1,16,-1
 -65 -424 l 1,0,-1
913 694 m 0,17,18
 913 812 913 812 856.5 876 c 128,-1,19
 800 940 800 940 695 940 c 0,20,21
 513 940 513 940 401.5 761 c 128,-1,22
 290 582 290 582 290 378 c 0,23,24
 290 262 290 262 351.5 193.5 c 128,-1,25
 413 125 413 125 515 125 c 0,26,27
 688 125 688 125 800.5 302 c 128,-1,28
 913 479 913 479 913 694 c 0,17,18
EndSplineSet
Validated: 1
EndChar

StartChar: Aogonek
Encoding: 260 260 196
Width: 1365
GlyphClass: 2
Flags: W
LayerCount: 2
Fore
SplineSet
123 0 m 1,0,-1
 -81 0 l 1,1,-1
 784 1470 l 1,2,-1
 1009 1470 l 1,3,-1
 1229 0 l 1,4,5
 1143 0 1143 0 1067.5 -68.5 c 128,-1,6
 992 -137 992 -137 992 -207 c 0,7,8
 992 -239 992 -239 1010.5 -258 c 128,-1,9
 1029 -277 1029 -277 1064 -277 c 0,10,11
 1105 -277 1105 -277 1153 -256 c 1,12,-1
 1125 -384 l 1,13,14
 1059 -413 1059 -413 986 -413 c 0,15,16
 908 -413 908 -413 862.5 -377.5 c 128,-1,17
 817 -342 817 -342 817 -276 c 0,18,19
 817 -204 817 -204 866 -130.5 c 128,-1,20
 915 -57 915 -57 1012 0 c 1,21,-1
 958 428 l 1,22,-1
 368 428 l 1,23,-1
 123 0 l 1,0,-1
923 604 m 1,24,-1
 844 1251 l 1,25,-1
 840 1251 l 1,26,-1
 467 604 l 1,27,-1
 923 604 l 1,24,-1
EndSplineSet
Validated: 1
EndChar

StartChar: aogonek
Encoding: 261 261 197
Width: 1126
GlyphClass: 2
Flags: W
LayerCount: 2
Fore
SplineSet
176 745 m 1,0,1
 217 918 217 918 341 1010 c 128,-1,2
 465 1102 465 1102 679 1102 c 0,3,4
 828 1102 828 1102 932 1040 c 128,-1,5
 1036 978 1036 978 1036 867 c 0,6,7
 1036 836 1036 836 1029 803 c 2,8,-1
 898 186 l 2,9,10
 895 174 895 174 895 165 c 0,11,12
 895 123 895 123 943 123 c 0,13,14
 966 123 966 123 1004 131 c 1,15,-1
 976 0 l 1,16,17
 819 -34 819 -34 765 -92 c 128,-1,18
 711 -150 711 -150 711 -207 c 0,19,20
 711 -239 711 -239 729.5 -258 c 128,-1,21
 748 -277 748 -277 783 -277 c 0,22,23
 824 -277 824 -277 872 -256 c 1,24,-1
 844 -384 l 1,25,26
 778 -413 778 -413 705 -413 c 0,27,28
 627 -413 627 -413 581.5 -377.5 c 128,-1,29
 536 -342 536 -342 536 -276 c 0,30,31
 536 -117 536 -117 751 11 c 1,32,33
 714 41 714 41 714 99 c 0,34,35
 714 115 714 115 718 143 c 1,36,37
 545 -31 545 -31 302 -31 c 0,38,39
 173 -31 173 -31 94.5 34.5 c 128,-1,40
 16 100 16 100 16 226 c 0,41,42
 16 370 16 370 118 480 c 128,-1,43
 220 590 220 590 411 612 c 2,44,-1
 704 646 l 2,45,46
 795 656 795 656 823.5 708.5 c 128,-1,47
 852 761 852 761 852 816 c 0,48,49
 852 883 852 883 799.5 917.5 c 128,-1,50
 747 952 747 952 651 952 c 0,51,52
 401 952 401 952 344 745 c 1,53,-1
 176 745 l 1,0,1
793 547 m 1,54,55
 752 510 752 510 482 479 c 0,56,57
 345 463 345 463 277 407 c 128,-1,58
 209 351 209 351 209 248 c 0,59,60
 209 183 209 183 251.5 151 c 128,-1,61
 294 119 294 119 367 119 c 0,62,63
 501 119 501 119 617 191.5 c 128,-1,64
 733 264 733 264 756 371 c 2,65,-1
 793 547 l 1,54,55
EndSplineSet
Validated: 1
EndChar

StartChar: Dcroat
Encoding: 272 272 208
Width: 1495
GlyphClass: 2
Flags: W
LayerCount: 2
Fore
SplineSet
387 1470 m 1,0,-1
 589 1470 l 1,1,-1
 963 1470 l 2,2,3
 1210 1470 1210 1470 1342 1335 c 128,-1,4
 1474 1200 1474 1200 1474 961 c 0,5,6
 1474 577 1474 577 1246 288.5 c 128,-1,7
 1018 0 1018 0 673 0 c 2,8,-1
 277 0 l 1,9,-1
 75 0 l 1,10,-1
 218 673 l 1,11,-1
 53 673 l 1,12,-1
 88 839 l 1,13,-1
 253 839 l 1,14,-1
 387 1470 l 1,0,-1
310 170 m 1,15,-1
 685 170 l 2,16,17
 936 170 936 170 1100 399.5 c 128,-1,18
 1264 629 1264 629 1264 927 c 0,19,20
 1264 1110 1264 1110 1175.5 1205 c 128,-1,21
 1087 1300 1087 1300 920 1300 c 2,22,-1
 550 1300 l 1,23,-1
 452 839 l 1,24,-1
 876 839 l 1,25,-1
 841 673 l 1,26,-1
 417 673 l 1,27,-1
 310 170 l 1,15,-1
EndSplineSet
Validated: 1
EndChar

StartChar: dcroat
Encoding: 273 273 209
Width: 1197
GlyphClass: 2
Flags: W
LayerCount: 2
Fore
SplineSet
922 0 m 1,0,-1
 752 0 l 1,1,-1
 783 147 l 1,2,-1
 779 147 l 1,3,4
 634 -31 634 -31 432 -31 c 0,5,6
 262 -31 262 -31 166.5 77.5 c 128,-1,7
 71 186 71 186 71 363 c 0,8,9
 71 641 71 641 237.5 842 c 128,-1,10
 404 1043 404 1043 633 1043 c 0,11,12
 838 1043 838 1043 921 861 c 1,13,-1
 928 871 l 1,14,-1
 998 1204 l 1,15,-1
 606 1204 l 1,16,-1
 630 1316 l 1,17,-1
 1022 1316 l 1,18,-1
 1054 1470 l 1,19,-1
 1234 1470 l 1,20,-1
 1201 1316 l 1,21,-1
 1319 1316 l 1,22,-1
 1295 1204 l 1,23,-1
 1177 1204 l 1,24,-1
 922 0 l 1,0,-1
254 373 m 0,25,26
 254 264 254 264 309.5 194.5 c 128,-1,27
 365 125 365 125 469 125 c 0,28,29
 648 125 648 125 753 276.5 c 128,-1,30
 858 428 858 428 858 630 c 0,31,32
 858 760 858 760 800.5 821 c 128,-1,33
 743 882 743 882 639 882 c 0,34,35
 469 882 469 882 361.5 729 c 128,-1,36
 254 576 254 576 254 373 c 0,25,26
EndSplineSet
Validated: 1
EndChar

StartChar: Eogonek
Encoding: 280 280 216
Width: 1331
GlyphClass: 2
Flags: W
LayerCount: 2
Fore
SplineSet
378 1470 m 1,0,-1
 576 1470 l 1,1,-1
 1449 1470 l 1,2,-1
 1412 1294 l 1,3,-1
 540 1294 l 1,4,-1
 444 844 l 1,5,-1
 1249 844 l 1,6,-1
 1212 668 l 1,7,-1
 407 668 l 1,8,-1
 302 176 l 1,9,-1
 1189 176 l 1,10,-1
 1152 0 l 1,11,12
 1058 -15 1058 -15 998 -80 c 128,-1,13
 938 -145 938 -145 938 -207 c 0,14,15
 938 -239 938 -239 956.5 -258 c 128,-1,16
 975 -277 975 -277 1010 -277 c 0,17,18
 1051 -277 1051 -277 1099 -256 c 1,19,-1
 1071 -384 l 1,20,21
 1005 -413 1005 -413 932 -413 c 0,22,23
 854 -413 854 -413 808.5 -377.5 c 128,-1,24
 763 -342 763 -342 763 -276 c 0,25,26
 763 -127 763 -127 958 0 c 1,27,-1
 264 0 l 1,28,-1
 66 0 l 1,29,-1
 378 1470 l 1,0,-1
EndSplineSet
Validated: 1
EndChar

StartChar: eogonek
Encoding: 281 281 217
Width: 1135
GlyphClass: 2
Flags: W
LayerCount: 2
Fore
SplineSet
1005 336 m 1,0,1
 939 167 939 167 782 56 c 0,2,3
 664 -30 664 -30 626 -92.5 c 128,-1,4
 588 -155 588 -155 588 -203 c 0,5,6
 588 -235 588 -235 608 -256.5 c 128,-1,7
 628 -278 628 -278 660 -278 c 0,8,9
 695 -278 695 -278 751 -256 c 1,10,-1
 723 -384 l 1,11,12
 666 -413 666 -413 591 -413 c 0,13,14
 512 -413 512 -413 463.5 -377 c 128,-1,15
 415 -341 415 -341 415 -273 c 0,16,17
 415 -143 415 -143 573 -23 c 1,18,19
 520 -32 520 -32 462 -32 c 0,20,21
 277 -32 277 -32 169 73 c 0,22,23
 62 180 62 180 62 356 c 0,24,25
 62 645 62 645 242 873 c 0,26,27
 422 1102 422 1102 702 1102 c 0,28,29
 880 1102 880 1102 977.5 998.5 c 128,-1,30
 1075 895 1075 895 1075 697 c 0,31,32
 1075 592 1075 592 1048 477 c 1,33,-1
 265 477 l 1,34,35
 252 431 252 431 252 371 c 0,36,37
 252 254 252 254 312 189.5 c 128,-1,38
 372 125 372 125 490 125 c 0,39,40
 602 125 602 125 694 182 c 0,41,42
 784 240 784 240 822 336 c 1,43,-1
 1005 336 l 1,0,1
892 621 m 1,44,45
 899 669 899 669 899 704 c 0,46,47
 899 822 899 822 840 881 c 128,-1,48
 781 940 781 940 669 940 c 0,49,50
 541 940 541 940 444 858.5 c 128,-1,51
 347 777 347 777 296 621 c 1,52,-1
 892 621 l 1,44,45
EndSplineSet
Validated: 1
EndChar

StartChar: Hbar
Encoding: 294 294 230
Width: 1515
GlyphClass: 2
Flags: W
LayerCount: 2
Fore
SplineSet
204 1217 m 1,0,-1
 324 1217 l 1,1,-1
 377 1470 l 1,2,-1
 575 1470 l 1,3,-1
 522 1217 l 1,4,-1
 1290 1217 l 1,5,-1
 1343 1470 l 1,6,-1
 1542 1470 l 1,7,-1
 1489 1217 l 1,8,-1
 1609 1217 l 1,9,-1
 1576 1061 l 1,10,-1
 1456 1061 l 1,11,-1
 1230 0 l 1,12,-1
 1031 0 l 1,13,-1
 1170 656 l 1,14,-1
 402 656 l 1,15,-1
 263 0 l 1,16,-1
 65 0 l 1,17,-1
 291 1061 l 1,18,-1
 171 1061 l 1,19,-1
 204 1217 l 1,0,-1
1206 822 m 1,20,-1
 1257 1061 l 1,21,-1
 489 1061 l 1,22,-1
 438 822 l 1,23,-1
 1206 822 l 1,20,-1
EndSplineSet
Validated: 1
EndChar

StartChar: hbar
Encoding: 295 295 231
Width: 1150
GlyphClass: 2
Flags: W
LayerCount: 2
Fore
SplineSet
934 0 m 1,0,-1
 753 0 l 1,1,-1
 890 642 l 2,2,3
 901 697 901 697 901 739 c 0,4,5
 901 809 901 809 859 845.5 c 128,-1,6
 817 882 817 882 742 882 c 0,7,8
 596 882 596 882 492.5 789.5 c 128,-1,9
 389 697 389 697 353 526 c 2,10,-1
 241 0 l 1,11,-1
 61 0 l 1,12,-1
 316 1204 l 1,13,-1
 184 1204 l 1,14,-1
 208 1316 l 1,15,-1
 340 1316 l 1,16,-1
 373 1470 l 1,17,-1
 553 1470 l 1,18,-1
 520 1316 l 1,19,-1
 897 1316 l 1,20,-1
 873 1204 l 1,21,-1
 496 1204 l 1,22,-1
 426 870 l 1,23,-1
 430 870 l 1,24,25
 591 1044 591 1044 797 1044 c 0,26,27
 928 1044 928 1044 1008.5 973.5 c 128,-1,28
 1089 903 1089 903 1089 781 c 0,29,30
 1089 729 1089 729 1077 671 c 2,31,-1
 934 0 l 1,0,-1
EndSplineSet
Validated: 1
EndChar

StartChar: Iogonek
Encoding: 302 302 238
Width: 529
GlyphClass: 2
Flags: W
LayerCount: 2
Fore
SplineSet
254 0 m 1,0,1
 159 -53 159 -53 122.5 -107.5 c 128,-1,2
 86 -162 86 -162 86 -207 c 0,3,4
 86 -239 86 -239 104.5 -258 c 128,-1,5
 123 -277 123 -277 158 -277 c 0,6,7
 199 -277 199 -277 247 -256 c 1,8,-1
 219 -384 l 1,9,10
 153 -413 153 -413 80 -413 c 0,11,12
 2 -413 2 -413 -43.5 -377.5 c 128,-1,13
 -89 -342 -89 -342 -89 -276 c 0,14,15
 -89 -207 -89 -207 -43 -135.5 c 128,-1,16
 3 -64 3 -64 106 0 c 1,17,-1
 55 0 l 1,18,-1
 367 1470 l 1,19,-1
 566 1470 l 1,20,-1
 254 0 l 1,0,1
EndSplineSet
Validated: 1
EndChar

StartChar: iogonek
Encoding: 303 303 239
Width: 450
GlyphClass: 2
Flags: W
LayerCount: 2
Fore
SplineSet
205 0 m 1,0,1
 118 -44 118 -44 82.5 -103 c 128,-1,2
 47 -162 47 -162 47 -207 c 0,3,4
 47 -239 47 -239 65.5 -258 c 128,-1,5
 84 -277 84 -277 119 -277 c 0,6,7
 160 -277 160 -277 208 -256 c 1,8,-1
 180 -384 l 1,9,10
 114 -413 114 -413 41 -413 c 0,11,12
 -37 -413 -37 -413 -82.5 -377.5 c 128,-1,13
 -128 -342 -128 -342 -128 -276 c 0,14,15
 -128 -207 -128 -207 -82 -135.5 c 128,-1,16
 -36 -64 -36 -64 67 0 c 1,17,-1
 25 0 l 1,18,-1
 253 1071 l 1,19,-1
 433 1071 l 1,20,-1
 205 0 l 1,0,1
294 1266 m 1,21,-1
 337 1470 l 1,22,-1
 517 1470 l 1,23,-1
 474 1266 l 1,24,-1
 294 1266 l 1,21,-1
EndSplineSet
Validated: 1
EndChar

StartChar: dotlessi
Encoding: 305 305 241
Width: 450
GlyphClass: 2
Flags: W
LayerCount: 2
Fore
SplineSet
205 0 m 1,0,-1
 25 0 l 1,1,-1
 253 1071 l 1,2,-1
 433 1071 l 1,3,-1
 205 0 l 1,0,-1
EndSplineSet
Validated: 1
EndChar

StartChar: jcircumflex
Encoding: 309 309 245
Width: 564
GlyphClass: 2
Flags: W
LayerCount: 2
Fore
SplineSet
486 1071 m 1,0,-1
 224 -158 l 2,1,2
 192 -311 192 -311 107.5 -370.5 c 128,-1,3
 23 -430 23 -430 -107 -430 c 0,4,5
 -143 -430 -143 -430 -182 -424 c 1,6,-1
 -149 -268 l 1,7,-1
 -102 -268 l 2,8,9
 -25 -268 -25 -268 2.5 -246 c 128,-1,10
 30 -224 30 -224 49 -137 c 2,11,-1
 306 1071 l 1,12,-1
 486 1071 l 1,0,-1
294 1214 m 1,13,-1
 132 1214 l 1,14,-1
 396 1503 l 1,15,-1
 586 1503 l 1,16,-1
 728 1214 l 1,17,-1
 564 1214 l 1,18,-1
 470 1405 l 1,19,-1
 294 1214 l 1,13,-1
EndSplineSet
Validated: 1
EndChar

StartChar: kgreenlandic
Encoding: 312 312 248
Width: 1024
GlyphClass: 2
Flags: W
LayerCount: 2
Fore
SplineSet
916 0 m 1,0,-1
 685 0 l 1,1,-1
 466 541 l 1,2,-1
 287 406 l 1,3,-1
 201 0 l 1,4,-1
 27 0 l 1,5,-1
 255 1071 l 1,6,-1
 429 1071 l 1,7,-1
 332 618 l 1,8,-1
 890 1071 l 1,9,-1
 1119 1071 l 1,10,-1
 625 672 l 1,11,-1
 916 0 l 1,0,-1
EndSplineSet
Validated: 1
EndChar

StartChar: Lslash
Encoding: 321 321 257
Width: 1159
GlyphClass: 2
Flags: W
LayerCount: 2
Fore
SplineSet
444 845 m 1,0,-1
 898 1010 l 1,1,-1
 864 852 l 1,2,-1
 410 687 l 1,3,-1
 301 176 l 1,4,-1
 1047 176 l 1,5,-1
 1010 0 l 1,6,-1
 261 0 l 1,7,-1
 66 0 l 1,8,-1
 195 609 l 1,9,-1
 50 557 l 1,10,-1
 84 715 l 1,11,-1
 229 767 l 1,12,-1
 378 1470 l 1,13,-1
 576 1470 l 1,14,-1
 444 845 l 1,0,-1
EndSplineSet
Validated: 1
EndChar

StartChar: lslash
Encoding: 322 322 258
Width: 490
GlyphClass: 2
Flags: W
LayerCount: 2
Fore
SplineSet
423 932 m 1,0,-1
 580 1014 l 1,1,-1
 548 866 l 1,2,-1
 392 784 l 1,3,-1
 225 0 l 1,4,-1
 45 0 l 1,5,-1
 190 682 l 1,6,-1
 51 609 l 1,7,-1
 83 757 l 1,8,-1
 221 830 l 1,9,-1
 357 1470 l 1,10,-1
 537 1470 l 1,11,-1
 423 932 l 1,0,-1
EndSplineSet
Validated: 1
EndChar

StartChar: Eng
Encoding: 330 330 266
Width: 1497
GlyphClass: 2
Flags: W
LayerCount: 2
Fore
SplineSet
1211 -8 m 2,0,1
 1171 -195 1171 -195 1053 -319.5 c 128,-1,2
 935 -444 935 -444 684 -444 c 1,3,-1
 720 -274 l 1,4,5
 839 -274 839 -274 910.5 -213.5 c 128,-1,6
 982 -153 982 -153 1010 -23 c 1,7,-1
 1010 -22 l 1,8,-1
 495 1188 l 1,9,-1
 491 1188 l 1,10,-1
 238 0 l 1,11,-1
 46 0 l 1,12,-1
 358 1470 l 1,13,-1
 593 1470 l 1,14,-1
 1079 298 l 1,15,-1
 1083 298 l 1,16,-1
 1332 1470 l 1,17,-1
 1525 1470 l 1,18,-1
 1211 -8 l 2,0,1
EndSplineSet
Validated: 1
EndChar

StartChar: eng
Encoding: 331 331 267
Width: 1130
GlyphClass: 2
Flags: W
LayerCount: 2
Fore
SplineSet
253 1071 m 1,0,-1
 423 1071 l 1,1,-1
 391 920 l 1,2,-1
 395 920 l 1,3,4
 559 1102 559 1102 773 1102 c 0,5,6
 908 1102 908 1102 986.5 1032 c 128,-1,7
 1065 962 1065 962 1065 836 c 0,8,9
 1065 788 1065 788 1053 729 c 2,10,-1
 894 -18 l 2,11,12
 849 -230 849 -230 720.5 -332 c 128,-1,13
 592 -434 592 -434 391 -434 c 1,14,-1
 425 -272 l 1,15,16
 548 -272 548 -272 617 -208 c 128,-1,17
 686 -144 686 -144 711 -30 c 2,18,-1
 857 659 l 2,19,20
 872 729 872 729 872 779 c 0,21,22
 872 859 872 859 829 899.5 c 128,-1,23
 786 940 786 940 708 940 c 0,24,25
 563 940 563 940 463.5 844.5 c 128,-1,26
 364 749 364 749 329 584 c 2,27,-1
 205 0 l 1,28,-1
 25 0 l 1,29,-1
 253 1071 l 1,0,-1
EndSplineSet
Validated: 1
EndChar

StartChar: OE
Encoding: 338 338 274
Width: 2078
GlyphClass: 2
Flags: W
LayerCount: 2
Fore
SplineSet
1284 1470 m 1,0,-1
 1478 1470 l 1,1,-1
 2185 1470 l 1,2,-1
 2148 1294 l 1,3,-1
 1433 1294 l 1,4,-1
 1337 844 l 1,5,-1
 2019 844 l 1,6,-1
 1982 668 l 1,7,-1
 1300 668 l 1,8,-1
 1195 176 l 1,9,-1
 1914 176 l 1,10,-1
 1877 0 l 1,11,-1
 1160 0 l 1,12,-1
 970 0 l 1,13,-1
 1003 154 l 1,14,-1
 999 154 l 1,15,16
 837 -39 837 -39 586 -39 c 0,17,18
 370 -39 370 -39 238 107 c 128,-1,19
 106 253 106 253 106 500 c 0,20,21
 106 881 106 881 327 1195 c 128,-1,22
 548 1509 548 1509 888 1509 c 0,23,24
 1153 1509 1153 1509 1248 1316 c 1,25,-1
 1252 1316 l 1,26,-1
 1284 1470 l 1,0,-1
1174 1008 m 2,27,28
 1183 1051 1183 1051 1183 1089 c 0,29,30
 1183 1201 1183 1201 1096.5 1270 c 128,-1,31
 1010 1339 1010 1339 872 1339 c 0,32,33
 615 1339 615 1339 462.5 1078 c 128,-1,34
 310 817 310 817 310 502 c 0,35,36
 310 321 310 321 395.5 226 c 128,-1,37
 481 131 481 131 626 131 c 0,38,39
 789 131 789 131 908 221 c 128,-1,40
 1027 311 1027 311 1060 471 c 2,41,-1
 1174 1008 l 2,27,28
EndSplineSet
Validated: 1
EndChar

StartChar: oe
Encoding: 339 339 275
Width: 1928
GlyphClass: 2
Flags: W
LayerCount: 2
Fore
SplineSet
1798 336 m 1,0,1
 1732 167 1732 167 1591 67.5 c 128,-1,2
 1450 -32 1450 -32 1255 -32 c 0,3,4
 984 -32 984 -32 887 176 c 1,5,6
 734 -30 734 -30 453 -30 c 0,7,8
 269 -30 269 -30 165.5 85.5 c 128,-1,9
 62 201 62 201 62 382 c 0,10,11
 62 660 62 660 240 880.5 c 128,-1,12
 418 1101 418 1101 699 1101 c 0,13,14
 954 1101 954 1101 1052 885 c 1,15,16
 1225 1102 1225 1102 1495 1102 c 0,17,18
 1673 1102 1673 1102 1770.5 998.5 c 128,-1,19
 1868 895 1868 895 1868 697 c 0,20,21
 1868 593 1868 593 1841 477 c 1,22,-1
 1058 477 l 1,23,24
 1045 429 1045 429 1045 371 c 0,25,26
 1045 255 1045 255 1105.5 190 c 128,-1,27
 1166 125 1166 125 1283 125 c 0,28,29
 1396 125 1396 125 1487 182.5 c 128,-1,30
 1578 240 1578 240 1615 336 c 1,31,-1
 1798 336 l 1,0,1
669 945 m 0,32,33
 488 945 488 945 369 779.5 c 128,-1,34
 250 614 250 614 250 399 c 0,35,36
 250 282 250 282 312.5 204 c 128,-1,37
 375 126 375 126 483 126 c 0,38,39
 664 126 664 126 783 291.5 c 128,-1,40
 902 457 902 457 902 672 c 0,41,42
 902 789 902 789 839.5 867 c 128,-1,43
 777 945 777 945 669 945 c 0,32,33
1685 621 m 1,44,45
 1692 670 1692 670 1692 704 c 0,46,47
 1692 821 1692 821 1632.5 880.5 c 128,-1,48
 1573 940 1573 940 1462 940 c 0,49,50
 1335 940 1335 940 1237 858 c 128,-1,51
 1139 776 1139 776 1089 621 c 1,52,-1
 1685 621 l 1,44,45
EndSplineSet
Validated: 1
EndChar

StartChar: Scedilla
Encoding: 350 350 286
Width: 1355
GlyphClass: 2
Flags: W
LayerCount: 2
Fore
SplineSet
1142 1040 m 1,0,1
 1149 1072 1149 1072 1149 1107 c 0,2,3
 1149 1216 1149 1216 1061 1278 c 128,-1,4
 973 1340 973 1340 845 1340 c 0,5,6
 683 1340 683 1340 565 1260.5 c 128,-1,7
 447 1181 447 1181 447 1050 c 0,8,9
 447 985 447 985 482 946 c 128,-1,10
 517 907 517 907 586 890 c 2,11,-1
 941 804 l 2,12,13
 1084 769 1084 769 1165.5 690 c 128,-1,14
 1247 611 1247 611 1247 487 c 0,15,16
 1247 241 1247 241 1059 104 c 128,-1,17
 871 -33 871 -33 607 -38 c 1,18,-1
 522 -127 l 1,19,20
 562 -119 562 -119 587 -119 c 0,21,22
 657 -119 657 -119 693.5 -150 c 128,-1,23
 730 -181 730 -181 730 -234 c 0,24,25
 730 -325 730 -325 651.5 -393 c 128,-1,26
 573 -461 573 -461 445 -461 c 0,27,28
 349 -461 349 -461 264 -416 c 1,29,-1
 310 -334 l 1,30,31
 371 -365 371 -365 436 -365 c 0,32,33
 497 -365 497 -365 534.5 -336.5 c 128,-1,34
 572 -308 572 -308 572 -264 c 0,35,36
 572 -234 572 -234 547 -216.5 c 128,-1,37
 522 -199 522 -199 488 -199 c 0,38,39
 459 -199 459 -199 405 -215 c 1,40,-1
 379 -176 l 1,41,-1
 513 -36 l 1,42,43
 309 -25 309 -25 184.5 73.5 c 128,-1,44
 60 172 60 172 60 337 c 0,45,46
 60 399 60 399 80 475 c 1,47,-1
 268 475 l 1,48,49
 257 426 257 426 257 386 c 0,50,51
 257 265 257 265 342.5 198.5 c 128,-1,52
 428 132 428 132 591 132 c 0,53,54
 800 132 800 132 921.5 210.5 c 128,-1,55
 1043 289 1043 289 1043 434 c 0,56,57
 1043 501 1043 501 1001 551 c 128,-1,58
 959 601 959 601 850 627 c 2,59,-1
 524 706 l 2,60,61
 369 744 369 744 306.5 817.5 c 128,-1,62
 244 891 244 891 244 998 c 0,63,64
 244 1228 244 1228 429.5 1369 c 128,-1,65
 615 1510 615 1510 862 1510 c 0,66,67
 1087 1510 1087 1510 1215 1413 c 128,-1,68
 1343 1316 1343 1316 1343 1149 c 0,69,70
 1343 1098 1343 1098 1330 1040 c 1,71,-1
 1142 1040 l 1,0,1
EndSplineSet
Validated: 1
EndChar

StartChar: scedilla
Encoding: 351 351 287
Width: 1024
GlyphClass: 2
Flags: W
LayerCount: 2
Fore
SplineSet
797 766 m 1,0,1
 801 786 801 786 801 808 c 0,2,3
 801 875 801 875 747.5 910.5 c 128,-1,4
 694 946 694 946 589 946 c 256,5,6
 484 946 484 946 409.5 899 c 128,-1,7
 335 852 335 852 335 777 c 0,8,9
 335 726 335 726 365.5 700 c 128,-1,10
 396 674 396 674 450 660 c 2,11,-1
 659 606 l 2,12,13
 793 572 793 572 852 510.5 c 128,-1,14
 911 449 911 449 911 356 c 0,15,16
 911 178 911 178 768.5 76.5 c 128,-1,17
 626 -25 626 -25 431 -30 c 1,18,-1
 338 -127 l 1,19,20
 378 -119 378 -119 403 -119 c 0,21,22
 473 -119 473 -119 509.5 -150 c 128,-1,23
 546 -181 546 -181 546 -234 c 0,24,25
 546 -325 546 -325 467.5 -393 c 128,-1,26
 389 -461 389 -461 261 -461 c 0,27,28
 165 -461 165 -461 80 -416 c 1,29,-1
 126 -334 l 1,30,31
 187 -365 187 -365 252 -365 c 0,32,33
 313 -365 313 -365 350.5 -336.5 c 128,-1,34
 388 -308 388 -308 388 -264 c 0,35,36
 388 -234 388 -234 363 -216.5 c 128,-1,37
 338 -199 338 -199 304 -199 c 0,38,39
 275 -199 275 -199 221 -215 c 1,40,-1
 195 -176 l 1,41,-1
 338 -26 l 1,42,43
 203 -16 203 -16 109 55.5 c 128,-1,44
 15 127 15 127 15 252 c 0,45,46
 15 299 15 299 28 344 c 1,47,-1
 201 344 l 1,48,49
 196 316 196 316 196 293 c 0,50,51
 196 216 196 216 258 171 c 128,-1,52
 320 126 320 126 436 126 c 0,53,54
 562 126 562 126 640 170.5 c 128,-1,55
 718 215 718 215 718 305 c 0,56,57
 718 358 718 358 684 390.5 c 128,-1,58
 650 423 650 423 578 442 c 2,59,-1
 342 503 l 2,60,61
 253 526 253 526 201 584.5 c 128,-1,62
 149 643 149 643 149 731 c 0,63,64
 149 898 149 898 286 1000 c 128,-1,65
 423 1102 423 1102 626 1102 c 0,66,67
 780 1102 780 1102 878.5 1030 c 128,-1,68
 977 958 977 958 977 835 c 0,69,70
 977 800 977 800 968 766 c 1,71,-1
 797 766 l 1,0,1
EndSplineSet
Validated: 1
EndChar

StartChar: Tbar
Encoding: 358 358 294
Width: 1244
GlyphClass: 2
Flags: W
LayerCount: 2
Fore
SplineSet
308 804 m 1,0,-1
 587 804 l 1,1,-1
 691 1294 l 1,2,-1
 194 1294 l 1,3,-1
 231 1470 l 1,4,-1
 725 1470 l 1,5,-1
 930 1470 l 1,6,-1
 1425 1470 l 1,7,-1
 1388 1294 l 1,8,-1
 890 1294 l 1,9,-1
 786 804 l 1,10,-1
 1066 804 l 1,11,-1
 1031 638 l 1,12,-1
 751 638 l 1,13,-1
 615 0 l 1,14,-1
 416 0 l 1,15,-1
 552 638 l 1,16,-1
 273 638 l 1,17,-1
 308 804 l 1,0,-1
EndSplineSet
Validated: 1
EndChar

StartChar: tbar
Encoding: 359 359 295
Width: 568
GlyphClass: 2
Flags: W
LayerCount: 2
Fore
SplineSet
440 932 m 1,0,-1
 406 771 l 1,1,-1
 578 771 l 1,2,-1
 548 632 l 1,3,-1
 376 632 l 1,4,-1
 290 225 l 2,5,6
 287 211 287 211 287 199 c 0,7,8
 287 170 287 170 307 155.5 c 128,-1,9
 327 141 327 141 375 141 c 2,10,-1
 444 141 l 1,11,-1
 414 0 l 1,12,13
 329 -14 329 -14 275 -14 c 0,14,15
 185 -14 185 -14 141.5 22 c 128,-1,16
 98 58 98 58 98 131 c 0,17,18
 98 166 98 166 108 215 c 2,19,-1
 196 632 l 1,20,-1
 51 632 l 1,21,-1
 81 771 l 1,22,-1
 226 771 l 1,23,-1
 260 932 l 1,24,-1
 115 932 l 1,25,-1
 145 1071 l 1,26,-1
 290 1071 l 1,27,-1
 353 1370 l 1,28,-1
 533 1370 l 1,29,-1
 470 1071 l 1,30,-1
 642 1071 l 1,31,-1
 612 932 l 1,32,-1
 440 932 l 1,0,-1
EndSplineSet
Validated: 1
EndChar

StartChar: Uogonek
Encoding: 370 370 306
Width: 1467
GlyphClass: 2
Flags: W
LayerCount: 2
Fore
SplineSet
1514 1470 m 1,0,-1
 1312 516 l 2,1,2
 1260 268 1260 268 1095.5 132 c 128,-1,3
 931 -4 931 -4 750 -27 c 1,4,5
 627 -106 627 -106 627 -207 c 0,6,7
 627 -239 627 -239 645.5 -258 c 128,-1,8
 664 -277 664 -277 699 -277 c 0,9,10
 740 -277 740 -277 788 -256 c 1,11,-1
 760 -384 l 1,12,13
 694 -413 694 -413 621 -413 c 0,14,15
 543 -413 543 -413 497.5 -377.5 c 128,-1,16
 452 -342 452 -342 452 -276 c 0,17,18
 452 -153 452 -153 590 -39 c 1,19,20
 390 -36 390 -36 262.5 70 c 128,-1,21
 135 176 135 176 135 361 c 0,22,23
 135 422 135 422 149 489 c 2,24,-1
 357 1470 l 1,25,-1
 555 1470 l 1,26,-1
 359 545 l 2,27,28
 344 475 344 475 344 417 c 0,29,30
 344 285 344 285 423 211 c 128,-1,31
 502 137 502 137 638 137 c 0,32,33
 829 137 829 137 953.5 243 c 128,-1,34
 1078 349 1078 349 1118 541 c 2,35,-1
 1315 1470 l 1,36,-1
 1514 1470 l 1,0,-1
EndSplineSet
Validated: 1
EndChar

StartChar: uogonek
Encoding: 371 371 307
Width: 1122
GlyphClass: 2
Flags: W
LayerCount: 2
Fore
SplineSet
1105 1071 m 1,0,-1
 877 0 l 1,1,2
 790 -26 790 -26 738.5 -88.5 c 128,-1,3
 687 -151 687 -151 687 -207 c 0,4,5
 687 -239 687 -239 705.5 -258 c 128,-1,6
 724 -277 724 -277 759 -277 c 0,7,8
 800 -277 800 -277 848 -256 c 1,9,-1
 820 -384 l 1,10,11
 754 -413 754 -413 681 -413 c 0,12,13
 603 -413 603 -413 557.5 -377.5 c 128,-1,14
 512 -342 512 -342 512 -276 c 0,15,16
 512 -207 512 -207 558 -135.5 c 128,-1,17
 604 -64 604 -64 707 0 c 1,18,-1
 740 156 l 1,19,-1
 737 160 l 1,20,21
 593 -31 593 -31 355 -31 c 0,22,23
 224 -31 224 -31 146.5 36 c 128,-1,24
 69 103 69 103 69 218 c 0,25,26
 69 253 69 253 79 301 c 2,27,-1
 243 1071 l 1,28,-1
 423 1071 l 1,29,-1
 272 360 l 2,30,31
 262 311 262 311 262 275 c 0,32,33
 262 198 262 198 307.5 161.5 c 128,-1,34
 353 125 353 125 425 125 c 0,35,36
 563 125 563 125 662.5 218.5 c 128,-1,37
 762 312 762 312 799 481 c 2,38,-1
 925 1071 l 1,39,-1
 1105 1071 l 1,0,-1
EndSplineSet
Validated: 1
EndChar

StartChar: longs
Encoding: 383 383 319
Width: 518
GlyphClass: 2
Flags: W
LayerCount: 2
Fore
SplineSet
205 0 m 1,0,-1
 25 0 l 1,1,-1
 292 1255 l 2,2,3
 317 1376 317 1376 402.5 1433.5 c 128,-1,4
 488 1491 488 1491 621 1491 c 0,5,6
 661 1491 661 1491 702 1487 c 1,7,-1
 668 1326 l 1,8,9
 635 1330 635 1330 594 1330 c 0,10,11
 540 1330 540 1330 508.5 1305 c 128,-1,12
 477 1280 477 1280 464 1216 c 2,13,-1
 205 0 l 1,0,-1
EndSplineSet
Validated: 1
EndChar

StartChar: florin
Encoding: 402 402 323
Width: 1139
GlyphClass: 2
Flags: W
LayerCount: 2
Fore
SplineSet
1041 1282 m 1,0,1
 970 1315 970 1315 926 1315 c 0,2,3
 858 1320 858 1320 818 1270.5 c 128,-1,4
 778 1221 778 1221 757 1121 c 2,5,-1
 714 905 l 1,6,-1
 955 905 l 1,7,-1
 952 762 l 1,8,-1
 684 762 l 1,9,-1
 555 131 l 1,10,-1
 527 12 l 1,11,12
 472 -198 472 -198 380.5 -311 c 128,-1,13
 289 -424 289 -424 128 -424 c 0,14,15
 50 -424 50 -424 1 -399 c 1,16,-1
 35 -236 l 1,17,18
 86 -262 86 -262 139 -262 c 0,19,20
 224 -262 224 -262 268.5 -189 c 128,-1,21
 313 -116 313 -116 341 16 c 2,22,-1
 500 762 l 1,23,-1
 280 762 l 1,24,-1
 283 905 l 1,25,-1
 531 905 l 1,26,-1
 585 1151 l 2,27,28
 613 1283 613 1283 699 1376.5 c 128,-1,29
 785 1470 785 1470 916 1470 c 0,30,31
 1008 1470 1008 1470 1075 1440 c 1,32,-1
 1041 1282 l 1,0,1
EndSplineSet
Validated: 33
EndChar

StartChar: Ohorn
Encoding: 416 416 328
Width: 1716
GlyphClass: 2
Flags: W
LayerCount: 2
Fore
SplineSet
1583 923 m 0,0,1
 1583 546 1583 546 1332.5 254 c 128,-1,2
 1082 -38 1082 -38 702 -38 c 0,3,4
 432 -38 432 -38 267.5 120.5 c 128,-1,5
 103 279 103 279 103 548 c 0,6,7
 103 925 103 925 353.5 1217 c 128,-1,8
 604 1509 604 1509 984 1509 c 0,9,10
 1353 1509 1353 1509 1517 1217 c 1,11,12
 1629 1217 1629 1217 1664.5 1303 c 128,-1,13
 1700 1389 1700 1389 1701 1470 c 1,14,-1
 1870 1470 l 1,15,16
 1870 1311 1870 1311 1794.5 1203.5 c 128,-1,17
 1719 1096 1719 1096 1565 1085 c 1,18,19
 1583 1010 1583 1010 1583 923 c 0,0,1
959 1333 m 0,20,21
 685 1333 685 1333 498.5 1098 c 128,-1,22
 312 863 312 863 312 574 c 0,23,24
 312 378 312 378 423 258 c 128,-1,25
 534 138 534 138 727 138 c 0,26,27
 1001 138 1001 138 1187.5 373 c 128,-1,28
 1374 608 1374 608 1374 897 c 0,29,30
 1374 1093 1374 1093 1263 1213 c 128,-1,31
 1152 1333 1152 1333 959 1333 c 0,20,21
EndSplineSet
Validated: 1
EndChar

StartChar: ohorn
Encoding: 417 417 329
Width: 1346
GlyphClass: 2
Flags: W
LayerCount: 2
Fore
SplineSet
699 1101 m 0,0,1
 991 1101 991 1101 1076 813 c 1,2,3
 1232 813 1232 813 1245 1071 c 1,4,-1
 1407 1071 l 1,5,6
 1390 692 1390 692 1090 687 c 1,7,8
 1089 410 1089 410 912 190 c 128,-1,9
 735 -30 735 -30 453 -30 c 0,10,11
 269 -30 269 -30 165.5 85.5 c 128,-1,12
 62 201 62 201 62 382 c 0,13,14
 62 660 62 660 240 880.5 c 128,-1,15
 418 1101 418 1101 699 1101 c 0,0,1
669 945 m 0,16,17
 488 945 488 945 369 779.5 c 128,-1,18
 250 614 250 614 250 399 c 0,19,20
 250 282 250 282 312.5 204 c 128,-1,21
 375 126 375 126 483 126 c 0,22,23
 664 126 664 126 783 291.5 c 128,-1,24
 902 457 902 457 902 672 c 0,25,26
 902 789 902 789 839.5 867 c 128,-1,27
 777 945 777 945 669 945 c 0,16,17
EndSplineSet
Validated: 1
EndChar

StartChar: Uhorn
Encoding: 431 431 330
Width: 1696
GlyphClass: 2
Flags: W
LayerCount: 2
Fore
SplineSet
1514 1470 m 1,0,-1
 1461 1221 l 1,1,2
 1484 1217 1484 1217 1510 1217 c 0,3,4
 1603 1217 1603 1217 1643 1290.5 c 128,-1,5
 1683 1364 1683 1364 1686 1470 c 1,6,-1
 1855 1470 l 1,7,8
 1855 1317 1855 1317 1777.5 1201 c 128,-1,9
 1700 1085 1700 1085 1521 1085 c 0,10,11
 1481 1085 1481 1085 1433 1090 c 1,12,-1
 1312 516 l 2,13,14
 1256 252 1256 252 1065 106.5 c 128,-1,15
 874 -39 874 -39 601 -39 c 0,16,17
 394 -39 394 -39 264.5 68.5 c 128,-1,18
 135 176 135 176 135 361 c 0,19,20
 135 422 135 422 149 489 c 2,21,-1
 357 1470 l 1,22,-1
 555 1470 l 1,23,-1
 359 545 l 2,24,25
 344 475 344 475 344 417 c 0,26,27
 344 285 344 285 423 211 c 128,-1,28
 502 137 502 137 638 137 c 0,29,30
 829 137 829 137 953.5 243 c 128,-1,31
 1078 349 1078 349 1118 541 c 2,32,-1
 1315 1470 l 1,33,-1
 1514 1470 l 1,0,-1
EndSplineSet
Validated: 1
EndChar

StartChar: uhorn
Encoding: 432 432 331
Width: 1367
GlyphClass: 2
Flags: W
LayerCount: 2
Fore
SplineSet
707 0 m 1,0,-1
 740 156 l 1,1,-1
 737 160 l 1,2,3
 593 -31 593 -31 355 -31 c 0,4,5
 224 -31 224 -31 146.5 36 c 128,-1,6
 69 103 69 103 69 218 c 0,7,8
 69 253 69 253 79 301 c 2,9,-1
 243 1071 l 1,10,-1
 423 1071 l 1,11,-1
 272 360 l 2,12,13
 262 311 262 311 262 275 c 0,14,15
 262 198 262 198 307.5 161.5 c 128,-1,16
 353 125 353 125 425 125 c 0,17,18
 563 125 563 125 662.5 218.5 c 128,-1,19
 762 312 762 312 799 481 c 2,20,-1
 925 1071 l 1,21,-1
 1105 1071 l 1,22,-1
 1051 817 l 1,23,24
 1071 813 1071 813 1098 813 c 0,25,26
 1254 813 1254 813 1267 1071 c 1,27,-1
 1429 1071 l 1,28,29
 1412 692 1412 692 1112 687 c 0,30,31
 1072 687 1072 687 1024 693 c 1,32,-1
 877 0 l 1,33,-1
 707 0 l 1,0,-1
EndSplineSet
Validated: 1
EndChar

StartChar: uni02BC
Encoding: 700 700 412
Width: 680
GlyphClass: 2
Flags: W
LayerCount: 2
Fore
SplineSet
378 1167 m 1,0,1
 488 1188 488 1188 505 1292 c 1,2,-1
 416 1292 l 1,3,-1
 453 1470 l 1,4,-1
 631 1470 l 1,5,-1
 594 1292 l 2,6,7
 575 1204 575 1204 513 1152 c 128,-1,8
 451 1100 451 1100 363 1096 c 1,9,-1
 378 1167 l 1,0,1
EndSplineSet
Validated: 1
EndChar

StartChar: circumflex
Encoding: 710 710 413
Width: 680
GlyphClass: 2
Flags: W
LayerCount: 2
Fore
SplineSet
357 1214 m 1,0,-1
 191 1214 l 1,1,-1
 455 1503 l 1,2,-1
 645 1503 l 1,3,-1
 787 1214 l 1,4,-1
 627 1214 l 1,5,-1
 533 1405 l 1,6,-1
 357 1214 l 1,0,-1
EndSplineSet
Validated: 1
EndChar

StartChar: caron
Encoding: 711 711 414
Width: 680
GlyphClass: 2
Flags: W
LayerCount: 2
Fore
SplineSet
505 1313 m 1,0,-1
 680 1503 l 1,1,-1
 848 1503 l 1,2,-1
 584 1214 l 1,3,-1
 394 1214 l 1,4,-1
 252 1503 l 1,5,-1
 410 1503 l 1,6,-1
 505 1313 l 1,0,-1
EndSplineSet
Validated: 1
EndChar

StartChar: breve
Encoding: 728 728 421
Width: 680
GlyphClass: 2
Flags: W
LayerCount: 2
Fore
SplineSet
240 1497 m 1,0,-1
 338 1497 l 1,1,-1
 338 1494 l 2,2,3
 338 1335 338 1335 513 1335 c 0,4,5
 690 1335 690 1335 756 1497 c 1,6,-1
 860 1497 l 1,7,8
 791 1218 791 1218 504 1218 c 0,9,10
 234 1218 234 1218 234 1435 c 0,11,12
 234 1461 234 1461 240 1497 c 1,0,-1
EndSplineSet
Validated: 1
EndChar

StartChar: dotaccent
Encoding: 729 729 422
Width: 680
GlyphClass: 2
Flags: W
LayerCount: 2
Fore
SplineSet
409 1266 m 1,0,-1
 452 1470 l 1,1,-1
 632 1470 l 1,2,-1
 589 1266 l 1,3,-1
 409 1266 l 1,0,-1
EndSplineSet
Validated: 1
EndChar

StartChar: ring
Encoding: 730 730 423
Width: 680
GlyphClass: 2
Flags: W
LayerCount: 2
Fore
SplineSet
484 1171 m 0,0,1
 412 1171 412 1171 369 1212 c 128,-1,2
 326 1253 326 1253 326 1320 c 0,3,4
 326 1414 326 1414 394 1481 c 128,-1,5
 462 1548 462 1548 554 1548 c 0,6,7
 621 1548 621 1548 666.5 1507 c 128,-1,8
 712 1466 712 1466 712 1400 c 0,9,10
 712 1308 712 1308 645 1239.5 c 128,-1,11
 578 1171 578 1171 484 1171 c 0,0,1
628 1382 m 0,12,13
 628 1419 628 1419 602.5 1442.5 c 128,-1,14
 577 1466 577 1466 539 1466 c 0,15,16
 488 1466 488 1466 449.5 1426.5 c 128,-1,17
 411 1387 411 1387 411 1337 c 0,18,19
 411 1300 411 1300 435.5 1276.5 c 128,-1,20
 460 1253 460 1253 499 1253 c 0,21,22
 550 1253 550 1253 589 1293 c 128,-1,23
 628 1333 628 1333 628 1382 c 0,12,13
EndSplineSet
Validated: 1
EndChar

StartChar: ogonek
Encoding: 731 731 424
Width: 680
GlyphClass: 2
Flags: W
LayerCount: 2
Fore
SplineSet
337 0 m 1,0,1
 237 -19 237 -19 180 -82.5 c 128,-1,2
 123 -146 123 -146 123 -207 c 0,3,4
 123 -239 123 -239 141.5 -258 c 128,-1,5
 160 -277 160 -277 195 -277 c 0,6,7
 236 -277 236 -277 284 -256 c 1,8,-1
 256 -384 l 1,9,10
 190 -413 190 -413 117 -413 c 0,11,12
 39 -413 39 -413 -6.5 -377.5 c 128,-1,13
 -52 -342 -52 -342 -52 -276 c 0,14,15
 -52 -200 -52 -200 3 -122 c 128,-1,16
 58 -44 58 -44 189 27 c 1,17,-1
 337 0 l 1,0,1
EndSplineSet
Validated: 1
EndChar

StartChar: tilde
Encoding: 732 732 425
Width: 680
GlyphClass: 2
Flags: W
LayerCount: 2
Fore
SplineSet
899 1479 m 1,0,1
 869 1376 869 1376 803 1315.5 c 128,-1,2
 737 1255 737 1255 656 1255 c 0,3,4
 614 1255 614 1255 553 1276 c 2,5,-1
 459 1310 l 2,6,7
 400 1331 400 1331 368 1331 c 0,8,9
 293 1331 293 1331 256 1241 c 1,10,-1
 158 1241 l 1,11,12
 193 1350 193 1350 256.5 1405 c 128,-1,13
 320 1460 320 1460 410 1460 c 0,14,15
 461 1460 461 1460 509 1442 c 2,16,-1
 616 1401 l 2,17,18
 659 1385 659 1385 682 1385 c 0,19,20
 767 1387 767 1387 798 1479 c 1,21,-1
 899 1479 l 1,0,1
EndSplineSet
Validated: 1
EndChar

StartChar: hungarumlaut
Encoding: 733 733 426
Width: 680
GlyphClass: 2
Flags: W
LayerCount: 2
Fore
SplineSet
281 1214 m 1,0,-1
 450 1503 l 1,1,-1
 634 1503 l 1,2,-1
 381 1214 l 1,3,-1
 281 1214 l 1,0,-1
562 1214 m 1,4,-1
 730 1503 l 1,5,-1
 913 1503 l 1,6,-1
 660 1214 l 1,7,-1
 562 1214 l 1,4,-1
EndSplineSet
Validated: 1
EndChar

StartChar: gravecomb
Encoding: 768 768 428
Width: 0
GlyphClass: 4
Flags: W
LayerCount: 2
Fore
SplineSet
-55 1503 m 1,0,-1
 149 1503 l 1,1,-1
 235 1214 l 1,2,-1
 108 1214 l 1,3,-1
 -55 1503 l 1,0,-1
EndSplineSet
Validated: 1
EndChar

StartChar: acutecomb
Encoding: 769 769 429
Width: 0
GlyphClass: 4
Flags: W
LayerCount: 2
Fore
SplineSet
190 1214 m 1,0,-1
 63 1214 l 1,1,-1
 271 1503 l 1,2,-1
 475 1503 l 1,3,-1
 190 1214 l 1,0,-1
EndSplineSet
Validated: 1
EndChar

StartChar: tildecomb
Encoding: 771 771 430
Width: 0
GlyphClass: 4
Flags: W
LayerCount: 2
Fore
SplineSet
559 1479 m 1,0,1
 529 1376 529 1376 463 1315.5 c 128,-1,2
 397 1255 397 1255 316 1255 c 0,3,4
 274 1255 274 1255 213 1276 c 2,5,-1
 119 1310 l 2,6,7
 60 1331 60 1331 28 1331 c 0,8,9
 -47 1331 -47 1331 -84 1241 c 1,10,-1
 -182 1241 l 1,11,12
 -147 1350 -147 1350 -83.5 1405 c 128,-1,13
 -20 1460 -20 1460 70 1460 c 0,14,15
 121 1460 121 1460 169 1442 c 2,16,-1
 276 1401 l 2,17,18
 319 1385 319 1385 342 1385 c 0,19,20
 427 1387 427 1387 458 1479 c 1,21,-1
 559 1479 l 1,0,1
EndSplineSet
Validated: 1
EndChar

StartChar: hookabovecomb
Encoding: 777 777 431
Width: 0
GlyphClass: 4
Flags: W
LayerCount: 2
Fore
SplineSet
201 1211 m 1,0,-1
 85 1211 l 1,1,2
 93 1246 93 1246 113.5 1269 c 128,-1,3
 134 1292 134 1292 175 1312 c 0,4,5
 196 1322 196 1322 214 1331.5 c 128,-1,6
 232 1341 232 1341 244.5 1352.5 c 128,-1,7
 257 1364 257 1364 264.5 1378 c 128,-1,8
 272 1392 272 1392 272 1412 c 0,9,10
 272 1442 272 1442 252.5 1456.5 c 128,-1,11
 233 1471 233 1471 204 1471 c 0,12,13
 168 1471 168 1471 139 1450.5 c 128,-1,14
 110 1430 110 1430 96 1388 c 1,15,-1
 -13 1388 l 1,16,17
 -6 1431 -6 1431 16.5 1464.5 c 128,-1,18
 39 1498 39 1498 71 1521.5 c 128,-1,19
 103 1545 103 1545 142 1557.5 c 128,-1,20
 181 1570 181 1570 222 1570 c 0,21,22
 300 1570 300 1570 345.5 1531 c 128,-1,23
 391 1492 391 1492 391 1426 c 0,24,25
 391 1374 391 1374 364 1339.5 c 128,-1,26
 337 1305 337 1305 282 1273 c 0,27,28
 245 1251 245 1251 226 1239 c 128,-1,29
 207 1227 207 1227 201 1211 c 1,0,-1
EndSplineSet
Validated: 1
EndChar

StartChar: dotbelowcomb
Encoding: 803 803 432
Width: 0
GlyphClass: 4
Flags: W
LayerCount: 2
Fore
SplineSet
-276 -399 m 1,0,-1
 -234 -195 l 1,1,-1
 -55 -195 l 1,2,-1
 -97 -399 l 1,3,-1
 -276 -399 l 1,0,-1
EndSplineSet
Validated: 1
EndChar

StartChar: uni0326
Encoding: 806 806 433
Width: 680
GlyphClass: 2
Flags: W
LayerCount: 2
Fore
SplineSet
43 -411 m 1,0,1
 152 -390 152 -390 169 -286 c 1,2,-1
 80 -286 l 1,3,-1
 118 -108 l 1,4,-1
 296 -108 l 1,5,-1
 258 -286 l 2,6,7
 249 -330 249 -330 228 -365 c 128,-1,8
 207 -400 207 -400 177 -425.5 c 128,-1,9
 147 -451 147 -451 109 -465.5 c 128,-1,10
 71 -480 71 -480 28 -482 c 1,11,-1
 43 -411 l 1,0,1
EndSplineSet
Validated: 1
EndChar

StartChar: tonos
Encoding: 900 900 434
Width: 680
GlyphClass: 2
Flags: W
LayerCount: 2
Fore
SplineSet
540 1194 m 1,0,-1
 409 1194 l 1,1,-1
 535 1519 l 1,2,-1
 753 1519 l 1,3,-1
 540 1194 l 1,0,-1
EndSplineSet
Validated: 1
EndChar

StartChar: dieresistonos
Encoding: 901 901 435
Width: 680
GlyphClass: 2
Flags: W
LayerCount: 2
Fore
SplineSet
513 1214 m 1,0,-1
 403 1214 l 1,1,-1
 481 1509 l 1,2,-1
 667 1509 l 1,3,-1
 513 1214 l 1,0,-1
858 1266 m 1,4,-1
 677 1266 l 1,5,-1
 716 1450 l 1,6,-1
 897 1450 l 1,7,-1
 858 1266 l 1,4,-1
321 1266 m 1,8,-1
 140 1266 l 1,9,-1
 179 1450 l 1,10,-1
 360 1450 l 1,11,-1
 321 1266 l 1,8,-1
EndSplineSet
Validated: 1
EndChar

StartChar: Gamma
Encoding: 915 915 447
Width: 1133
GlyphClass: 2
Flags: W
LayerCount: 2
Fore
SplineSet
367 1470 m 1,0,-1
 569 1470 l 1,1,-1
 1310 1470 l 1,2,-1
 1272 1290 l 1,3,-1
 527 1290 l 1,4,-1
 253 0 l 1,5,-1
 55 0 l 1,6,-1
 367 1470 l 1,0,-1
EndSplineSet
Validated: 1
EndChar

StartChar: Delta
Encoding: 916 916 448
Width: 1351
GlyphClass: 2
Flags: W
LayerCount: 2
Fore
SplineSet
-80 0 m 1,0,-1
 787 1470 l 1,1,-1
 989 1470 l 1,2,-1
 1211 0 l 1,3,-1
 -80 0 l 1,0,-1
228 176 m 1,4,-1
 966 176 l 1,5,-1
 834 1246 l 1,6,-1
 830 1246 l 1,7,-1
 228 176 l 1,4,-1
EndSplineSet
Validated: 1
EndChar

StartChar: Theta
Encoding: 920 920 452
Width: 1593
GlyphClass: 2
Flags: W
LayerCount: 2
Fore
SplineSet
539 848 m 1,0,-1
 1194 848 l 1,1,-1
 1157 672 l 1,2,-1
 502 672 l 1,3,-1
 539 848 l 1,0,-1
959 1333 m 0,4,5
 685 1333 685 1333 498.5 1098 c 128,-1,6
 312 863 312 863 312 574 c 0,7,8
 312 378 312 378 423 258 c 128,-1,9
 534 138 534 138 727 138 c 0,10,11
 1001 138 1001 138 1187.5 373 c 128,-1,12
 1374 608 1374 608 1374 897 c 0,13,14
 1374 1093 1374 1093 1263 1213 c 128,-1,15
 1152 1333 1152 1333 959 1333 c 0,4,5
1583 923 m 0,16,17
 1583 546 1583 546 1332.5 254 c 128,-1,18
 1082 -38 1082 -38 702 -38 c 0,19,20
 432 -38 432 -38 267.5 120.5 c 128,-1,21
 103 279 103 279 103 548 c 0,22,23
 103 925 103 925 353.5 1217 c 128,-1,24
 604 1509 604 1509 984 1509 c 0,25,26
 1254 1509 1254 1509 1418.5 1350.5 c 128,-1,27
 1583 1192 1583 1192 1583 923 c 0,16,17
EndSplineSet
Validated: 1
EndChar

StartChar: Lambda
Encoding: 923 923 455
Width: 1370
GlyphClass: 2
Flags: W
LayerCount: 2
Fore
SplineSet
124 0 m 1,0,-1
 -80 0 l 1,1,-1
 785 1470 l 1,2,-1
 1010 1470 l 1,3,-1
 1230 0 l 1,4,-1
 1013 0 l 1,5,-1
 845 1251 l 1,6,-1
 841 1251 l 1,7,-1
 124 0 l 1,0,-1
EndSplineSet
Validated: 1
EndChar

StartChar: Xi
Encoding: 926 926 458
Width: 1273
GlyphClass: 2
Flags: W
LayerCount: 2
Fore
SplineSet
17 178 m 1,0,-1
 1112 178 l 1,1,-1
 1074 0 l 1,2,-1
 -21 0 l 1,3,-1
 17 178 l 1,0,-1
326 1470 m 1,4,-1
 1352 1470 l 1,5,-1
 1316 1298 l 1,6,-1
 290 1298 l 1,7,-1
 326 1470 l 1,4,-1
250 843 m 1,8,-1
 1161 843 l 1,9,-1
 1124 669 l 1,10,-1
 213 669 l 1,11,-1
 250 843 l 1,8,-1
EndSplineSet
Validated: 1
EndChar

StartChar: Pi
Encoding: 928 928 460
Width: 1434
GlyphClass: 2
Flags: W
LayerCount: 2
Fore
SplineSet
367 1470 m 1,0,-1
 566 1470 l 1,1,-1
 1269 1470 l 1,2,-1
 1471 1470 l 1,3,-1
 1159 0 l 1,4,-1
 960 0 l 1,5,-1
 1235 1294 l 1,6,-1
 529 1294 l 1,7,-1
 254 0 l 1,8,-1
 55 0 l 1,9,-1
 367 1470 l 1,0,-1
EndSplineSet
Validated: 1
EndChar

StartChar: Sigma
Encoding: 931 931 462
Width: 1251
GlyphClass: 2
Flags: W
LayerCount: 2
Fore
SplineSet
-21 0 m 1,0,-1
 12 156 l 1,1,-1
 709 767 l 1,2,-1
 284 1314 l 1,3,-1
 317 1470 l 1,4,-1
 1349 1470 l 1,5,-1
 1312 1294 l 1,6,-1
 549 1294 l 1,7,-1
 957 760 l 1,8,-1
 956 752 l 1,9,-1
 299 176 l 1,10,-1
 1108 176 l 1,11,-1
 1071 0 l 1,12,-1
 -21 0 l 1,0,-1
EndSplineSet
Validated: 1
EndChar

StartChar: Phi
Encoding: 934 934 465
Width: 1564
GlyphClass: 2
Flags: W
LayerCount: 2
Fore
SplineSet
614 154 m 1,0,1
 370 170 370 170 231 298 c 128,-1,2
 92 426 92 426 92 644 c 0,3,4
 92 932 92 932 314 1126.5 c 128,-1,5
 536 1321 536 1321 862 1322 c 1,6,-1
 900 1500 l 1,7,-1
 1084 1500 l 1,8,-1
 1046 1322 l 1,9,10
 1290 1306 1290 1306 1429 1178 c 128,-1,11
 1568 1050 1568 1050 1568 833 c 0,12,13
 1568 544 1568 544 1346 349.5 c 128,-1,14
 1124 155 1124 155 798 154 c 1,15,-1
 759 -30 l 1,16,-1
 575 -30 l 1,17,-1
 614 154 l 1,0,1
832 320 m 1,18,19
 1073 320 1073 320 1218.5 461.5 c 128,-1,20
 1364 603 1364 603 1364 821 c 0,21,22
 1364 968 1364 968 1278.5 1058.5 c 128,-1,23
 1193 1149 1193 1149 1010 1156 c 1,24,-1
 832 320 l 1,18,19
650 320 m 1,25,-1
 828 1156 l 1,26,27
 586 1155 586 1155 441 1014 c 128,-1,28
 296 873 296 873 296 655 c 0,29,30
 296 508 296 508 381.5 417.5 c 128,-1,31
 467 327 467 327 650 320 c 1,25,-1
EndSplineSet
Validated: 1
EndChar

StartChar: Psi
Encoding: 936 936 467
Width: 1655
GlyphClass: 2
Flags: W
LayerCount: 2
Fore
SplineSet
931 1470 m 1,0,-1
 1128 1470 l 1,1,-1
 922 501 l 1,2,3
 1145 516 1145 516 1256.5 604 c 128,-1,4
 1368 692 1368 692 1410 888 c 2,5,-1
 1533 1470 l 1,6,-1
 1731 1470 l 1,7,-1
 1612 908 l 2,8,9
 1545 595 1545 595 1379.5 469 c 128,-1,10
 1214 343 1214 343 885 327 c 1,11,-1
 816 0 l 1,12,-1
 619 0 l 1,13,-1
 689 328 l 1,14,15
 445 348 445 348 317 442.5 c 128,-1,16
 189 537 189 537 189 724 c 0,17,18
 189 813 189 813 209 908 c 2,19,-1
 328 1470 l 1,20,-1
 526 1470 l 1,21,-1
 403 888 l 2,22,23
 388 815 388 815 388 764 c 0,24,25
 388 633 388 633 464 575.5 c 128,-1,26
 540 518 540 518 725 501 c 1,27,-1
 931 1470 l 1,0,-1
EndSplineSet
Validated: 1
EndChar

StartChar: Omega
Encoding: 937 937 468
Width: 1606
GlyphClass: 2
Flags: W
LayerCount: 2
Fore
SplineSet
1403 0 m 1,0,-1
 823 0 l 1,1,-1
 857 160 l 1,2,3
 1066 261 1066 261 1219 466 c 128,-1,4
 1372 671 1372 671 1372 921 c 0,5,6
 1372 1102 1372 1102 1267.5 1218 c 128,-1,7
 1163 1334 1163 1334 959 1334 c 0,8,9
 690 1334 690 1334 522 1139.5 c 128,-1,10
 354 945 354 945 354 652 c 0,11,12
 354 503 354 503 415 374.5 c 128,-1,13
 476 246 476 246 597 160 c 1,14,-1
 563 0 l 1,15,-1
 -13 0 l 1,16,-1
 24 176 l 1,17,-1
 382 176 l 1,18,-1
 384 185 l 1,19,20
 155 397 155 397 155 679 c 0,21,22
 155 1015 155 1015 394 1261 c 128,-1,23
 633 1507 633 1507 980 1507 c 0,24,25
 1242 1507 1242 1507 1410 1352 c 128,-1,26
 1578 1197 1578 1197 1578 957 c 0,27,28
 1578 700 1578 700 1435 501 c 128,-1,29
 1292 302 1292 302 1094 185 c 1,30,-1
 1092 176 l 1,31,-1
 1440 176 l 1,32,-1
 1403 0 l 1,0,-1
EndSplineSet
Validated: 1
EndChar

StartChar: alpha
Encoding: 945 945 476
Width: 1200
GlyphClass: 2
Flags: W
LayerCount: 2
Fore
SplineSet
1159 1071 m 1,0,-1
 979 225 l 2,1,2
 973 196 973 196 973 181 c 0,3,4
 973 139 973 139 1020 139 c 0,5,6
 1051 139 1051 139 1078 146 c 1,7,-1
 1045 -10 l 1,8,9
 992 -22 992 -22 944 -22 c 0,10,11
 866 -22 866 -22 826.5 12.5 c 128,-1,12
 787 47 787 47 787 125 c 0,13,14
 787 152 787 152 793 185 c 1,15,-1
 788 185 l 1,16,17
 636 -32 636 -32 398 -32 c 0,18,19
 249 -32 249 -32 155.5 78 c 128,-1,20
 62 188 62 188 62 358 c 0,21,22
 62 652 62 652 228 876 c 128,-1,23
 394 1100 394 1100 652 1100 c 0,24,25
 845 1100 845 1100 939 899 c 1,26,-1
 943 899 l 1,27,-1
 979 1071 l 1,28,-1
 1159 1071 l 1,0,-1
255 396 m 0,29,30
 255 279 255 279 314.5 202 c 128,-1,31
 374 125 374 125 469 125 c 0,32,33
 639 125 639 125 758.5 298 c 128,-1,34
 878 471 878 471 878 662 c 0,35,36
 878 786 878 786 820 864.5 c 128,-1,37
 762 943 762 943 653 943 c 0,38,39
 477 943 477 943 366 773 c 128,-1,40
 255 603 255 603 255 396 c 0,29,30
EndSplineSet
Validated: 1
EndChar

StartChar: beta
Encoding: 946 946 477
Width: 1164
GlyphClass: 2
Flags: W
LayerCount: 2
Fore
SplineSet
-70 -424 m 1,0,-1
 233 1001 l 2,1,2
 284 1235 284 1235 428.5 1363 c 128,-1,3
 573 1491 573 1491 785 1491 c 0,4,5
 938 1491 938 1491 1045.5 1407 c 128,-1,6
 1153 1323 1153 1323 1153 1188 c 0,7,8
 1153 915 1153 915 847 800 c 1,9,-1
 847 798 l 1,10,11
 1088 737 1088 737 1094 497 c 1,12,13
 1094 280 1094 280 932 124.5 c 128,-1,14
 770 -31 770 -31 533 -31 c 0,15,16
 340 -31 340 -31 221 100 c 1,17,-1
 110 -424 l 1,18,-1
 -70 -424 l 1,0,-1
251 246 m 1,19,20
 333 125 333 125 510 125 c 256,21,22
 687 125 687 125 795 228 c 128,-1,23
 903 331 903 331 903 484 c 0,24,25
 903 592 903 592 823 651.5 c 128,-1,26
 743 711 743 711 615 711 c 0,27,28
 571 711 571 711 525 704 c 1,29,-1
 558 860 l 1,30,31
 587 856 587 856 619 856 c 0,32,33
 777 856 777 856 872.5 937.5 c 128,-1,34
 968 1019 968 1019 968 1152 c 0,35,36
 968 1232 968 1232 910 1284 c 128,-1,37
 852 1336 852 1336 762 1336 c 0,38,39
 616 1336 616 1336 531 1251 c 128,-1,40
 446 1166 446 1166 411 994 c 2,41,-1
 251 246 l 1,19,20
EndSplineSet
Validated: 1
EndChar

StartChar: gamma
Encoding: 947 947 478
Width: 1136
GlyphClass: 2
Flags: W
LayerCount: 2
Fore
SplineSet
1169 1074 m 1,0,1
 970 435 970 435 527 1 c 1,2,-1
 431 -424 l 1,3,-1
 243 -424 l 1,4,5
 309 -180 309 -180 338.5 -40.5 c 128,-1,6
 368 99 368 99 368 279 c 0,7,8
 368 558 368 558 312 748 c 128,-1,9
 256 938 256 938 152 938 c 0,10,11
 130 938 130 938 108 932 c 1,12,-1
 139 1077 l 1,13,14
 194 1092 194 1092 233 1092 c 0,15,16
 405 1092 405 1092 473.5 859.5 c 128,-1,17
 542 627 542 627 530 213 c 1,18,-1
 534 213 l 1,19,20
 828 568 828 568 979 1074 c 1,21,-1
 1169 1074 l 1,0,1
EndSplineSet
Validated: 33
EndChar

StartChar: delta
Encoding: 948 948 479
Width: 1145
GlyphClass: 2
Flags: W
LayerCount: 2
Fore
SplineSet
1124 1292 m 1,0,1
 980 1340 980 1340 817 1340 c 0,2,3
 720 1340 720 1340 660 1316.5 c 128,-1,4
 600 1293 600 1293 600 1244 c 0,5,6
 600 1189 600 1189 685 1124 c 2,7,-1
 847 1000 l 2,8,9
 965 912 965 912 1023.5 818.5 c 128,-1,10
 1082 725 1082 725 1082 612 c 0,11,12
 1082 362 1082 362 900.5 166 c 128,-1,13
 719 -30 719 -30 462 -30 c 0,14,15
 279 -30 279 -30 166.5 82 c 128,-1,16
 54 194 54 194 54 362 c 0,17,18
 54 561 54 561 194 735.5 c 128,-1,19
 334 910 334 910 569 988 c 1,20,21
 414 1105 414 1105 414 1240 c 0,22,23
 414 1362 414 1362 524.5 1430.5 c 128,-1,24
 635 1499 635 1499 849 1499 c 0,25,26
 1002 1499 1002 1499 1166 1463 c 1,27,-1
 1124 1292 l 1,0,1
698 885 m 1,28,29
 495 826 495 826 369.5 695.5 c 128,-1,30
 244 565 244 565 244 390 c 0,31,32
 244 267 244 267 310.5 196.5 c 128,-1,33
 377 126 377 126 484 126 c 0,34,35
 653 126 653 126 771 264 c 128,-1,36
 889 402 889 402 889 572 c 0,37,38
 889 677 889 677 843 744.5 c 128,-1,39
 797 812 797 812 698 885 c 1,28,29
EndSplineSet
Validated: 1
EndChar

StartChar: epsilon
Encoding: 949 949 480
Width: 1046
GlyphClass: 2
Flags: W
LayerCount: 2
Fore
SplineSet
656 487 m 1,0,1
 604 493 604 493 550 493 c 0,2,3
 382 493 382 493 300.5 439.5 c 128,-1,4
 219 386 219 386 219 298 c 0,5,6
 219 216 219 216 279.5 169.5 c 128,-1,7
 340 123 340 123 444 123 c 0,8,9
 706 123 706 123 771 344 c 1,10,-1
 952 344 l 1,11,12
 915 172 915 172 777.5 68 c 128,-1,13
 640 -36 640 -36 427 -36 c 0,14,15
 233 -36 233 -36 127.5 49 c 128,-1,16
 22 134 22 134 22 266 c 0,17,18
 22 374 22 374 90.5 455.5 c 128,-1,19
 159 537 159 537 280 572 c 1,20,-1
 281 576 l 1,21,22
 172 644 172 644 172 760 c 0,23,24
 172 916 172 916 309 1009.5 c 128,-1,25
 446 1103 446 1103 643 1103 c 0,26,27
 810 1103 810 1103 913 1031.5 c 128,-1,28
 1016 960 1016 960 1016 829 c 0,29,30
 1016 805 1016 805 1013 780 c 1,31,-1
 841 780 l 1,32,33
 841 872 841 872 781 910.5 c 128,-1,34
 721 949 721 949 631 949 c 0,35,36
 515 949 515 949 434 897.5 c 128,-1,37
 353 846 353 846 353 757 c 0,38,39
 353 696 353 696 398 664 c 128,-1,40
 443 632 443 632 559 632 c 0,41,42
 628 632 628 632 688 635 c 1,43,-1
 656 487 l 1,0,1
EndSplineSet
Validated: 1
EndChar

StartChar: zeta
Encoding: 950 950 481
Width: 920
GlyphClass: 2
Flags: W
LayerCount: 2
Fore
SplineSet
1063 1343 m 1,0,1
 253 895 253 895 253 454 c 0,2,3
 253 329 253 329 314.5 264 c 128,-1,4
 376 199 376 199 541 172 c 0,5,6
 689 147 689 147 735 98 c 128,-1,7
 781 49 781 49 781 -11 c 0,8,9
 781 -161 781 -161 609 -401 c 1,10,-1
 461 -401 l 1,11,12
 595 -195 595 -195 595 -83 c 0,13,14
 595 -15 595 -15 486 5 c 0,15,16
 236 50 236 50 146.5 146.5 c 128,-1,17
 57 243 57 243 57 406 c 0,18,19
 57 640 57 640 262.5 884 c 128,-1,20
 468 1128 468 1128 788 1314 c 1,21,-1
 789 1318 l 1,22,-1
 339 1318 l 1,23,-1
 371 1470 l 1,24,-1
 1090 1470 l 1,25,-1
 1063 1343 l 1,0,1
EndSplineSet
Validated: 1
EndChar

StartChar: eta
Encoding: 951 951 482
Width: 1166
GlyphClass: 2
Flags: W
LayerCount: 2
Fore
SplineSet
841 -424 m 1,0,-1
 660 -424 l 1,1,-1
 891 659 l 2,2,3
 906 729 906 729 906 779 c 0,4,5
 906 859 906 859 863 899.5 c 128,-1,6
 820 940 820 940 742 940 c 0,7,8
 597 940 597 940 499 850.5 c 128,-1,9
 401 761 401 761 363 584 c 2,10,-1
 239 0 l 1,11,-1
 59 0 l 1,12,-1
 230 810 l 2,13,14
 239 852 239 852 239 878 c 0,15,16
 239 912 239 912 220.5 924 c 128,-1,17
 202 936 202 936 167 936 c 0,18,19
 152 936 152 936 127 931 c 1,20,-1
 158 1076 l 1,21,22
 209 1090 209 1090 266 1090 c 0,23,24
 421 1090 421 1090 421 921 c 1,25,-1
 426 921 l 1,26,27
 593 1102 593 1102 807 1102 c 0,28,29
 942 1102 942 1102 1020.5 1032 c 128,-1,30
 1099 962 1099 962 1099 836 c 0,31,32
 1099 788 1099 788 1087 729 c 2,33,-1
 841 -424 l 1,0,-1
EndSplineSet
Validated: 1
EndChar

StartChar: theta
Encoding: 952 952 483
Width: 1135
GlyphClass: 2
Flags: W
LayerCount: 2
Fore
SplineSet
934 824 m 1,0,1
 948 922 948 922 948 1006 c 0,2,3
 948 1171 948 1171 892.5 1253 c 128,-1,4
 837 1335 837 1335 732 1335 c 0,5,6
 442 1335 442 1335 327 824 c 1,7,-1
 934 824 l 1,0,1
298 669 m 1,8,9
 280 562 280 562 280 454 c 0,10,11
 280 299 280 299 333 212 c 128,-1,12
 386 125 386 125 496 125 c 0,13,14
 791 125 791 125 908 669 c 1,15,-1
 298 669 l 1,16,-1
 298 669 l 1,8,9
1130 1016 m 0,17,18
 1130 617 1130 617 959 294 c 128,-1,19
 788 -29 788 -29 474 -29 c 0,20,21
 294 -29 294 -29 196 89.5 c 128,-1,22
 98 208 98 208 98 444 c 0,23,24
 98 842 98 842 265.5 1165.5 c 128,-1,25
 433 1489 433 1489 753 1489 c 0,26,27
 934 1489 934 1489 1032 1370.5 c 128,-1,28
 1130 1252 1130 1252 1130 1016 c 0,17,18
EndSplineSet
Validated: 5
EndChar

StartChar: iota
Encoding: 953 953 484
Width: 492
GlyphClass: 2
Flags: W
LayerCount: 2
Fore
SplineSet
433 1071 m 1,0,-1
 256 240 l 2,1,2
 251 215 251 215 251 201 c 0,3,4
 251 167 251 167 269.5 153 c 128,-1,5
 288 139 288 139 323 139 c 0,6,7
 354 139 354 139 398 148 c 1,8,-1
 365 -10 l 1,9,10
 303 -23 303 -23 246 -23 c 0,11,12
 151 -23 151 -23 105.5 13.5 c 128,-1,13
 60 50 60 50 60 121 c 0,14,15
 60 165 60 165 74 229 c 2,16,-1
 253 1071 l 1,17,-1
 433 1071 l 1,0,-1
EndSplineSet
Validated: 1
EndChar

StartChar: kappa
Encoding: 954 954 485
Width: 1077
GlyphClass: 2
Flags: W
LayerCount: 2
Fore
SplineSet
419 490 m 1,0,-1
 285 376 l 1,1,-1
 205 0 l 1,2,-1
 25 0 l 1,3,-1
 253 1071 l 1,4,-1
 433 1071 l 1,5,-1
 330 588 l 1,6,-1
 748 959 l 2,7,8
 842 1041 842 1041 906 1065.5 c 128,-1,9
 970 1090 970 1090 1043 1090 c 0,10,11
 1083 1090 1083 1090 1142 1082 c 1,12,-1
 1109 926 l 1,13,14
 1071 933 1071 933 1037 933 c 0,15,16
 982 933 982 933 935.5 911 c 128,-1,17
 889 889 889 889 789 802 c 2,18,-1
 562 612 l 1,19,-1
 952 0 l 1,20,-1
 731 0 l 1,21,-1
 419 490 l 1,0,-1
EndSplineSet
Validated: 1
EndChar

StartChar: lambda
Encoding: 955 955 486
Width: 1132
GlyphClass: 2
Flags: W
LayerCount: 2
Fore
SplineSet
-75 0 m 1,0,-1
 605 1028 l 1,1,-1
 577 1238 l 2,2,3
 571 1283 571 1283 539 1310 c 128,-1,4
 507 1337 507 1337 436 1337 c 0,5,6
 391 1337 391 1337 332 1328 c 1,7,-1
 362 1477 l 1,8,9
 448 1491 448 1491 520 1491 c 0,10,11
 622 1491 622 1491 675 1444 c 128,-1,12
 728 1397 728 1397 741 1306 c 2,13,-1
 903 203 l 2,14,15
 913 138 913 138 970 138 c 0,16,17
 1005 138 1005 138 1038 146 c 1,18,-1
 1004 -12 l 1,19,20
 960 -23 960 -23 909 -23 c 0,21,22
 830 -23 830 -23 783.5 14.5 c 128,-1,23
 737 52 737 52 727 129 c 2,24,-1
 635 803 l 1,25,-1
 129 0 l 1,26,-1
 -75 0 l 1,0,-1
EndSplineSet
Validated: 1
EndChar

StartChar: mu
Encoding: 956 956 487
Width: 1167
GlyphClass: 2
Flags: W
LayerCount: 2
Fore
SplineSet
253 1071 m 1,0,-1
 433 1071 l 1,1,-1
 295 424 l 2,2,3
 283 366 283 366 283 330 c 0,4,5
 283 136 283 136 482 136 c 0,6,7
 613 136 613 136 695 210 c 128,-1,8
 777 284 777 284 806 421 c 2,9,-1
 945 1071 l 1,10,-1
 1126 1071 l 1,11,-1
 953 257 l 2,12,13
 944 216 944 216 944 196 c 0,14,15
 944 167 944 167 959.5 153 c 128,-1,16
 975 139 975 139 1013 139 c 0,17,18
 1036 139 1036 139 1062 143 c 1,19,-1
 1031 -6 l 1,20,21
 978 -20 978 -20 926 -20 c 0,22,23
 847 -20 847 -20 802 15 c 128,-1,24
 757 50 757 50 757 125 c 1,25,26
 625 -30 625 -30 458 -30 c 0,27,28
 292 -30 292 -30 233 112 c 1,29,-1
 228 111 l 1,30,-1
 115 -423 l 1,31,-1
 -65 -424 l 1,32,-1
 253 1071 l 1,0,-1
EndSplineSet
Validated: 1
EndChar

StartChar: nu
Encoding: 957 957 488
Width: 1106
GlyphClass: 2
Flags: W
LayerCount: 2
Fore
SplineSet
1153 1074 m 1,0,1
 1005 598 1005 598 543 0 c 1,2,-1
 375 0 l 1,3,-1
 247 824 l 2,4,5
 235 899 235 899 211 917.5 c 128,-1,6
 187 936 187 936 153 936 c 0,7,8
 132 936 132 936 113 931 c 1,9,-1
 144 1076 l 1,10,11
 191 1090 191 1090 230 1090 c 0,12,13
 319 1090 319 1090 361 1059 c 128,-1,14
 403 1028 403 1028 414 947 c 2,15,-1
 519 209 l 1,16,17
 824 629 824 629 965 1074 c 1,18,-1
 1153 1074 l 1,0,1
EndSplineSet
Validated: 1
EndChar

StartChar: xi
Encoding: 958 958 489
Width: 976
GlyphClass: 2
Flags: W
LayerCount: 2
Fore
SplineSet
1121 1470 m 1,0,-1
 1089 1317 l 1,1,2
 1008 1324 1008 1324 922 1324 c 0,3,4
 667 1324 667 1324 553 1253 c 128,-1,5
 439 1182 439 1182 439 1051 c 0,6,7
 439 946 439 946 514 895.5 c 128,-1,8
 589 845 589 845 755 845 c 0,9,10
 806 845 806 845 868 850 c 1,11,-1
 835 694 l 1,12,13
 776 702 776 702 708 702 c 0,14,15
 469 702 469 702 350.5 624.5 c 128,-1,16
 232 547 232 547 232 408 c 0,17,18
 232 303 232 303 299.5 244.5 c 128,-1,19
 367 186 367 186 571 164 c 0,20,21
 717 148 717 148 772.5 106 c 128,-1,22
 828 64 828 64 828 -12 c 0,23,24
 828 -163 828 -163 656 -402 c 1,25,-1
 508 -402 l 1,26,27
 642 -196 642 -196 642 -84 c 0,28,29
 642 -50 642 -50 611 -28 c 128,-1,30
 580 -6 580 -6 502 0 c 0,31,32
 281 16 281 16 157.5 109.5 c 128,-1,33
 34 203 34 203 34 361 c 0,34,35
 34 532 34 532 147.5 641.5 c 128,-1,36
 261 751 261 751 443 785 c 1,37,-1
 444 789 l 1,38,39
 254 859 254 859 254 1025 c 0,40,41
 254 1127 254 1127 323 1208.5 c 128,-1,42
 392 1290 392 1290 490 1321 c 1,43,-1
 491 1326 l 1,44,-1
 306 1320 l 1,45,-1
 337 1470 l 1,46,-1
 1121 1470 l 1,0,-1
EndSplineSet
Validated: 1
EndChar

StartChar: pi
Encoding: 960 960 491
Width: 1251
GlyphClass: 2
Flags: W
LayerCount: 2
Fore
SplineSet
143 1071 m 1,0,-1
 318 1071 l 1,1,-1
 500 1071 l 1,2,-1
 959 1071 l 1,3,-1
 1145 1071 l 1,4,-1
 1324 1071 l 1,5,-1
 1290 914 l 1,6,-1
 1113 914 l 1,7,-1
 970 240 l 2,8,9
 965 215 965 215 965 201 c 0,10,11
 965 167 965 167 983.5 153 c 128,-1,12
 1002 139 1002 139 1037 139 c 0,13,14
 1068 139 1068 139 1112 148 c 1,15,-1
 1079 -10 l 1,16,17
 1017 -23 1017 -23 960 -23 c 0,18,19
 865 -23 865 -23 819.5 13.5 c 128,-1,20
 774 50 774 50 774 121 c 0,21,22
 774 165 774 165 788 229 c 2,23,-1
 933 914 l 1,24,-1
 461 914 l 1,25,-1
 267 0 l 1,26,-1
 87 0 l 1,27,-1
 281 914 l 1,28,-1
 109 914 l 1,29,-1
 143 1071 l 1,0,-1
EndSplineSet
Validated: 1
EndChar

StartChar: rho
Encoding: 961 961 492
Width: 1152
GlyphClass: 2
Flags: W
LayerCount: 2
Fore
SplineSet
-85 -424 m 1,0,-1
 132 599 l 2,1,2
 180 827 180 827 336 962.5 c 128,-1,3
 492 1098 492 1098 708 1098 c 0,4,5
 882 1098 882 1098 990 991 c 128,-1,6
 1098 884 1098 884 1098 715 c 0,7,8
 1098 420 1098 420 924.5 195 c 128,-1,9
 751 -30 751 -30 493 -30 c 0,10,11
 304 -30 304 -30 213 134 c 1,12,-1
 93 -424 l 1,13,-1
 -85 -424 l 1,0,-1
278 387 m 0,14,15
 278 270 278 270 336 198 c 128,-1,16
 394 126 394 126 501 126 c 0,17,18
 676 126 676 126 791.5 296 c 128,-1,19
 907 466 907 466 907 678 c 0,20,21
 907 793 907 793 846.5 866 c 128,-1,22
 786 939 786 939 680 939 c 0,23,24
 499 939 499 939 412.5 807.5 c 128,-1,25
 326 676 326 676 299 565 c 0,26,27
 278 481 278 481 278 387 c 0,14,15
EndSplineSet
Validated: 1
EndChar

StartChar: sigma1
Encoding: 962 962 493
Width: 1066
GlyphClass: 2
Flags: W
LayerCount: 2
Fore
SplineSet
865 677 m 1,0,1
 868 701 868 701 868 714 c 0,2,3
 868 822 868 822 815.5 881 c 128,-1,4
 763 940 763 940 657 940 c 0,5,6
 492 940 492 940 375.5 811 c 128,-1,7
 259 682 259 682 259 508 c 0,8,9
 259 382 259 382 322 310 c 128,-1,10
 385 238 385 238 551 192 c 0,11,12
 695 152 695 152 751.5 101.5 c 128,-1,13
 808 51 808 51 808 -38 c 0,14,15
 808 -180 808 -180 640 -402 c 1,16,-1
 495 -402 l 1,17,18
 627 -216 627 -216 627 -113 c 0,19,20
 627 -59 627 -59 595 -27.5 c 128,-1,21
 563 4 563 4 471 29 c 0,22,23
 258 89 258 89 160 193 c 128,-1,24
 62 297 62 297 62 470 c 0,25,26
 62 731 62 731 246.5 916.5 c 128,-1,27
 431 1102 431 1102 687 1102 c 0,28,29
 850 1102 850 1102 948.5 1011.5 c 128,-1,30
 1047 921 1047 921 1047 774 c 0,31,32
 1047 728 1047 728 1038 677 c 1,33,-1
 865 677 l 1,0,1
EndSplineSet
Validated: 1
EndChar

StartChar: sigma
Encoding: 963 963 494
Width: 1205
GlyphClass: 2
Flags: W
LayerCount: 2
Fore
SplineSet
1259 914 m 1,0,-1
 953 914 l 1,1,-1
 952 910 l 1,2,3
 1065 806 1065 806 1065 627 c 0,4,5
 1065 378 1065 378 892.5 174.5 c 128,-1,6
 720 -29 720 -29 459 -29 c 0,7,8
 279 -29 279 -29 169 84.5 c 128,-1,9
 59 198 59 198 59 378 c 0,10,11
 59 654 59 654 244 862.5 c 128,-1,12
 429 1071 429 1071 687 1071 c 2,13,-1
 1293 1071 l 1,14,-1
 1259 914 l 1,0,-1
661 914 m 0,15,16
 484 914 484 914 366 756.5 c 128,-1,17
 248 599 248 599 248 392 c 0,18,19
 248 271 248 271 311 199 c 128,-1,20
 374 127 374 127 474 127 c 0,21,22
 648 127 648 127 767.5 285 c 128,-1,23
 887 443 887 443 887 653 c 0,24,25
 887 769 887 769 826.5 841.5 c 128,-1,26
 766 914 766 914 661 914 c 0,15,16
EndSplineSet
Validated: 1
EndChar

StartChar: tau
Encoding: 964 964 495
Width: 992
GlyphClass: 2
Flags: W
LayerCount: 2
Fore
SplineSet
148 1071 m 1,0,-1
 495 1071 l 1,1,-1
 674 1071 l 1,2,-1
 1080 1071 l 1,3,-1
 1046 914 l 1,4,-1
 641 914 l 1,5,-1
 498 240 l 2,6,7
 494 221 494 221 494 201 c 0,8,9
 494 167 494 167 515 153 c 128,-1,10
 536 139 536 139 576 139 c 0,11,12
 610 139 610 139 661 148 c 1,13,-1
 628 -10 l 1,14,15
 563 -23 563 -23 501 -23 c 0,16,17
 400 -23 400 -23 351.5 13.5 c 128,-1,18
 303 50 303 50 303 121 c 0,19,20
 303 168 303 168 316 229 c 2,21,-1
 461 914 l 1,22,-1
 114 914 l 1,23,-1
 148 1071 l 1,0,-1
EndSplineSet
Validated: 1
EndChar

StartChar: upsilon
Encoding: 965 965 496
Width: 1127
GlyphClass: 2
Flags: W
LayerCount: 2
Fore
SplineSet
1067 1071 m 1,0,1
 1079 1006 1079 1006 1079 922 c 0,2,3
 1079 483 1079 483 925.5 226.5 c 128,-1,4
 772 -30 772 -30 460 -30 c 0,5,6
 396 -30 396 -30 335 -15 c 128,-1,7
 274 0 274 0 226 33 c 128,-1,8
 178 66 178 66 149 117.5 c 128,-1,9
 120 169 120 169 120 241 c 0,10,11
 120 295 120 295 128 333 c 2,12,-1
 232 822 l 2,13,14
 239 850 239 850 239 876 c 0,15,16
 239 908 239 908 223.5 922.5 c 128,-1,17
 208 937 208 937 177 937 c 0,18,19
 156 937 156 937 128 931 c 1,20,-1
 159 1076 l 1,21,22
 213 1090 213 1090 251 1090 c 0,23,24
 340 1090 340 1090 384 1051 c 128,-1,25
 428 1012 428 1012 428 934 c 0,26,27
 428 897 428 897 415 834 c 2,28,-1
 319 381 l 2,29,30
 309 334 309 334 309 295 c 0,31,32
 309 128 309 128 489 128 c 0,33,34
 684 128 684 128 790 330 c 128,-1,35
 896 532 896 532 896 876 c 0,36,37
 896 975 896 975 883 1071 c 1,38,-1
 1067 1071 l 1,0,1
EndSplineSet
Validated: 1
EndChar

StartChar: phi
Encoding: 966 966 497
Width: 1518
GlyphClass: 2
Flags: W
LayerCount: 2
Fore
SplineSet
553 -28 m 1,0,1
 322 -16 322 -16 193.5 108 c 128,-1,2
 65 232 65 232 65 438 c 0,3,4
 65 715 65 715 264 902.5 c 128,-1,5
 463 1090 463 1090 788 1095 c 1,6,-1
 792 1095 l 1,7,-1
 849 1363 l 1,8,-1
 1029 1363 l 1,9,-1
 972 1095 l 1,10,11
 1203 1083 1203 1083 1331.5 959 c 128,-1,12
 1460 835 1460 835 1460 629 c 0,13,14
 1460 352 1460 352 1261 164.5 c 128,-1,15
 1062 -23 1062 -23 737 -28 c 1,16,-1
 733 -28 l 1,17,-1
 649 -424 l 1,18,-1
 469 -424 l 1,19,-1
 553 -28 l 1,0,1
766 125 m 1,20,21
 995 131 995 131 1137 268 c 128,-1,22
 1279 405 1279 405 1279 607 c 0,23,24
 1279 757 1279 757 1187 849.5 c 128,-1,25
 1095 942 1095 942 939 942 c 1,26,-1
 766 125 l 1,20,21
759 942 m 1,27,28
 530 936 530 936 388 799 c 128,-1,29
 246 662 246 662 246 460 c 0,30,31
 246 310 246 310 338 217 c 0,32,33
 429 125 429 125 585 125 c 1,34,-1
 759 942 l 1,27,28
EndSplineSet
Validated: 1
EndChar

StartChar: chi
Encoding: 967 967 498
Width: 1196
GlyphClass: 2
Flags: W
LayerCount: 2
Fore
SplineSet
1025 1071 m 1,0,-1
 1240 1071 l 1,1,-1
 659 330 l 1,2,-1
 828 -210 l 2,3,4
 840 -248 840 -248 861.5 -264 c 128,-1,5
 883 -280 883 -280 920 -280 c 0,6,7
 952 -280 952 -280 983 -273 c 1,8,-1
 949 -431 l 1,9,10
 897 -442 897 -442 855 -442 c 0,11,12
 784 -442 784 -442 733 -407.5 c 128,-1,13
 682 -373 682 -373 657 -293 c 2,14,-1
 511 170 l 1,15,-1
 46 -424 l 1,16,-1
 -170 -424 l 1,17,-1
 450 364 l 1,18,-1
 302 837 l 2,19,20
 283 899 283 899 259 918.5 c 128,-1,21
 235 938 235 938 198 937 c 0,22,23
 174 937 174 937 147 932 c 1,24,-1
 178 1077 l 1,25,26
 244 1091 244 1091 288 1091 c 0,27,28
 351 1091 351 1091 393.5 1063.5 c 128,-1,29
 436 1036 436 1036 457 971 c 2,30,-1
 598 523 l 1,31,-1
 1025 1071 l 1,0,-1
EndSplineSet
Validated: 1
EndChar

StartChar: psi
Encoding: 968 968 499
Width: 1510
GlyphClass: 2
Flags: W
LayerCount: 2
Fore
SplineSet
844 1363 m 1,0,-1
 1024 1363 l 1,1,-1
 765 146 l 1,2,3
 953 152 953 152 1054 221.5 c 128,-1,4
 1155 291 1155 291 1196 480 c 2,5,-1
 1322 1071 l 1,6,-1
 1502 1071 l 1,7,-1
 1364 424 l 2,8,9
 1320 211 1320 211 1169.5 107 c 128,-1,10
 1019 3 1019 3 732 -8 c 1,11,-1
 644 -424 l 1,12,-1
 464 -424 l 1,13,-1
 552 -6 l 1,14,15
 96 19 96 19 96 323 c 0,16,17
 96 378 96 378 106 424 c 2,18,-1
 244 1071 l 1,19,-1
 423 1071 l 1,20,-1
 297 480 l 2,21,22
 281 403 281 403 281 344 c 0,23,24
 281 235 281 235 361.5 194 c 128,-1,25
 442 153 442 153 585 146 c 1,26,-1
 844 1363 l 1,0,-1
EndSplineSet
Validated: 1
EndChar

StartChar: omega
Encoding: 969 969 500
Width: 1530
GlyphClass: 2
Flags: W
LayerCount: 2
Fore
SplineSet
737 805 m 1,0,-1
 921 805 l 1,1,-1
 825 354 l 2,2,3
 817 316 817 316 817 276 c 0,4,5
 817 208 817 208 853 167.5 c 128,-1,6
 889 127 889 127 952 127 c 0,7,8
 1105 127 1105 127 1195.5 303.5 c 128,-1,9
 1286 480 1286 480 1286 684 c 256,10,11
 1286 888 1286 888 1201 1071 c 1,12,-1
 1385 1071 l 1,13,14
 1462 912 1462 912 1462 707 c 0,15,16
 1462 417 1462 417 1323 193 c 128,-1,17
 1184 -31 1184 -31 949 -31 c 0,18,19
 841 -31 841 -31 776.5 23.5 c 128,-1,20
 712 78 712 78 700 170 c 1,21,-1
 700 174 l 1,22,-1
 696 174 l 1,23,24
 654 79 654 79 570 24 c 128,-1,25
 486 -31 486 -31 386 -31 c 0,26,27
 236 -31 236 -31 148.5 67.5 c 128,-1,28
 61 166 61 166 61 322 c 0,29,30
 61 685 61 685 377 1071 c 1,31,-1
 575 1071 l 1,32,33
 250 696 250 696 250 361 c 0,34,35
 250 251 250 251 296 189 c 128,-1,36
 342 127 342 127 421 127 c 0,37,38
 506 127 506 127 562.5 188.5 c 128,-1,39
 619 250 619 250 641 354 c 2,40,-1
 737 805 l 1,0,-1
EndSplineSet
Validated: 1
EndChar

StartChar: theta1
Encoding: 977 977 506
Width: 1161
GlyphClass: 2
Flags: W
LayerCount: 2
Fore
SplineSet
919 837 m 1,0,1
 931 920 931 920 931 1048 c 0,2,3
 931 1177 931 1177 870.5 1255 c 128,-1,4
 810 1333 810 1333 692 1333 c 0,5,6
 565 1333 565 1333 483.5 1251.5 c 128,-1,7
 402 1170 402 1170 402 1056 c 256,8,9
 402 942 402 942 480 886 c 128,-1,10
 558 830 558 830 759 830 c 0,11,12
 853 830 853 830 919 837 c 1,0,1
278 564 m 1,13,14
 261 490 261 490 261 411 c 0,15,16
 261 274 261 274 324 200 c 128,-1,17
 387 126 387 126 493 126 c 0,18,19
 642 126 642 126 742 259.5 c 128,-1,20
 842 393 842 393 897 683 c 1,21,22
 829 675 829 675 720 675 c 0,23,24
 488 675 488 675 352.5 763 c 128,-1,25
 217 851 217 851 217 1035 c 256,26,27
 217 1219 217 1219 353 1352.5 c 128,-1,28
 489 1486 489 1486 707 1486 c 0,29,30
 915 1486 915 1486 1013.5 1365.5 c 128,-1,31
 1112 1245 1112 1245 1112 1038 c 0,32,33
 1112 958 1112 958 1102 857 c 1,34,35
 1146 861 1146 861 1206 871 c 1,36,-1
 1174 719 l 1,37,38
 1126 711 1126 711 1081 704 c 1,39,40
 1022 369 1022 369 870.5 169.5 c 128,-1,41
 719 -30 719 -30 486 -30 c 0,42,43
 291 -30 291 -30 180.5 84 c 128,-1,44
 70 198 70 198 70 389 c 0,45,46
 70 475 70 475 90 564 c 1,47,-1
 278 564 l 1,13,14
EndSplineSet
Validated: 1
EndChar

StartChar: Upsilon1
Encoding: 978 978 507
Width: 1294
GlyphClass: 2
Flags: W
LayerCount: 2
Fore
SplineSet
526 413 m 2,0,1
 562 582 562 582 562 773 c 256,2,3
 562 964 562 964 486.5 1126.5 c 128,-1,4
 411 1289 411 1289 198 1310 c 1,5,-1
 235 1481 l 1,6,7
 243 1482 243 1482 247 1482 c 0,8,9
 470 1482 470 1482 589 1318.5 c 128,-1,10
 708 1155 708 1155 712 842 c 1,11,-1
 716 842 l 1,12,13
 849 1154 849 1154 1042 1318 c 128,-1,14
 1235 1482 1235 1482 1438 1482 c 0,15,16
 1452 1482 1452 1482 1469 1481 c 1,17,-1
 1432 1310 l 1,18,19
 1169 1289 1169 1289 981.5 1019.5 c 128,-1,20
 794 750 794 750 724 413 c 2,21,-1
 636 0 l 1,22,-1
 438 0 l 1,23,-1
 526 413 l 2,0,1
EndSplineSet
Validated: 1
EndChar

StartChar: phi1
Encoding: 981 981 508
Width: 1496
GlyphClass: 2
Flags: W
LayerCount: 2
Fore
SplineSet
457 -424 m 1,0,-1
 543 -18 l 1,1,2
 316 2 316 2 186.5 122 c 128,-1,3
 57 242 57 242 57 462 c 0,4,5
 57 678 57 678 205.5 839.5 c 128,-1,6
 354 1001 354 1001 613 1067 c 1,7,-1
 579 906 l 1,8,9
 244 787 244 787 244 458 c 0,10,11
 244 303 244 303 336 221.5 c 128,-1,12
 428 140 428 140 576 136 c 1,13,-1
 777 1082 l 1,14,15
 824 1088 824 1088 867 1088 c 0,16,17
 917 1088 917 1088 963 1084 c 0,18,19
 1183 1066 1183 1066 1313.5 948 c 128,-1,20
 1444 830 1444 830 1444 623 c 0,21,22
 1444 340 1444 340 1242 163 c 128,-1,23
 1040 -14 1040 -14 723 -18 c 1,24,-1
 637 -424 l 1,25,-1
 457 -424 l 1,0,-1
756 135 m 1,26,27
 988 149 988 149 1123 270.5 c 128,-1,28
 1258 392 1258 392 1258 590 c 0,29,30
 1258 740 1258 740 1171 833.5 c 128,-1,31
 1084 927 1084 927 924 927 c 1,32,-1
 756 135 l 1,26,27
EndSplineSet
Validated: 1
EndChar

StartChar: omega1
Encoding: 982 982 509
Width: 1549
GlyphClass: 2
Flags: W
LayerCount: 2
Fore
SplineSet
1375 914 m 1,0,1
 1448 767 1448 767 1448 610 c 0,2,3
 1448 368 1448 368 1301.5 169 c 128,-1,4
 1155 -30 1155 -30 945 -30 c 0,5,6
 852 -30 852 -30 782 22.5 c 128,-1,7
 712 75 712 75 705 169 c 1,8,-1
 699 169 l 1,9,10
 660 83 660 83 576 26.5 c 128,-1,11
 492 -30 492 -30 390 -30 c 0,12,13
 251 -30 251 -30 165 66.5 c 128,-1,14
 79 163 79 163 79 312 c 0,15,16
 79 597 79 597 289 871 c 1,17,-1
 460 871 l 1,18,19
 264 585 264 585 264 356 c 0,20,21
 264 255 264 255 310 191.5 c 128,-1,22
 356 128 356 128 438 128 c 0,23,24
 512 128 512 128 566.5 181 c 128,-1,25
 621 234 621 234 642 336 c 2,26,-1
 729 744 l 1,27,-1
 909 744 l 1,28,-1
 822 336 l 2,29,30
 814 299 814 299 814 264 c 0,31,32
 814 201 814 201 847 164.5 c 128,-1,33
 880 128 880 128 946 128 c 0,34,35
 1087 128 1087 128 1179 277.5 c 128,-1,36
 1271 427 1271 427 1271 612 c 0,37,38
 1271 764 1271 764 1199 914 c 1,39,-1
 142 914 l 1,40,-1
 176 1071 l 1,41,-1
 1552 1071 l 1,42,-1
 1518 914 l 1,43,-1
 1375 914 l 1,0,1
EndSplineSet
Validated: 1
EndChar

StartChar: uni0402
Encoding: 1026 1026 512
Width: 1600
GlyphClass: 2
Flags: W
LayerCount: 2
Fore
SplineSet
195 1294 m 1,0,-1
 232 1470 l 1,1,-1
 710 1470 l 1,2,-1
 908 1470 l 1,3,-1
 1436 1470 l 1,4,-1
 1399 1294 l 1,5,-1
 871 1294 l 1,6,-1
 778 855 l 1,7,-1
 1102 855 l 2,8,9
 1313 855 1313 855 1429.5 771.5 c 128,-1,10
 1546 688 1546 688 1546 524 c 0,11,12
 1546 291 1546 291 1380 145.5 c 128,-1,13
 1214 0 1214 0 955 0 c 2,14,-1
 836 0 l 1,15,-1
 873 174 l 1,16,-1
 962 174 l 2,17,18
 1141 174 1141 174 1239 258 c 128,-1,19
 1337 342 1337 342 1337 483 c 0,20,21
 1337 582 1337 582 1270 631.5 c 128,-1,22
 1203 681 1203 681 1041 681 c 2,23,-1
 741 681 l 1,24,-1
 596 0 l 1,25,-1
 397 0 l 1,26,-1
 672 1294 l 1,27,-1
 195 1294 l 1,0,-1
EndSplineSet
Validated: 1
EndChar

StartChar: uni0404
Encoding: 1028 1028 514
Width: 1474
GlyphClass: 2
Flags: W
LayerCount: 2
Fore
SplineSet
1301 1036 m 1,0,1
 1301 1185 1301 1185 1201 1261.5 c 128,-1,2
 1101 1338 1101 1338 941 1338 c 0,3,4
 715 1338 715 1338 567 1194.5 c 128,-1,5
 419 1051 419 1051 357 853 c 1,6,-1
 1076 853 l 1,7,-1
 1040 684 l 1,8,-1
 316 684 l 1,9,10
 308 624 308 624 308 563 c 0,11,12
 308 355 308 355 397.5 248 c 128,-1,13
 487 141 487 141 674 141 c 0,14,15
 854 141 854 141 989.5 238.5 c 128,-1,16
 1125 336 1125 336 1206 523 c 1,17,-1
 1396 523 l 1,18,19
 1296 250 1296 250 1107.5 110 c 128,-1,20
 919 -30 919 -30 659 -30 c 0,21,22
 395 -30 395 -30 252 122 c 128,-1,23
 109 274 109 274 109 547 c 0,24,25
 109 922 109 922 337.5 1215.5 c 128,-1,26
 566 1509 566 1509 964 1509 c 0,27,28
 1195 1509 1195 1509 1343.5 1395 c 128,-1,29
 1492 1281 1492 1281 1492 1079 c 0,30,31
 1492 1065 1492 1065 1490 1036 c 1,32,-1
 1301 1036 l 1,0,1
EndSplineSet
Validated: 1
EndChar

StartChar: uni0409
Encoding: 1033 1033 519
Width: 2157
GlyphClass: 2
Flags: W
LayerCount: 2
Fore
SplineSet
1306 860 m 1,0,-1
 1656 860 l 2,1,2
 1867 860 1867 860 1983.5 776 c 128,-1,3
 2100 692 2100 692 2100 527 c 0,4,5
 2100 292 2100 292 1934 146 c 128,-1,6
 1768 0 1768 0 1509 0 c 2,7,-1
 1122 0 l 1,8,-1
 926 0 l 1,9,-1
 1201 1299 l 1,10,-1
 815 1299 l 1,11,12
 642 622 642 622 447 304 c 128,-1,13
 252 -14 252 -14 -50 -14 c 0,14,15
 -61 -14 -61 -14 -83 -13 c 1,16,-1
 -42 180 l 1,17,18
 -31 179 -31 179 -23 179 c 0,19,20
 167 179 167 179 325 449.5 c 128,-1,21
 483 720 483 720 671 1470 c 1,22,-1
 855 1470 l 1,23,-1
 1239 1470 l 1,24,-1
 1435 1470 l 1,25,-1
 1306 860 l 1,0,-1
1161 174 m 1,26,-1
 1516 174 l 2,27,28
 1695 174 1695 174 1793 259 c 128,-1,29
 1891 344 1891 344 1891 486 c 0,30,31
 1891 586 1891 586 1824 636 c 128,-1,32
 1757 686 1757 686 1595 686 c 2,33,-1
 1269 686 l 1,34,-1
 1161 174 l 1,26,-1
EndSplineSet
Validated: 1
EndChar

StartChar: uni040A
Encoding: 1034 1034 520
Width: 2104
GlyphClass: 2
Flags: W
LayerCount: 2
Fore
SplineSet
1303 860 m 1,0,-1
 1608 860 l 2,1,2
 1819 860 1819 860 1935.5 776 c 128,-1,3
 2052 692 2052 692 2052 527 c 0,4,5
 2052 292 2052 292 1886 146 c 128,-1,6
 1720 0 1720 0 1461 0 c 2,7,-1
 1122 0 l 1,8,-1
 921 0 l 1,9,-1
 1067 686 l 1,10,-1
 399 686 l 1,11,-1
 253 0 l 1,12,-1
 55 0 l 1,13,-1
 367 1470 l 1,14,-1
 565 1470 l 1,15,-1
 436 862 l 1,16,-1
 1104 862 l 1,17,-1
 1233 1470 l 1,18,-1
 1432 1470 l 1,19,-1
 1303 860 l 1,0,-1
1158 174 m 1,20,-1
 1468 174 l 2,21,22
 1647 174 1647 174 1745 259 c 128,-1,23
 1843 344 1843 344 1843 486 c 0,24,25
 1843 586 1843 586 1776 636 c 128,-1,26
 1709 686 1709 686 1547 686 c 2,27,-1
 1266 686 l 1,28,-1
 1158 174 l 1,20,-1
EndSplineSet
Validated: 1
EndChar

StartChar: uni040B
Encoding: 1035 1035 521
Width: 1601
GlyphClass: 2
Flags: W
LayerCount: 2
Fore
SplineSet
773 832 m 1,0,1
 970 861 970 861 1100 861 c 0,2,3
 1295 861 1295 861 1399 788.5 c 128,-1,4
 1503 716 1503 716 1503 560 c 0,5,6
 1503 500 1503 500 1486 423 c 2,7,-1
 1396 0 l 1,8,-1
 1196 0 l 1,9,-1
 1278 384 l 2,10,11
 1292 454 1292 454 1292 504 c 0,12,13
 1292 605 1292 605 1230.5 645 c 128,-1,14
 1169 685 1169 685 1042 685 c 0,15,16
 921 685 921 685 736 659 c 1,17,-1
 596 0 l 1,18,-1
 397 0 l 1,19,-1
 672 1294 l 1,20,-1
 195 1294 l 1,21,-1
 232 1470 l 1,22,-1
 710 1470 l 1,23,-1
 908 1470 l 1,24,-1
 1436 1470 l 1,25,-1
 1399 1294 l 1,26,-1
 871 1294 l 1,27,-1
 773 832 l 1,0,1
EndSplineSet
Validated: 1
EndChar

StartChar: uni040E
Encoding: 1038 1038 524
Width: 1265
GlyphClass: 2
Flags: W
LayerCount: 2
Fore
SplineSet
443 1470 m 1,0,-1
 685 582 l 1,1,-1
 1238 1470 l 1,2,-1
 1458 1470 l 1,3,-1
 655 237 l 2,4,5
 563 95 563 95 466.5 43 c 128,-1,6
 370 -9 370 -9 205 -9 c 0,7,8
 137 -9 137 -9 76 3 c 1,9,-1
 111 170 l 1,10,11
 172 160 172 160 221 160 c 0,12,13
 325 160 325 160 393.5 199.5 c 128,-1,14
 462 239 462 239 529 338 c 2,15,-1
 548 366 l 1,16,-1
 227 1470 l 1,17,-1
 443 1470 l 1,0,-1
557 1892 m 1,18,-1
 714 1892 l 1,19,20
 725 1725 725 1725 899 1725 c 0,21,22
 1074 1725 1074 1725 1154 1892 c 1,23,-1
 1317 1892 l 1,24,25
 1262 1745 1262 1745 1149.5 1663 c 128,-1,26
 1037 1581 1037 1581 881 1581 c 0,27,28
 731 1581 731 1581 643.5 1656 c 128,-1,29
 556 1731 556 1731 556 1867 c 0,30,31
 556 1873 556 1873 557 1892 c 1,18,-1
EndSplineSet
Validated: 1
EndChar

StartChar: uni040F
Encoding: 1039 1039 525
Width: 1442
GlyphClass: 2
Flags: W
LayerCount: 2
Fore
SplineSet
250 0 m 1,0,-1
 55 0 l 1,1,-1
 367 1470 l 1,2,-1
 566 1470 l 1,3,-1
 291 176 l 1,4,-1
 1005 176 l 1,5,-1
 1280 1470 l 1,6,-1
 1479 1470 l 1,7,-1
 1167 0 l 1,8,-1
 969 0 l 1,9,-1
 706 0 l 1,10,-1
 621 -400 l 1,11,-1
 431 -400 l 1,12,-1
 516 0 l 1,13,-1
 250 0 l 1,0,-1
EndSplineSet
Validated: 1
EndChar

StartChar: uni0411
Encoding: 1041 1041 527
Width: 1367
GlyphClass: 2
Flags: W
LayerCount: 2
Fore
SplineSet
367 1470 m 1,0,-1
 564 1470 l 1,1,-1
 1390 1470 l 1,2,-1
 1353 1294 l 1,3,-1
 528 1294 l 1,4,-1
 439 875 l 1,5,-1
 844 875 l 2,6,7
 1055 875 1055 875 1171.5 790.5 c 128,-1,8
 1288 706 1288 706 1288 538 c 0,9,10
 1288 299 1288 299 1117 149.5 c 128,-1,11
 946 0 946 0 697 0 c 2,12,-1
 252 0 l 1,13,-1
 55 0 l 1,14,-1
 367 1470 l 1,0,-1
290 174 m 1,15,-1
 704 174 l 2,16,17
 873 174 873 174 976 262.5 c 128,-1,18
 1079 351 1079 351 1079 497 c 0,19,20
 1079 600 1079 600 1012 650.5 c 128,-1,21
 945 701 945 701 783 701 c 2,22,-1
 402 701 l 1,23,-1
 290 174 l 1,15,-1
EndSplineSet
Validated: 1
EndChar

StartChar: uni0414
Encoding: 1044 1044 530
Width: 1496
GlyphClass: 2
Flags: W
LayerCount: 2
Fore
SplineSet
-63 176 m 1,0,-1
 40 176 l 1,1,2
 463 603 463 603 662 1470 c 1,3,-1
 855 1470 l 1,4,-1
 1287 1470 l 1,5,-1
 1488 1470 l 1,6,-1
 1213 176 l 1,7,-1
 1383 176 l 1,8,-1
 1261 -400 l 1,9,-1
 1071 -400 l 1,10,-1
 1156 0 l 1,11,-1
 971 0 l 1,12,-1
 90 0 l 1,13,-1
 5 -400 l 1,14,-1
 -185 -400 l 1,15,-1
 -63 176 l 1,0,-1
816 1294 m 1,16,17
 611 576 611 576 281 176 c 1,18,-1
 1013 176 l 1,19,-1
 1251 1294 l 1,20,-1
 816 1294 l 1,16,17
EndSplineSet
Validated: 1
EndChar

StartChar: uni0416
Encoding: 1046 1046 532
Width: 2058
GlyphClass: 2
Flags: W
LayerCount: 2
Fore
SplineSet
1196 847 m 1,0,-1
 1415 847 l 2,1,2
 1545 847 1545 847 1613 886.5 c 128,-1,3
 1681 926 1681 926 1713 1030 c 2,4,-1
 1789 1281 l 2,5,6
 1823 1393 1823 1393 1887.5 1442.5 c 128,-1,7
 1952 1492 1952 1492 2070 1492 c 0,8,9
 2134 1492 2134 1492 2202 1482 c 1,10,-1
 2165 1310 l 1,11,12
 2116 1318 2116 1318 2085 1318 c 0,13,14
 2032 1318 2032 1318 2002.5 1291 c 128,-1,15
 1973 1264 1973 1264 1951 1198 c 2,16,-1
 1894 1023 l 2,17,18
 1829 824 1829 824 1641 769 c 1,19,-1
 1640 766 l 1,20,21
 1729 740 1729 740 1764.5 684 c 128,-1,22
 1800 628 1800 628 1800 534 c 0,23,24
 1800 507 1800 507 1794 452 c 2,25,-1
 1774 267 l 2,26,27
 1771 244 1771 244 1771 227 c 0,28,29
 1771 185 1771 185 1789.5 168.5 c 128,-1,30
 1808 152 1808 152 1850 152 c 0,31,32
 1882 152 1882 152 1932 160 c 1,33,-1
 1897 -6 l 1,34,35
 1833 -16 1833 -16 1786 -16 c 0,36,37
 1673 -16 1673 -16 1621 29.5 c 128,-1,38
 1569 75 1569 75 1569 157 c 0,39,40
 1569 177 1569 177 1572 200 c 2,41,-1
 1609 491 l 2,42,43
 1612 510 1612 510 1612 529 c 0,44,45
 1612 608 1612 608 1560 647 c 128,-1,46
 1508 686 1508 686 1393 686 c 2,47,-1
 1161 686 l 1,48,-1
 1016 0 l 1,49,-1
 826 0 l 1,50,-1
 972 686 l 1,51,-1
 738 686 l 2,52,53
 612 686 612 686 540 637.5 c 128,-1,54
 468 589 468 589 439 491 c 2,55,-1
 354 200 l 2,56,57
 319 84 319 84 243.5 34 c 128,-1,58
 168 -16 168 -16 52 -16 c 0,59,60
 4 -16 4 -16 -61 -6 c 1,61,-1
 -26 160 l 1,62,63
 14 152 14 152 48 152 c 0,64,65
 98 152 98 152 124.5 177 c 128,-1,66
 151 202 151 202 172 267 c 2,67,-1
 232 455 l 2,68,69
 281 609 281 609 351.5 677.5 c 128,-1,70
 422 746 422 746 524 772 c 1,71,-1
 525 775 l 1,72,73
 380 824 380 824 380 985 c 0,74,75
 380 1006 380 1006 382 1026 c 2,76,-1
 399 1198 l 2,77,78
 401 1219 401 1219 401 1231 c 0,79,80
 401 1280 401 1280 378.5 1299 c 128,-1,81
 356 1318 356 1318 315 1318 c 0,82,83
 282 1318 282 1318 229 1310 c 1,84,-1
 266 1482 l 1,85,86
 344 1492 344 1492 392 1492 c 0,87,88
 498 1492 498 1492 545 1449 c 128,-1,89
 592 1406 592 1406 592 1330 c 0,90,91
 592 1306 592 1306 589 1281 c 2,92,-1
 559 1030 l 2,93,94
 557 1011 557 1011 557 994 c 0,95,96
 557 921 557 921 601.5 884 c 128,-1,97
 646 847 646 847 779 847 c 2,98,-1
 1006 847 l 1,99,-1
 1138 1470 l 1,100,-1
 1328 1470 l 1,101,-1
 1196 847 l 1,0,-1
EndSplineSet
Validated: 1
EndChar

StartChar: uni0417
Encoding: 1047 1047 533
Width: 1305
GlyphClass: 2
Flags: W
LayerCount: 2
Fore
SplineSet
522 851 m 1,0,-1
 751 851 l 2,1,2
 915 851 915 851 998 922.5 c 128,-1,3
 1081 994 1081 994 1081 1127 c 0,4,5
 1081 1227 1081 1227 1010 1280 c 128,-1,6
 939 1333 939 1333 814 1333 c 0,7,8
 663 1333 663 1333 557 1269 c 128,-1,9
 451 1205 451 1205 412 1076 c 1,10,-1
 220 1076 l 1,11,12
 278 1284 278 1284 438 1396.5 c 128,-1,13
 598 1509 598 1509 836 1509 c 0,14,15
 1030 1509 1030 1509 1159.5 1417.5 c 128,-1,16
 1289 1326 1289 1326 1289 1167 c 0,17,18
 1289 1041 1289 1041 1213 940.5 c 128,-1,19
 1137 840 1137 840 1024 793 c 1,20,-1
 1023 791 l 1,21,22
 1218 720 1218 720 1218 496 c 0,23,24
 1218 269 1218 269 1016 119.5 c 128,-1,25
 814 -30 814 -30 533 -30 c 0,26,27
 303 -30 303 -30 174.5 63.5 c 128,-1,28
 46 157 46 157 46 330 c 0,29,30
 46 380 46 380 55 423 c 1,31,-1
 248 423 l 1,32,33
 246 402 246 402 246 384 c 0,34,35
 246 262 246 262 326 204 c 128,-1,36
 406 146 406 146 559 146 c 0,37,38
 747 146 747 146 880.5 240.5 c 128,-1,39
 1014 335 1014 335 1014 490 c 0,40,41
 1014 590 1014 590 951 637 c 128,-1,42
 888 684 888 684 737 684 c 2,43,-1
 486 684 l 1,44,-1
 522 851 l 1,0,-1
EndSplineSet
Validated: 1
EndChar

StartChar: uni0418
Encoding: 1048 1048 534
Width: 1518
GlyphClass: 2
Flags: W
LayerCount: 2
Fore
SplineSet
1357 1470 m 1,0,-1
 1555 1470 l 1,1,-1
 1243 0 l 1,2,-1
 1045 0 l 1,3,-1
 1271 1064 l 1,4,-1
 1263 1064 l 1,5,-1
 285 149 l 1,6,-1
 253 0 l 1,7,-1
 55 0 l 1,8,-1
 367 1470 l 1,9,-1
 565 1470 l 1,10,-1
 341 413 l 1,11,-1
 349 413 l 1,12,-1
 1327 1328 l 1,13,-1
 1357 1470 l 1,0,-1
EndSplineSet
Validated: 1
EndChar

StartChar: uni0419
Encoding: 1049 1049 535
Width: 1518
GlyphClass: 2
Flags: W
LayerCount: 2
Fore
SplineSet
1357 1470 m 1,0,-1
 1555 1470 l 1,1,-1
 1243 0 l 1,2,-1
 1045 0 l 1,3,-1
 1271 1064 l 1,4,-1
 1263 1064 l 1,5,-1
 285 149 l 1,6,-1
 253 0 l 1,7,-1
 55 0 l 1,8,-1
 367 1470 l 1,9,-1
 565 1470 l 1,10,-1
 341 413 l 1,11,-1
 349 413 l 1,12,-1
 1327 1328 l 1,13,-1
 1357 1470 l 1,0,-1
672 1892 m 1,14,-1
 829 1892 l 1,15,16
 840 1725 840 1725 1014 1725 c 0,17,18
 1189 1725 1189 1725 1269 1892 c 1,19,-1
 1432 1892 l 1,20,21
 1377 1745 1377 1745 1264.5 1663 c 128,-1,22
 1152 1581 1152 1581 996 1581 c 0,23,24
 846 1581 846 1581 758.5 1656 c 128,-1,25
 671 1731 671 1731 671 1867 c 0,26,27
 671 1873 671 1873 672 1892 c 1,14,-1
EndSplineSet
Validated: 1
EndChar

StartChar: uni041A
Encoding: 1050 1050 536
Width: 1432
GlyphClass: 2
Flags: W
LayerCount: 2
Fore
SplineSet
565 1470 m 1,0,-1
 433 849 l 1,1,-1
 789 849 l 2,2,3
 919 849 919 849 987 887.5 c 128,-1,4
 1055 926 1055 926 1087 1030 c 2,5,-1
 1163 1281 l 2,6,7
 1197 1393 1197 1393 1261.5 1442.5 c 128,-1,8
 1326 1492 1326 1492 1444 1492 c 0,9,10
 1508 1492 1508 1492 1576 1482 c 1,11,-1
 1539 1310 l 1,12,13
 1490 1318 1490 1318 1459 1318 c 0,14,15
 1406 1318 1406 1318 1377.5 1291 c 128,-1,16
 1349 1264 1349 1264 1327 1198 c 2,17,-1
 1270 1023 l 2,18,19
 1205 824 1205 824 1015 769 c 1,20,-1
 1014 766 l 1,21,22
 1103 740 1103 740 1139.5 684 c 128,-1,23
 1176 628 1176 628 1176 534 c 0,24,25
 1176 507 1176 507 1170 452 c 2,26,-1
 1150 267 l 2,27,28
 1147 244 1147 244 1147 227 c 0,29,30
 1147 185 1147 185 1164.5 168.5 c 128,-1,31
 1182 152 1182 152 1224 152 c 0,32,33
 1256 152 1256 152 1306 160 c 1,34,-1
 1271 -6 l 1,35,36
 1207 -16 1207 -16 1160 -16 c 0,37,38
 1047 -16 1047 -16 995 29.5 c 128,-1,39
 943 75 943 75 943 157 c 0,40,41
 943 177 943 177 946 200 c 2,42,-1
 983 491 l 2,43,44
 986 510 986 510 986 529 c 0,45,46
 986 608 986 608 934 645.5 c 128,-1,47
 882 683 882 683 767 683 c 2,48,-1
 398 683 l 1,49,-1
 253 0 l 1,50,-1
 55 0 l 1,51,-1
 367 1470 l 1,52,-1
 565 1470 l 1,0,-1
EndSplineSet
Validated: 1
EndChar

StartChar: uni041B
Encoding: 1051 1051 537
Width: 1433
GlyphClass: 2
Flags: W
LayerCount: 2
Fore
SplineSet
960 0 m 1,0,-1
 1236 1299 l 1,1,-1
 815 1299 l 1,2,3
 642 622 642 622 447 304 c 128,-1,4
 252 -14 252 -14 -50 -14 c 0,5,6
 -61 -14 -61 -14 -83 -13 c 1,7,-1
 -42 180 l 1,8,9
 -31 179 -31 179 -23 179 c 0,10,11
 167 179 167 179 325 449.5 c 128,-1,12
 483 720 483 720 671 1470 c 1,13,-1
 851 1470 l 1,14,-1
 1273 1470 l 1,15,-1
 1470 1470 l 1,16,-1
 1158 0 l 1,17,-1
 960 0 l 1,0,-1
EndSplineSet
Validated: 1
EndChar

StartChar: uni0423
Encoding: 1059 1059 545
Width: 1265
GlyphClass: 2
Flags: W
LayerCount: 2
Fore
SplineSet
442 1470 m 1,0,-1
 685 582 l 1,1,-1
 1238 1470 l 1,2,-1
 1458 1470 l 1,3,-1
 655 237 l 2,4,5
 563 95 563 95 466.5 43 c 128,-1,6
 370 -9 370 -9 205 -9 c 0,7,8
 137 -9 137 -9 76 3 c 1,9,-1
 111 170 l 1,10,11
 172 160 172 160 221 160 c 0,12,13
 325 160 325 160 393.5 199.5 c 128,-1,14
 462 239 462 239 529 338 c 2,15,-1
 550 370 l 1,16,-1
 227 1470 l 1,17,-1
 442 1470 l 1,0,-1
EndSplineSet
Validated: 1
EndChar

StartChar: uni0424
Encoding: 1060 1060 546
Width: 1726
GlyphClass: 2
Flags: W
LayerCount: 2
Fore
SplineSet
1166 1509 m 1,0,-1
 1119 1288 l 1,1,-1
 1299 1288 l 2,2,3
 1503 1288 1503 1288 1613.5 1201 c 128,-1,4
 1724 1114 1724 1114 1724 936 c 0,5,6
 1724 667 1724 667 1589 442 c 128,-1,7
 1454 217 1454 217 1112 217 c 2,8,-1
 891 217 l 1,9,-1
 841 -20 l 1,10,-1
 657 -20 l 1,11,-1
 707 217 l 1,12,-1
 527 217 l 2,13,14
 323 217 323 217 212.5 304 c 128,-1,15
 102 391 102 391 102 569 c 0,16,17
 102 838 102 838 237 1063 c 128,-1,18
 372 1288 372 1288 714 1288 c 2,19,-1
 935 1288 l 1,20,-1
 982 1509 l 1,21,-1
 1166 1509 l 1,0,-1
903 1128 m 1,22,-1
 901 1128 l 1,23,-1
 732 1129 l 2,24,25
 478 1129 478 1129 385.5 962.5 c 128,-1,26
 293 796 293 796 293 607 c 0,27,28
 293 483 293 483 361 430 c 128,-1,29
 429 377 429 377 572 377 c 2,30,-1
 743 377 l 1,31,-1
 903 1128 l 1,22,-1
923 377 m 1,32,-1
 925 377 l 1,33,-1
 1094 376 l 2,34,35
 1348 376 1348 376 1440.5 542.5 c 128,-1,36
 1533 709 1533 709 1533 898 c 0,37,38
 1533 1022 1533 1022 1465 1075 c 128,-1,39
 1397 1128 1397 1128 1254 1128 c 2,40,-1
 1083 1128 l 1,41,-1
 923 377 l 1,32,-1
EndSplineSet
Validated: 1
EndChar

StartChar: uni0426
Encoding: 1062 1062 548
Width: 1477
GlyphClass: 2
Flags: W
LayerCount: 2
Fore
SplineSet
1194 176 m 1,0,-1
 1364 176 l 1,1,-1
 1242 -401 l 1,2,-1
 1052 -401 l 1,3,-1
 1137 0 l 1,4,-1
 958 0 l 1,5,-1
 256 0 l 1,6,-1
 55 0 l 1,7,-1
 367 1470 l 1,8,-1
 566 1470 l 1,9,-1
 291 176 l 1,10,-1
 995 176 l 1,11,-1
 1270 1470 l 1,12,-1
 1469 1470 l 1,13,-1
 1194 176 l 1,0,-1
EndSplineSet
Validated: 1
EndChar

StartChar: uni0427
Encoding: 1063 1063 549
Width: 1319
GlyphClass: 2
Flags: W
LayerCount: 2
Fore
SplineSet
977 622 m 1,0,1
 782 588 782 588 619 588 c 0,2,3
 406 588 406 588 298.5 666 c 128,-1,4
 191 744 191 744 191 902 c 0,5,6
 191 966 191 966 206 1039 c 2,7,-1
 297 1469 l 1,8,-1
 497 1469 l 1,9,-1
 411 1062 l 2,10,11
 397 995 397 995 397 949 c 0,12,13
 397 852 397 852 455 808 c 128,-1,14
 513 764 513 764 688 764 c 0,15,16
 864 764 864 764 1013 791 c 1,17,-1
 1157 1469 l 1,18,-1
 1356 1469 l 1,19,-1
 1044 -1 l 1,20,-1
 845 -1 l 1,21,-1
 977 622 l 1,0,1
EndSplineSet
Validated: 1
EndChar

StartChar: uni0428
Encoding: 1064 1064 550
Width: 2023
GlyphClass: 2
Flags: W
LayerCount: 2
Fore
SplineSet
1590 176 m 1,0,-1
 1865 1470 l 1,1,-1
 2060 1470 l 1,2,-1
 1748 0 l 1,3,-1
 1553 0 l 1,4,-1
 999 0 l 1,5,-1
 805 0 l 1,6,-1
 250 0 l 1,7,-1
 55 0 l 1,8,-1
 367 1470 l 1,9,-1
 562 1470 l 1,10,-1
 287 176 l 1,11,-1
 841 176 l 1,12,-1
 1116 1470 l 1,13,-1
 1311 1470 l 1,14,-1
 1036 176 l 1,15,-1
 1590 176 l 1,0,-1
EndSplineSet
Validated: 1
EndChar

StartChar: uni0429
Encoding: 1065 1065 551
Width: 2042
GlyphClass: 2
Flags: W
LayerCount: 2
Fore
SplineSet
1565 177 m 1,0,-1
 1840 1471 l 1,1,-1
 2035 1471 l 1,2,-1
 1760 177 l 1,3,-1
 1930 177 l 1,4,-1
 1807 -400 l 1,5,-1
 1617 -400 l 1,6,-1
 1702 1 l 1,7,-1
 1527 1 l 1,8,-1
 998 0 l 1,9,-1
 793 0 l 1,10,-1
 256 0 l 1,11,-1
 55 0 l 1,12,-1
 367 1470 l 1,13,-1
 562 1470 l 1,14,-1
 287 176 l 1,15,-1
 829 177 l 1,16,-1
 1104 1471 l 1,17,-1
 1299 1471 l 1,18,-1
 1024 177 l 1,19,-1
 1565 177 l 1,0,-1
EndSplineSet
Validated: 1
EndChar

StartChar: uni042A
Encoding: 1066 1066 552
Width: 1685
GlyphClass: 2
Flags: W
LayerCount: 2
Fore
SplineSet
787 875 m 1,0,-1
 1192 875 l 2,1,2
 1403 875 1403 875 1519.5 789.5 c 128,-1,3
 1636 704 1636 704 1636 536 c 0,4,5
 1636 297 1636 297 1470 148.5 c 128,-1,6
 1304 0 1304 0 1045 0 c 2,7,-1
 603 0 l 1,8,-1
 402 0 l 1,9,-1
 677 1295 l 1,10,-1
 195 1295 l 1,11,-1
 232 1470 l 1,12,-1
 713 1470 l 1,13,-1
 913 1470 l 1,14,-1
 787 875 l 1,0,-1
638 174 m 1,15,-1
 1052 174 l 2,16,17
 1231 174 1231 174 1329 261.5 c 128,-1,18
 1427 349 1427 349 1427 495 c 0,19,20
 1427 598 1427 598 1360 649.5 c 128,-1,21
 1293 701 1293 701 1131 701 c 2,22,-1
 750 701 l 1,23,-1
 638 174 l 1,15,-1
EndSplineSet
Validated: 1
EndChar

StartChar: uni042B
Encoding: 1067 1067 553
Width: 1801
GlyphClass: 2
Flags: W
LayerCount: 2
Fore
SplineSet
439 875 m 1,0,-1
 799 875 l 2,1,2
 1010 875 1010 875 1126.5 789.5 c 128,-1,3
 1243 704 1243 704 1243 536 c 0,4,5
 1243 297 1243 297 1077 148.5 c 128,-1,6
 911 0 911 0 652 0 c 2,7,-1
 256 0 l 1,8,-1
 55 0 l 1,9,-1
 367 1470 l 1,10,-1
 565 1470 l 1,11,-1
 439 875 l 1,0,-1
290 174 m 1,12,-1
 659 174 l 2,13,14
 838 174 838 174 936 261.5 c 128,-1,15
 1034 349 1034 349 1034 495 c 0,16,17
 1034 598 1034 598 967 649.5 c 128,-1,18
 900 701 900 701 738 701 c 2,19,-1
 402 701 l 1,20,-1
 290 174 l 1,12,-1
1526 0 m 1,21,-1
 1327 0 l 1,22,-1
 1639 1470 l 1,23,-1
 1838 1470 l 1,24,-1
 1526 0 l 1,21,-1
EndSplineSet
Validated: 1
EndChar

StartChar: uni042C
Encoding: 1068 1068 554
Width: 1337
GlyphClass: 2
Flags: W
LayerCount: 2
Fore
SplineSet
439 875 m 1,0,-1
 844 875 l 2,1,2
 1055 875 1055 875 1171.5 789.5 c 128,-1,3
 1288 704 1288 704 1288 536 c 0,4,5
 1288 297 1288 297 1122 148.5 c 128,-1,6
 956 0 956 0 697 0 c 2,7,-1
 252 0 l 1,8,-1
 55 0 l 1,9,-1
 367 1470 l 1,10,-1
 565 1470 l 1,11,-1
 439 875 l 1,0,-1
290 174 m 1,12,-1
 704 174 l 2,13,14
 883 174 883 174 981 261.5 c 128,-1,15
 1079 349 1079 349 1079 495 c 0,16,17
 1079 598 1079 598 1012 649.5 c 128,-1,18
 945 701 945 701 783 701 c 2,19,-1
 402 701 l 1,20,-1
 290 174 l 1,12,-1
EndSplineSet
Validated: 1
EndChar

StartChar: uni042D
Encoding: 1069 1069 555
Width: 1480
GlyphClass: 2
Flags: W
LayerCount: 2
Fore
SplineSet
546 852 m 1,0,-1
 1264 852 l 1,1,2
 1266 883 1266 883 1266 915 c 0,3,4
 1266 1134 1266 1134 1173.5 1236 c 128,-1,5
 1081 1338 1081 1338 881 1338 c 0,6,7
 531 1338 531 1338 397 1033 c 1,8,-1
 210 1033 l 1,9,10
 280 1258 280 1258 461.5 1383.5 c 128,-1,11
 643 1509 643 1509 909 1509 c 0,12,13
 1183 1509 1183 1509 1324 1361.5 c 128,-1,14
 1465 1214 1465 1214 1465 926 c 0,15,16
 1465 544 1465 544 1233.5 257 c 128,-1,17
 1002 -30 1002 -30 623 -30 c 0,18,19
 371 -30 371 -30 228 101 c 128,-1,20
 85 232 85 232 85 475 c 0,21,22
 85 492 85 492 87 526 c 1,23,-1
 280 526 l 1,24,25
 280 336 280 336 372 238.5 c 128,-1,26
 464 141 464 141 635 141 c 0,27,28
 877 141 877 141 1027.5 299.5 c 128,-1,29
 1178 458 1178 458 1237 683 c 1,30,-1
 510 683 l 1,31,-1
 546 852 l 1,0,-1
EndSplineSet
Validated: 1
EndChar

StartChar: uni042E
Encoding: 1070 1070 556
Width: 2057
GlyphClass: 2
Flags: W
LayerCount: 2
Fore
SplineSet
428 838 m 1,0,-1
 687 838 l 1,1,2
 765 1113 765 1113 973.5 1311 c 128,-1,3
 1182 1509 1182 1509 1478 1509 c 0,4,5
 1732 1509 1732 1509 1887 1350.5 c 128,-1,6
 2042 1192 2042 1192 2042 923 c 0,7,8
 2042 546 2042 546 1806 254 c 128,-1,9
 1570 -38 1570 -38 1213 -38 c 0,10,11
 959 -38 959 -38 804 120.5 c 128,-1,12
 649 279 649 279 649 548 c 0,13,14
 649 608 649 608 655 666 c 1,15,-1
 392 666 l 1,16,-1
 250 0 l 1,17,-1
 55 0 l 1,18,-1
 367 1470 l 1,19,-1
 562 1470 l 1,20,-1
 428 838 l 1,0,-1
1450 1333 m 0,21,22
 1193 1333 1193 1333 1018.5 1098 c 128,-1,23
 844 863 844 863 844 574 c 0,24,25
 844 378 844 378 948 258 c 128,-1,26
 1052 138 1052 138 1233 138 c 0,27,28
 1490 138 1490 138 1664.5 373 c 128,-1,29
 1839 608 1839 608 1839 897 c 0,30,31
 1839 1093 1839 1093 1735 1213 c 128,-1,32
 1631 1333 1631 1333 1450 1333 c 0,21,22
EndSplineSet
Validated: 1
EndChar

StartChar: uni042F
Encoding: 1071 1071 557
Width: 1445
GlyphClass: 2
Flags: W
LayerCount: 2
Fore
SplineSet
1170 1 m 1,0,-1
 973 1 l 1,1,-1
 1105 623 l 1,2,-1
 680 623 l 2,3,4
 555 623 555 623 490.5 582 c 128,-1,5
 426 541 426 541 400 456 c 2,6,-1
 326 216 l 2,7,8
 286 88 286 88 217 36.5 c 128,-1,9
 148 -15 148 -15 31 -15 c 0,10,11
 -29 -15 -29 -15 -81 -6 c 1,12,-1
 -46 159 l 1,13,14
 -11 152 -11 152 22 152 c 0,15,16
 68 152 68 152 93.5 175 c 128,-1,17
 119 198 119 198 137 253 c 2,18,-1
 202 450 l 2,19,20
 269 653 269 653 422 703 c 1,21,22
 245 791 245 791 245 996 c 0,23,24
 245 1204 245 1204 401 1337.5 c 128,-1,25
 557 1471 557 1471 812 1471 c 2,26,-1
 1282 1471 l 1,27,-1
 1483 1471 l 1,28,-1
 1170 1 l 1,0,-1
1248 1295 m 1,29,-1
 783 1295 l 2,30,31
 621 1295 621 1295 533 1208.5 c 128,-1,32
 445 1122 445 1122 445 1002 c 0,33,34
 445 888 445 888 506.5 839.5 c 128,-1,35
 568 791 568 791 708 791 c 2,36,-1
 1141 791 l 1,37,-1
 1248 1295 l 1,29,-1
EndSplineSet
Validated: 1
EndChar

StartChar: uni0431
Encoding: 1073 1073 559
Width: 1150
GlyphClass: 2
Flags: W
LayerCount: 2
Fore
SplineSet
1220 1498 m 1,0,1
 1211 1385 1211 1385 1157 1338 c 128,-1,2
 1103 1291 1103 1291 983 1271 c 2,3,-1
 669 1217 l 2,4,5
 378 1168 378 1168 281 800 c 1,6,-1
 285 799 l 1,7,8
 463 1026 463 1026 705 1026 c 0,9,10
 878 1026 878 1026 985 917 c 128,-1,11
 1092 808 1092 808 1092 622 c 0,12,13
 1092 368 1092 368 913 170 c 128,-1,14
 734 -28 734 -28 481 -28 c 0,15,16
 292 -28 292 -28 184.5 92 c 128,-1,17
 77 212 77 212 77 421 c 0,18,19
 77 762 77 762 241 1051 c 128,-1,20
 405 1340 405 1340 678 1384 c 2,21,-1
 870 1415 l 2,22,23
 992 1435 992 1435 1023.5 1447 c 128,-1,24
 1055 1459 1055 1459 1066 1498 c 1,25,-1
 1220 1498 l 1,0,1
256 402 m 0,26,27
 256 276 256 276 321 202 c 128,-1,28
 386 128 386 128 504 128 c 0,29,30
 671 128 671 128 787.5 271.5 c 128,-1,31
 904 415 904 415 904 601 c 0,32,33
 904 724 904 724 835 797.5 c 128,-1,34
 766 871 766 871 649 871 c 0,35,36
 482 871 482 871 369 731.5 c 128,-1,37
 256 592 256 592 256 402 c 0,26,27
EndSplineSet
Validated: 1
EndChar

StartChar: uni0432
Encoding: 1074 1074 560
Width: 1096
GlyphClass: 2
Flags: W
LayerCount: 2
Fore
SplineSet
253 1071 m 1,0,-1
 434 1071 l 1,1,-1
 744 1071 l 2,2,3
 880 1071 880 1071 966 1006.5 c 128,-1,4
 1052 942 1052 942 1052 836 c 0,5,6
 1052 647 1052 647 828 558 c 1,7,8
 984 510 984 510 984 352 c 256,9,10
 984 194 984 194 858.5 97 c 128,-1,11
 733 0 733 0 542 0 c 2,12,-1
 204 0 l 1,13,-1
 25 0 l 1,14,-1
 253 1071 l 1,0,-1
234 144 m 1,15,-1
 524 144 l 2,16,17
 643 144 643 144 718 192.5 c 128,-1,18
 793 241 793 241 793 334 c 0,19,20
 793 412 793 412 736 448 c 128,-1,21
 679 484 679 484 572 484 c 2,22,-1
 306 484 l 1,23,-1
 234 144 l 1,15,-1
334 617 m 1,24,-1
 586 617 l 2,25,26
 728 617 728 617 795 661.5 c 128,-1,27
 862 706 862 706 862 790 c 0,28,29
 862 857 862 857 813.5 891.5 c 128,-1,30
 765 926 765 926 664 926 c 2,31,-1
 400 926 l 1,32,-1
 334 617 l 1,24,-1
EndSplineSet
Validated: 1
EndChar

StartChar: uni0433
Encoding: 1075 1075 561
Width: 826
GlyphClass: 2
Flags: W
LayerCount: 2
Fore
SplineSet
253 1071 m 1,0,-1
 431 1071 l 1,1,-1
 924 1071 l 1,2,-1
 889 910 l 1,3,-1
 398 910 l 1,4,-1
 205 0 l 1,5,-1
 25 0 l 1,6,-1
 253 1071 l 1,0,-1
EndSplineSet
Validated: 1
EndChar

StartChar: uni0434
Encoding: 1076 1076 562
Width: 1184
GlyphClass: 2
Flags: W
LayerCount: 2
Fore
SplineSet
-46 157 m 1,0,-1
 18 157 l 1,1,2
 191 326 191 326 285 539 c 128,-1,3
 379 752 379 752 440 1071 c 1,4,-1
 600 1071 l 1,5,-1
 925 1071 l 1,6,-1
 1111 1071 l 1,7,-1
 916 157 l 1,8,-1
 1068 157 l 1,9,-1
 958 -360 l 1,10,-1
 786 -360 l 1,11,-1
 863 0 l 1,12,-1
 703 0 l 1,13,-1
 93 0 l 1,14,-1
 16 -360 l 1,15,-1
 -156 -360 l 1,16,-1
 -46 157 l 1,0,-1
570 917 m 1,17,18
 478 483 478 483 228 157 c 1,19,-1
 736 157 l 1,20,-1
 898 917 l 1,21,-1
 570 917 l 1,17,18
EndSplineSet
Validated: 1
EndChar

StartChar: uni0436
Encoding: 1078 1078 564
Width: 1576
GlyphClass: 2
Flags: W
LayerCount: 2
Fore
SplineSet
894 619 m 1,0,-1
 1038 619 l 2,1,2
 1123 619 1123 619 1171 656 c 128,-1,3
 1219 693 1219 693 1238 753 c 2,4,-1
 1296 937 l 2,5,6
 1323 1023 1323 1023 1382 1057 c 128,-1,7
 1441 1091 1441 1091 1526 1091 c 0,8,9
 1586 1091 1586 1091 1636 1081 c 1,10,-1
 1604 932 l 1,11,12
 1564 938 1564 938 1534 938 c 0,13,14
 1496 938 1496 938 1472 921 c 128,-1,15
 1448 904 1448 904 1432 855 c 2,16,-1
 1393 737 l 2,17,18
 1370 668 1370 668 1323 620.5 c 128,-1,19
 1276 573 1276 573 1201 550 c 1,20,-1
 1200 548 l 1,21,22
 1331 511 1331 511 1331 385 c 0,23,24
 1331 364 1331 364 1329 344 c 2,25,-1
 1316 206 l 2,26,27
 1315 195 1315 195 1315 191 c 0,28,29
 1315 158 1315 158 1335 146 c 128,-1,30
 1355 134 1355 134 1383 134 c 0,31,32
 1410 134 1410 134 1446 140 c 1,33,-1
 1415 -8 l 1,34,35
 1364 -17 1364 -17 1314 -17 c 0,36,37
 1223 -17 1223 -17 1182.5 18.5 c 128,-1,38
 1142 54 1142 54 1142 120 c 0,39,40
 1142 137 1142 137 1143 147 c 2,41,-1
 1163 340 l 2,42,43
 1164 351 1164 351 1164 362 c 0,44,45
 1164 419 1164 419 1127 450 c 128,-1,46
 1090 481 1090 481 1024 481 c 2,47,-1
 864 481 l 1,48,-1
 762 0 l 1,49,-1
 593 0 l 1,50,-1
 695 481 l 1,51,-1
 550 481 l 2,52,53
 386 481 386 481 345 343 c 2,54,-1
 286 145 l 2,55,56
 272 99 272 99 250 68 c 128,-1,57
 228 37 228 37 198.5 18 c 128,-1,58
 169 -1 169 -1 133 -9 c 128,-1,59
 97 -17 97 -17 55 -17 c 0,60,61
 0 -17 0 -17 -58 -7 c 1,62,-1
 -27 141 l 1,63,64
 11 134 11 134 38 134 c 0,65,66
 71 134 71 134 94 149 c 128,-1,67
 117 164 117 164 130 206 c 2,68,-1
 174 352 l 2,69,70
 223 513 223 513 391 555 c 1,71,-1
 392 557 l 1,72,73
 276 597 276 597 276 715 c 0,74,75
 276 727 276 727 277 737 c 2,76,-1
 289 861 l 2,77,78
 290 872 290 872 290 879 c 0,79,80
 290 938 290 938 219 938 c 0,81,82
 189 938 189 938 148 932 c 1,83,-1
 180 1081 l 1,84,85
 231 1090 231 1090 283 1090 c 0,86,87
 372 1090 372 1090 413 1054 c 128,-1,88
 454 1018 454 1018 454 958 c 0,89,90
 454 945 454 945 453 937 c 2,91,-1
 433 753 l 2,92,93
 432 745 432 745 432 730 c 0,94,95
 432 673 432 673 467.5 646 c 128,-1,96
 503 619 503 619 577 619 c 2,97,-1
 725 619 l 1,98,-1
 821 1071 l 1,99,-1
 990 1071 l 1,100,-1
 894 619 l 1,0,-1
EndSplineSet
Validated: 1
EndChar

StartChar: uni0437
Encoding: 1079 1079 565
Width: 1047
GlyphClass: 2
Flags: W
LayerCount: 2
Fore
SplineSet
371 623 m 1,0,-1
 580 623 l 2,1,2
 697 623 697 623 756.5 664.5 c 128,-1,3
 816 706 816 706 816 788 c 256,4,5
 816 870 816 870 759.5 909.5 c 128,-1,6
 703 949 703 949 597 949 c 0,7,8
 498 949 498 949 419.5 900 c 128,-1,9
 341 851 341 851 314 758 c 1,10,-1
 141 758 l 1,11,12
 180 921 180 921 306.5 1012 c 128,-1,13
 433 1103 433 1103 638 1103 c 0,14,15
 789 1103 789 1103 896.5 1032.5 c 128,-1,16
 1004 962 1004 962 1004 831 c 0,17,18
 1004 649 1004 649 793 560 c 1,19,-1
 792 558 l 1,20,21
 944 502 944 502 944 357 c 0,22,23
 944 183 944 183 794.5 77 c 128,-1,24
 645 -29 645 -29 431 -29 c 0,25,26
 239 -29 239 -29 128 44.5 c 128,-1,27
 17 118 17 118 17 257 c 0,28,29
 17 295 17 295 22 327 c 1,30,-1
 196 327 l 1,31,32
 194 307 194 307 194 295 c 0,33,34
 194 213 194 213 254 169 c 128,-1,35
 314 125 314 125 441 125 c 0,36,37
 584 125 584 125 668.5 181 c 128,-1,38
 753 237 753 237 753 338 c 0,39,40
 753 479 753 479 558 479 c 2,41,-1
 341 479 l 1,42,-1
 371 623 l 1,0,-1
EndSplineSet
Validated: 1
EndChar

StartChar: uni0438
Encoding: 1080 1080 566
Width: 1167
GlyphClass: 2
Flags: W
LayerCount: 2
Fore
SplineSet
742 -1 m 1,0,-1
 899 739 l 1,1,-1
 892 739 l 1,2,-1
 226 97 l 1,3,-1
 205 -1 l 1,4,-1
 25 -1 l 1,5,-1
 252 1070 l 1,6,-1
 432 1070 l 1,7,-1
 277 339 l 1,8,-1
 284 339 l 1,9,-1
 950 977 l 1,10,-1
 969 1070 l 1,11,-1
 1149 1070 l 1,12,-1
 922 -1 l 1,13,-1
 742 -1 l 1,0,-1
EndSplineSet
Validated: 1
EndChar

StartChar: uni043A
Encoding: 1082 1082 568
Width: 1092
GlyphClass: 2
Flags: W
LayerCount: 2
Fore
SplineSet
433 1071 m 1,0,-1
 337 623 l 1,1,-1
 550 623 l 2,2,3
 635 623 635 623 683 658 c 128,-1,4
 731 693 731 693 750 753 c 2,5,-1
 808 937 l 2,6,7
 835 1023 835 1023 896 1057 c 128,-1,8
 957 1091 957 1091 1042 1091 c 0,9,10
 1102 1091 1102 1091 1152 1081 c 1,11,-1
 1120 932 l 1,12,13
 1080 938 1080 938 1050 938 c 0,14,15
 1012 938 1012 938 988 921 c 128,-1,16
 964 904 964 904 948 855 c 2,17,-1
 909 737 l 2,18,19
 886 668 886 668 839 620.5 c 128,-1,20
 792 573 792 573 717 550 c 1,21,-1
 716 548 l 1,22,23
 848 511 848 511 848 385 c 1,24,-1
 846 344 l 1,25,-1
 833 206 l 1,26,-1
 832 191 l 2,27,28
 832 158 832 158 851.5 146 c 128,-1,29
 871 134 871 134 899 134 c 0,30,31
 926 134 926 134 962 140 c 1,32,-1
 931 -8 l 1,33,34
 880 -17 880 -17 830 -17 c 0,35,36
 739 -17 739 -17 696.5 18 c 128,-1,37
 654 53 654 53 654 119 c 2,38,-1
 655 146 l 1,39,-1
 675 340 l 1,40,-1
 676 362 l 2,41,42
 676 419 676 419 639 446.5 c 128,-1,43
 602 474 602 474 536 474 c 2,44,-1
 306 474 l 1,45,-1
 205 0 l 1,46,-1
 25 0 l 1,47,-1
 253 1071 l 1,48,-1
 433 1071 l 1,0,-1
EndSplineSet
Validated: 1
EndChar

StartChar: uni043B
Encoding: 1083 1083 569
Width: 1131
GlyphClass: 2
Flags: W
LayerCount: 2
Fore
SplineSet
706 0 m 1,0,-1
 901 917 l 1,1,-1
 581 917 l 1,2,3
 420 348 420 348 280 169 c 128,-1,4
 140 -10 140 -10 -62 -10 c 0,5,6
 -81 -10 -81 -10 -97 -9 c 1,7,-1
 -61 162 l 1,8,9
 -51 161 -51 161 -44 161 c 0,10,11
 118 161 118 161 227.5 376.5 c 128,-1,12
 337 592 337 592 458 1071 c 1,13,-1
 934 1073 l 1,14,-1
 1114 1071 l 1,15,-1
 886 0 l 1,16,-1
 706 0 l 1,0,-1
EndSplineSet
Validated: 1
EndChar

StartChar: uni043C
Encoding: 1084 1084 570
Width: 1370
GlyphClass: 2
Flags: W
LayerCount: 2
Fore
SplineSet
253 1071 m 1,0,-1
 424 1073 l 1,1,-1
 517 1071 l 1,2,-1
 617 193 l 1,3,-1
 623 193 l 1,4,-1
 1092 1071 l 1,5,-1
 1184 1071 l 1,6,-1
 1353 1071 l 1,7,-1
 1125 0 l 1,8,-1
 953 0 l 1,9,-1
 1136 862 l 1,10,-1
 1129 862 l 1,11,-1
 666 0 l 1,12,-1
 494 0 l 1,13,-1
 387 862 l 1,14,-1
 380 862 l 1,15,-1
 197 0 l 1,16,-1
 25 0 l 1,17,-1
 253 1071 l 1,0,-1
EndSplineSet
Validated: 1
EndChar

StartChar: uni043D
Encoding: 1085 1085 571
Width: 1142
GlyphClass: 2
Flags: W
LayerCount: 2
Fore
SplineSet
897 0 m 1,0,-1
 717 0 l 1,1,-1
 817 472 l 1,2,-1
 305 472 l 1,3,-1
 205 0 l 1,4,-1
 25 0 l 1,5,-1
 253 1071 l 1,6,-1
 433 1071 l 1,7,-1
 339 629 l 1,8,-1
 851 629 l 1,9,-1
 945 1071 l 1,10,-1
 1125 1071 l 1,11,-1
 897 0 l 1,0,-1
EndSplineSet
Validated: 1
EndChar

StartChar: uni043F
Encoding: 1087 1087 573
Width: 1116
GlyphClass: 2
Flags: W
LayerCount: 2
Fore
SplineSet
253 1071 m 1,0,-1
 432 1071 l 1,1,-1
 919 1071 l 1,2,-1
 1099 1071 l 1,3,-1
 871 0 l 1,4,-1
 691 0 l 1,5,-1
 885 914 l 1,6,-1
 399 914 l 1,7,-1
 205 0 l 1,8,-1
 25 0 l 1,9,-1
 253 1071 l 1,0,-1
EndSplineSet
Validated: 1
EndChar

StartChar: uni0442
Encoding: 1090 1090 576
Width: 962
GlyphClass: 2
Flags: W
LayerCount: 2
Fore
SplineSet
474 910 m 1,0,-1
 103 910 l 1,1,-1
 138 1071 l 1,2,-1
 509 1071 l 1,3,-1
 688 1071 l 1,4,-1
 1060 1071 l 1,5,-1
 1025 910 l 1,6,-1
 654 910 l 1,7,-1
 461 0 l 1,8,-1
 281 0 l 1,9,-1
 474 910 l 1,0,-1
EndSplineSet
Validated: 1
EndChar

StartChar: uni0444
Encoding: 1092 1092 578
Width: 1470
GlyphClass: 2
Flags: W
LayerCount: 2
Fore
SplineSet
536 -5 m 1,0,-1
 455 -5 l 2,1,2
 257 -5 257 -5 163 68.5 c 128,-1,3
 69 142 69 142 69 293 c 0,4,5
 69 389 69 389 90 491 c 2,6,-1
 123 648 l 2,7,8
 171 873 171 873 283.5 974.5 c 128,-1,9
 396 1076 396 1076 633 1075 c 2,10,-1
 765 1076 l 1,11,-1
 845 1450 l 1,12,-1
 1021 1450 l 1,13,-1
 942 1076 l 1,14,-1
 1023 1076 l 2,15,16
 1221 1076 1221 1076 1315 1002.5 c 128,-1,17
 1409 929 1409 929 1409 778 c 0,18,19
 1409 682 1409 682 1388 580 c 2,20,-1
 1355 423 l 2,21,22
 1307 198 1307 198 1194.5 96.5 c 128,-1,23
 1082 -5 1082 -5 845 -4 c 2,24,-1
 712 -5 l 1,25,-1
 627 -405 l 1,26,-1
 451 -405 l 1,27,-1
 536 -5 l 1,0,-1
907 921 m 1,28,-1
 743 150 l 1,29,-1
 834 150 l 2,30,31
 1001 150 1001 150 1072 213 c 128,-1,32
 1143 276 1143 276 1184.5 475.5 c 128,-1,33
 1226 675 1226 675 1226 753 c 0,34,35
 1226 841 1226 841 1178.5 881 c 128,-1,36
 1131 921 1131 921 1001 921 c 2,37,-1
 907 921 l 1,28,-1
571 150 m 1,38,-1
 735 921 l 1,39,-1
 644 921 l 2,40,41
 477 921 477 921 406 858 c 128,-1,42
 335 795 335 795 293.5 595.5 c 128,-1,43
 252 396 252 396 252 318 c 0,44,45
 252 230 252 230 299.5 190 c 128,-1,46
 347 150 347 150 477 150 c 2,47,-1
 571 150 l 1,38,-1
EndSplineSet
Validated: 33
EndChar

StartChar: uni0446
Encoding: 1094 1094 580
Width: 1140
GlyphClass: 2
Flags: W
LayerCount: 2
Fore
SplineSet
872 157 m 1,0,-1
 1024 157 l 1,1,-1
 914 -360 l 1,2,-1
 742 -360 l 1,3,-1
 819 0 l 1,4,-1
 660 0 l 1,5,-1
 205 0 l 1,6,-1
 25 0 l 1,7,-1
 253 1071 l 1,8,-1
 433 1071 l 1,9,-1
 238 157 l 1,10,-1
 692 157 l 1,11,-1
 887 1071 l 1,12,-1
 1067 1071 l 1,13,-1
 872 157 l 1,0,-1
EndSplineSet
Validated: 1
EndChar

StartChar: uni0447
Encoding: 1095 1095 581
Width: 1023
GlyphClass: 2
Flags: W
LayerCount: 2
Fore
SplineSet
691 438 m 1,0,1
 560 418 560 418 450 418 c 0,2,3
 280 418 280 418 196 473.5 c 128,-1,4
 112 529 112 529 112 646 c 0,5,6
 112 690 112 690 122 737 c 2,7,-1
 193 1071 l 1,8,-1
 373 1071 l 1,9,-1
 310 777 l 2,10,11
 300 729 300 729 300 700 c 0,12,13
 300 630 300 630 343 598 c 128,-1,14
 386 566 386 566 494 566 c 0,15,16
 614 566 614 566 722 585 c 1,17,-1
 826 1071 l 1,18,-1
 1006 1071 l 1,19,-1
 778 0 l 1,20,-1
 598 0 l 1,21,-1
 691 438 l 1,0,1
EndSplineSet
Validated: 1
EndChar

StartChar: uni0448
Encoding: 1096 1096 582
Width: 1588
GlyphClass: 2
Flags: W
LayerCount: 2
Fore
SplineSet
825 1071 m 1,0,-1
 999 1071 l 1,1,-1
 804 156 l 1,2,-1
 1202 156 l 1,3,-1
 1397 1071 l 1,4,-1
 1570 1071 l 1,5,-1
 1342 0 l 1,6,-1
 1169 0 l 1,7,-1
 770 0 l 1,8,-1
 597 0 l 1,9,-1
 198 0 l 1,10,-1
 25 0 l 1,11,-1
 253 1071 l 1,12,-1
 427 1071 l 1,13,-1
 232 156 l 1,14,-1
 630 156 l 1,15,-1
 825 1071 l 1,0,-1
EndSplineSet
Validated: 1
EndChar

StartChar: uni0449
Encoding: 1097 1097 583
Width: 1624
GlyphClass: 2
Flags: W
LayerCount: 2
Fore
SplineSet
815 1071 m 1,0,-1
 989 1071 l 1,1,-1
 794 156 l 1,2,-1
 1180 156 l 1,3,-1
 1375 1071 l 1,4,-1
 1551 1071 l 1,5,-1
 1356 156 l 1,6,-1
 1508 156 l 1,7,-1
 1398 -361 l 1,8,-1
 1226 -361 l 1,9,-1
 1303 0 l 1,10,-1
 1147 0 l 1,11,-1
 762 0 l 1,12,-1
 587 0 l 1,13,-1
 195 0 l 1,14,-1
 25 0 l 1,15,-1
 253 1071 l 1,16,-1
 427 1071 l 1,17,-1
 232 156 l 1,18,-1
 620 156 l 1,19,-1
 815 1071 l 1,0,-1
EndSplineSet
Validated: 1
EndChar

StartChar: uni044A
Encoding: 1098 1098 584
Width: 1283
GlyphClass: 2
Flags: W
LayerCount: 2
Fore
SplineSet
601 660 m 1,0,-1
 861 660 l 2,1,2
 1028 660 1028 660 1123 593.5 c 128,-1,3
 1218 527 1218 527 1218 396 c 0,4,5
 1218 214 1218 214 1084.5 107 c 128,-1,6
 951 0 951 0 761 0 c 2,7,-1
 458 0 l 1,8,-1
 281 0 l 1,9,-1
 475 914 l 1,10,-1
 104 914 l 1,11,-1
 138 1071 l 1,12,-1
 509 1071 l 1,13,-1
 689 1071 l 1,14,-1
 601 660 l 1,0,-1
492 144 m 1,15,-1
 755 144 l 2,16,17
 879 144 879 144 953 204.5 c 128,-1,18
 1027 265 1027 265 1027 368 c 0,19,20
 1027 443 1027 443 977 479.5 c 128,-1,21
 927 516 927 516 810 516 c 2,22,-1
 571 516 l 1,23,-1
 492 144 l 1,15,-1
EndSplineSet
Validated: 1
EndChar

StartChar: uni044B
Encoding: 1099 1099 585
Width: 1449
GlyphClass: 2
Flags: W
LayerCount: 2
Fore
SplineSet
345 660 m 1,0,-1
 582 660 l 2,1,2
 749 660 749 660 844 593.5 c 128,-1,3
 939 527 939 527 939 396 c 0,4,5
 939 214 939 214 805.5 107 c 128,-1,6
 672 0 672 0 482 0 c 2,7,-1
 206 0 l 1,8,-1
 25 0 l 1,9,-1
 253 1071 l 1,10,-1
 433 1071 l 1,11,-1
 345 660 l 1,0,-1
1204 0 m 1,12,-1
 1026 0 l 1,13,-1
 1254 1071 l 1,14,-1
 1432 1071 l 1,15,-1
 1204 0 l 1,12,-1
236 144 m 1,16,-1
 476 144 l 2,17,18
 600 144 600 144 674 204.5 c 128,-1,19
 748 265 748 265 748 368 c 0,20,21
 748 443 748 443 698 479.5 c 128,-1,22
 648 516 648 516 531 516 c 2,23,-1
 315 516 l 1,24,-1
 236 144 l 1,16,-1
EndSplineSet
Validated: 1
EndChar

StartChar: uni044C
Encoding: 1100 1100 586
Width: 1041
GlyphClass: 2
Flags: W
LayerCount: 2
Fore
SplineSet
253 1071 m 1,0,-1
 433 1071 l 1,1,-1
 345 660 l 1,2,-1
 615 660 l 2,3,4
 782 660 782 660 877 593.5 c 128,-1,5
 972 527 972 527 972 396 c 0,6,7
 972 214 972 214 838.5 107 c 128,-1,8
 705 0 705 0 515 0 c 2,9,-1
 206 0 l 1,10,-1
 25 0 l 1,11,-1
 253 1071 l 1,0,-1
236 144 m 1,12,-1
 509 144 l 2,13,14
 633 144 633 144 707 204.5 c 128,-1,15
 781 265 781 265 781 368 c 0,16,17
 781 443 781 443 731 479.5 c 128,-1,18
 681 516 681 516 564 516 c 2,19,-1
 315 516 l 1,20,-1
 236 144 l 1,12,-1
EndSplineSet
Validated: 1
EndChar

StartChar: uni044D
Encoding: 1101 1101 587
Width: 1073
GlyphClass: 2
Flags: W
LayerCount: 2
Fore
SplineSet
206 359 m 1,0,1
 200 248 200 248 255 185.5 c 128,-1,2
 310 123 310 123 422 123 c 0,3,4
 713 123 713 123 809 481 c 1,5,-1
 319 481 l 1,6,-1
 350 628 l 1,7,-1
 833 628 l 1,8,9
 836 655 836 655 836 684 c 0,10,11
 836 806 836 806 779.5 876 c 128,-1,12
 723 946 723 946 604 946 c 0,13,14
 370 946 370 946 284 735 c 1,15,-1
 113 735 l 1,16,17
 171 914 171 914 306.5 1007.5 c 128,-1,18
 442 1101 442 1101 620 1101 c 0,19,20
 808 1101 808 1101 916 989 c 128,-1,21
 1024 877 1024 877 1024 692 c 0,22,23
 1024 410 1024 410 855 190 c 128,-1,24
 686 -30 686 -30 403 -30 c 0,25,26
 240 -30 240 -30 136 59.5 c 128,-1,27
 32 149 32 149 32 294 c 0,28,29
 32 330 32 330 36 359 c 1,30,-1
 206 359 l 1,31,-1
 206 359 l 1,0,1
EndSplineSet
Validated: 37
EndChar

StartChar: uni044E
Encoding: 1102 1102 588
Width: 1529
GlyphClass: 2
Flags: W
LayerCount: 2
Fore
SplineSet
1095 1101 m 0,0,1
 1278 1101 1278 1101 1376 988 c 128,-1,2
 1474 875 1474 875 1474 689 c 0,3,4
 1474 411 1474 411 1306 190.5 c 128,-1,5
 1138 -30 1138 -30 877 -30 c 0,6,7
 694 -30 694 -30 600 83 c 128,-1,8
 506 196 506 196 506 382 c 0,9,10
 506 434 506 434 511 485 c 1,11,-1
 306 485 l 1,12,-1
 203 0 l 1,13,-1
 25 0 l 1,14,-1
 253 1071 l 1,15,-1
 431 1071 l 1,16,-1
 338 636 l 1,17,-1
 542 636 l 1,18,19
 598 826 598 826 739.5 963.5 c 128,-1,20
 881 1101 881 1101 1095 1101 c 0,0,1
1070 945 m 0,21,22
 902 945 902 945 791.5 779.5 c 128,-1,23
 681 614 681 614 681 399 c 0,24,25
 681 277 681 277 736.5 201.5 c 128,-1,26
 792 126 792 126 898 126 c 0,27,28
 1066 126 1066 126 1176.5 291.5 c 128,-1,29
 1287 457 1287 457 1287 672 c 0,30,31
 1287 794 1287 794 1231.5 869.5 c 128,-1,32
 1176 945 1176 945 1070 945 c 0,21,22
EndSplineSet
Validated: 1
EndChar

StartChar: uni044F
Encoding: 1103 1103 589
Width: 1107
GlyphClass: 2
Flags: W
LayerCount: 2
Fore
SplineSet
914 1071 m 1,0,-1
 1090 1071 l 1,1,-1
 862 0 l 1,2,-1
 684 0 l 1,3,-1
 775 430 l 1,4,-1
 515 430 l 2,5,6
 449 430 449 430 398.5 402 c 128,-1,7
 348 374 348 374 327 308 c 2,8,-1
 275 146 l 2,9,10
 249 65 249 65 193.5 24.5 c 128,-1,11
 138 -16 138 -16 37 -16 c 0,12,13
 -19 -16 -19 -16 -66 -7 c 1,14,-1
 -35 139 l 1,15,16
 -7 133 -7 133 23 133 c 0,17,18
 61 133 61 133 83 151.5 c 128,-1,19
 105 170 105 170 121 220 c 2,20,-1
 152 317 l 2,21,22
 192 442 192 442 330 493 c 1,23,24
 160 561 160 561 160 725 c 0,25,26
 160 879 160 879 278 975 c 128,-1,27
 396 1071 396 1071 580 1071 c 2,28,-1
 914 1071 l 1,0,-1
881 926 m 1,29,-1
 564 926 l 2,30,31
 467 926 467 926 404.5 870 c 128,-1,32
 342 814 342 814 342 727 c 0,33,34
 342 574 342 574 524 574 c 2,35,-1
 806 574 l 1,36,-1
 881 926 l 1,29,-1
EndSplineSet
Validated: 1
EndChar

StartChar: uni0452
Encoding: 1106 1106 592
Width: 1150
GlyphClass: 2
Flags: W
LayerCount: 2
Fore
SplineSet
373 1470 m 1,0,-1
 553 1470 l 1,1,-1
 520 1316 l 1,2,-1
 897 1316 l 1,3,-1
 873 1204 l 1,4,-1
 496 1204 l 1,5,-1
 425 868 l 1,6,-1
 429 868 l 1,7,8
 583 1044 583 1044 797 1044 c 0,9,10
 932 1044 932 1044 1010.5 974 c 128,-1,11
 1089 904 1089 904 1089 778 c 0,12,13
 1089 730 1089 730 1077 671 c 2,14,-1
 930 -18 l 2,15,16
 885 -230 885 -230 756.5 -332 c 128,-1,17
 628 -434 628 -434 427 -434 c 1,18,-1
 461 -272 l 1,19,20
 584 -272 584 -272 653 -208 c 128,-1,21
 722 -144 722 -144 747 -30 c 2,22,-1
 881 601 l 2,23,24
 896 671 896 671 896 721 c 0,25,26
 896 801 896 801 853 841.5 c 128,-1,27
 810 882 810 882 732 882 c 0,28,29
 587 882 587 882 487.5 786.5 c 128,-1,30
 388 691 388 691 353 526 c 2,31,-1
 241 0 l 1,32,-1
 61 0 l 1,33,-1
 316 1204 l 1,34,-1
 184 1204 l 1,35,-1
 208 1316 l 1,36,-1
 340 1316 l 1,37,-1
 373 1470 l 1,0,-1
EndSplineSet
Validated: 1
EndChar

StartChar: uni0454
Encoding: 1108 1108 594
Width: 1058
GlyphClass: 2
Flags: W
LayerCount: 2
Fore
SplineSet
875 735 m 1,0,1
 877 848 877 848 817.5 897.5 c 128,-1,2
 758 947 758 947 666 947 c 0,3,4
 394 947 394 947 286 628 c 1,5,-1
 763 628 l 1,6,-1
 732 481 l 1,7,-1
 251 481 l 1,8,9
 244 433 244 433 244 382 c 0,10,11
 244 265 244 265 302 193.5 c 128,-1,12
 360 122 360 122 465 122 c 0,13,14
 573 122 573 122 661 185 c 128,-1,15
 749 248 749 248 795 353 c 1,16,-1
 972 353 l 1,17,18
 918 188 918 188 778 79 c 128,-1,19
 638 -30 638 -30 454 -30 c 0,20,21
 271 -30 271 -30 163.5 79 c 128,-1,22
 56 188 56 188 56 366 c 0,23,24
 56 658 56 658 233 879.5 c 128,-1,25
 410 1101 410 1101 689 1101 c 0,26,27
 842 1101 842 1101 945 1019 c 128,-1,28
 1048 937 1048 937 1048 804 c 0,29,30
 1048 774 1048 774 1044 735 c 1,31,-1
 875 735 l 1,32,-1
 875 735 l 1,0,1
EndSplineSet
Validated: 37
EndChar

StartChar: uni0459
Encoding: 1113 1113 599
Width: 1678
GlyphClass: 2
Flags: W
LayerCount: 2
Fore
SplineSet
872 0 m 1,0,-1
 696 0 l 1,1,-1
 891 917 l 1,2,-1
 581 917 l 1,3,4
 420 348 420 348 280 169 c 128,-1,5
 140 -10 140 -10 -62 -10 c 0,6,7
 -81 -10 -81 -10 -97 -9 c 1,8,-1
 -61 162 l 1,9,10
 -51 161 -51 161 -44 161 c 0,11,12
 118 161 118 161 227.5 376.5 c 128,-1,13
 337 592 337 592 458 1071 c 1,14,-1
 640 1071 l 1,15,-1
 922 1071 l 1,16,-1
 1104 1071 l 1,17,-1
 1016 660 l 1,18,-1
 1256 660 l 2,19,20
 1423 660 1423 660 1518 593.5 c 128,-1,21
 1613 527 1613 527 1613 396 c 0,22,23
 1613 214 1613 214 1479.5 107 c 128,-1,24
 1346 0 1346 0 1156 0 c 2,25,-1
 872 0 l 1,0,-1
907 144 m 1,26,-1
 1150 144 l 2,27,28
 1274 144 1274 144 1348 204.5 c 128,-1,29
 1422 265 1422 265 1422 368 c 0,30,31
 1422 443 1422 443 1372 479.5 c 128,-1,32
 1322 516 1322 516 1205 516 c 2,33,-1
 986 516 l 1,34,-1
 907 144 l 1,26,-1
EndSplineSet
Validated: 1
EndChar

StartChar: uni045A
Encoding: 1114 1114 600
Width: 1667
GlyphClass: 2
Flags: W
LayerCount: 2
Fore
SplineSet
1004 660 m 1,0,-1
 1245 660 l 2,1,2
 1412 660 1412 660 1507 593.5 c 128,-1,3
 1602 527 1602 527 1602 396 c 0,4,5
 1602 214 1602 214 1468.5 107 c 128,-1,6
 1335 0 1335 0 1145 0 c 2,7,-1
 865 0 l 1,8,-1
 684 0 l 1,9,-1
 794 516 l 1,10,-1
 315 516 l 1,11,-1
 205 0 l 1,12,-1
 25 0 l 1,13,-1
 253 1071 l 1,14,-1
 433 1071 l 1,15,-1
 345 660 l 1,16,-1
 824 660 l 1,17,-1
 912 1071 l 1,18,-1
 1092 1071 l 1,19,-1
 1004 660 l 1,0,-1
895 144 m 1,20,-1
 1139 144 l 2,21,22
 1263 144 1263 144 1337 204.5 c 128,-1,23
 1411 265 1411 265 1411 368 c 0,24,25
 1411 443 1411 443 1361 479.5 c 128,-1,26
 1311 516 1311 516 1194 516 c 2,27,-1
 974 516 l 1,28,-1
 895 144 l 1,20,-1
EndSplineSet
Validated: 1
EndChar

StartChar: uni045F
Encoding: 1119 1119 605
Width: 1105
GlyphClass: 2
Flags: W
LayerCount: 2
Fore
SplineSet
860 0 m 1,0,-1
 679 0 l 1,1,-1
 528 0 l 1,2,-1
 456 -340 l 1,3,-1
 284 -340 l 1,4,-1
 356 0 l 1,5,-1
 203 0 l 1,6,-1
 25 0 l 1,7,-1
 253 1071 l 1,8,-1
 433 1071 l 1,9,-1
 238 157 l 1,10,-1
 713 157 l 1,11,-1
 908 1071 l 1,12,-1
 1088 1071 l 1,13,-1
 860 0 l 1,0,-1
EndSplineSet
Validated: 1
EndChar

StartChar: uni0462
Encoding: 1122 1122 606
Width: 1555
GlyphClass: 2
Flags: W
LayerCount: 2
Fore
SplineSet
1150 1071 m 1,0,-1
 719 1071 l 1,1,-1
 668 835 l 1,2,-1
 1044 835 l 2,3,4
 1255 835 1255 835 1371.5 754.5 c 128,-1,5
 1488 674 1488 674 1488 513 c 0,6,7
 1488 285 1488 285 1322 142.5 c 128,-1,8
 1156 0 1156 0 897 0 c 2,9,-1
 490 0 l 1,10,-1
 292 0 l 1,11,-1
 520 1071 l 1,12,-1
 148 1071 l 1,13,-1
 183 1236 l 1,14,-1
 555 1236 l 1,15,-1
 604 1470 l 1,16,-1
 803 1470 l 1,17,-1
 754 1236 l 1,18,-1
 1185 1236 l 1,19,-1
 1150 1071 l 1,0,-1
529 174 m 1,20,-1
 904 174 l 2,21,22
 1083 174 1083 174 1181 256.5 c 128,-1,23
 1279 339 1279 339 1279 474 c 0,24,25
 1279 570 1279 570 1212 617 c 128,-1,26
 1145 664 1145 664 983 664 c 2,27,-1
 633 664 l 1,28,-1
 529 174 l 1,20,-1
EndSplineSet
Validated: 1
EndChar

StartChar: uni0463
Encoding: 1123 1123 607
Width: 1206
GlyphClass: 2
Flags: W
LayerCount: 2
Fore
SplineSet
138 1071 m 1,0,-1
 418 1071 l 1,1,-1
 503 1471 l 1,2,-1
 679 1471 l 1,3,-1
 594 1071 l 1,4,-1
 898 1071 l 1,5,-1
 865 918 l 1,6,-1
 561 918 l 1,7,-1
 502 638 l 1,8,-1
 776 638 l 2,9,10
 943 638 943 638 1037 573.5 c 128,-1,11
 1131 509 1131 509 1131 383 c 0,12,13
 1131 207 1131 207 998.5 103.5 c 128,-1,14
 866 0 866 0 676 0 c 2,15,-1
 371 0 l 1,16,-1
 190 0 l 1,17,-1
 385 918 l 1,18,-1
 105 918 l 1,19,-1
 138 1071 l 1,0,-1
401 144 m 1,20,-1
 669 144 l 2,21,22
 793 144 793 144 867 201 c 128,-1,23
 941 258 941 258 941 355 c 0,24,25
 941 425 941 425 891 459.5 c 128,-1,26
 841 494 841 494 724 494 c 2,27,-1
 475 494 l 1,28,-1
 401 144 l 1,20,-1
EndSplineSet
Validated: 1
EndChar

StartChar: uni0472
Encoding: 1138 1138 608
Width: 1593
GlyphClass: 2
Flags: W
LayerCount: 2
Fore
SplineSet
1373 835 m 1,0,1
 1376 866 1376 866 1376 897 c 0,2,3
 1376 1093 1376 1093 1264 1214.5 c 128,-1,4
 1152 1336 1152 1336 959 1336 c 0,5,6
 724 1336 724 1336 564.5 1176 c 128,-1,7
 405 1016 405 1016 353 835 c 1,8,-1
 1373 835 l 1,9,-1
 1373 835 l 1,0,1
314 659 m 1,10,11
 310 617 310 617 310 574 c 0,12,13
 310 378 310 378 422 256.5 c 128,-1,14
 534 135 534 135 727 135 c 0,15,16
 955 135 955 135 1113 287 c 128,-1,17
 1271 439 1271 439 1341 659 c 1,18,-1
 314 659 l 1,10,11
1583 918 m 0,19,20
 1583 546 1583 546 1335 254 c 128,-1,21
 1087 -38 1087 -38 712 -38 c 0,22,23
 437 -38 437 -38 270 120.5 c 128,-1,24
 103 279 103 279 103 553 c 0,25,26
 103 925 103 925 348.5 1217 c 128,-1,27
 594 1509 594 1509 974 1509 c 0,28,29
 1249 1509 1249 1509 1416 1350.5 c 128,-1,30
 1583 1192 1583 1192 1583 918 c 0,19,20
EndSplineSet
Validated: 5
EndChar

StartChar: uni0473
Encoding: 1139 1139 609
Width: 1149
GlyphClass: 2
Flags: W
LayerCount: 2
Fore
SplineSet
905 610 m 1,0,1
 908 641 908 641 908 674 c 0,2,3
 908 791 908 791 847 869.5 c 128,-1,4
 786 948 786 948 672 948 c 0,5,6
 394 948 394 948 279 610 c 1,7,-1
 905 610 l 1,8,-1
 905 610 l 1,0,1
251 466 m 1,9,10
 248 433 248 433 248 399 c 0,11,12
 248 282 248 282 309 203.5 c 128,-1,13
 370 125 370 125 484 125 c 0,14,15
 639 125 639 125 741 230.5 c 128,-1,16
 843 336 843 336 876 466 c 1,17,-1
 251 466 l 1,9,10
696 1102 m 0,18,19
 886 1102 886 1102 990 986.5 c 128,-1,20
 1094 871 1094 871 1094 680 c 0,21,22
 1094 412 1094 412 920.5 191.5 c 128,-1,23
 747 -29 747 -29 460 -29 c 0,24,25
 270 -29 270 -29 166 86.5 c 128,-1,26
 62 202 62 202 62 393 c 0,27,28
 62 666 62 666 235.5 884 c 128,-1,29
 409 1102 409 1102 696 1102 c 0,18,19
EndSplineSet
Validated: 5
EndChar

StartChar: uni0474
Encoding: 1140 1140 610
Width: 1406
GlyphClass: 2
Flags: W
LayerCount: 2
Fore
SplineSet
460 0 m 1,0,-1
 232 1470 l 1,1,-1
 450 1470 l 1,2,-1
 607 217 l 1,3,-1
 611 217 l 1,4,-1
 1169 1273 l 2,5,6
 1230 1388 1230 1388 1303 1437.5 c 128,-1,7
 1376 1487 1376 1487 1472 1487 c 0,8,9
 1523 1487 1523 1487 1580 1475 c 1,10,-1
 1545 1311 l 1,11,12
 1516 1316 1516 1316 1494 1316 c 0,13,14
 1445 1316 1445 1316 1406.5 1287 c 128,-1,15
 1368 1258 1368 1258 1317 1167 c 2,16,-1
 670 0 l 1,17,-1
 460 0 l 1,0,-1
EndSplineSet
Validated: 1
EndChar

